<svg width="160" height="160" viewBox="0 0 160 160" fill="none" xmlns="http://www.w3.org/2000/svg">
<path d="M151.406 21.6434H110.431C106.046 9.05719 94.0616 0 80 0C74.8784 0 69.9797 1.16812 65.44 3.47219C62.7378 4.84375 64.8587 9.02281 67.5616 7.65219C71.4378 5.685 75.6225 4.6875 80 4.6875C95.1781 4.6875 107.527 17.0359 107.527 32.2141C107.527 47.3922 95.1781 59.7406 80 59.7406C64.8219 59.7406 52.4734 47.3922 52.4734 32.2141C52.4734 25.65 54.8222 19.2934 59.0872 14.3156C61.0591 12.0147 57.4991 8.96375 55.5275 11.2656C52.8919 14.3416 50.8888 17.87 49.5778 21.6431H8.59375C3.855 21.6431 0 25.4981 0 30.2369V151.406C0 156.145 3.855 160 8.59375 160H151.406C156.145 160 160 156.145 160 151.406V50V30.2372C160 25.4984 156.145 21.6434 151.406 21.6434ZM151.406 26.3309C153.56 26.3309 155.312 28.0831 155.312 30.2372V47.6562H108.264C111.81 41.1922 113.017 33.5797 111.674 26.3309H151.406ZM8.59375 26.3309H48.3316C46.9841 33.5819 48.1881 41.1894 51.7353 47.6562H4.6875V30.2372C4.6875 28.0831 6.43969 26.3309 8.59375 26.3309ZM151.406 155.312H8.59375C6.43969 155.312 4.6875 153.56 4.6875 151.406V52.3438H54.8697C60.7784 59.7056 69.8475 64.4281 80 64.4281C90.1709 64.4281 99.2547 59.6887 105.163 52.3037C105.3 52.3287 155.312 52.3438 155.312 52.3438V151.406C155.312 153.56 153.56 155.312 151.406 155.312Z" fill="#52BD95"/>
<path d="M129.739 113.217H30.2604C12.9229 113.217 12.8932 140.153 30.2604 140.153H129.739C147.077 140.153 147.106 113.217 129.739 113.217ZM129.739 135.465H30.2604C18.9619 135.465 18.8841 117.904 30.2604 117.904H129.739C141.038 117.904 141.115 135.465 129.739 135.465Z" fill="#52BD95"/>
<path d="M37.8598 124.341C34.8435 124.341 34.8385 129.028 37.8598 129.028C40.8757 129.028 40.8807 124.341 37.8598 124.341Z" fill="#52BD95"/>
<path d="M49.8998 124.341C46.8836 124.341 46.8786 129.028 49.8998 129.028C52.9161 129.028 52.9211 124.341 49.8998 124.341Z" fill="#52BD95"/>
<path d="M61.9398 124.341C58.9236 124.341 58.9186 129.028 61.9398 129.028C64.9561 129.028 64.9611 124.341 61.9398 124.341Z" fill="#52BD95"/>
<path d="M73.9799 124.341C70.9636 124.341 70.9586 129.028 73.9799 129.028C76.9961 129.028 77.0011 124.341 73.9799 124.341Z" fill="#52BD95"/>
<path d="M86.0199 124.341C83.0037 124.341 82.9987 129.028 86.0199 129.028C89.0362 129.028 89.0412 124.341 86.0199 124.341Z" fill="#52BD95"/>
<path d="M98.0609 124.341C95.0447 124.341 95.0397 129.028 98.0609 129.028C101.077 129.028 101.082 124.341 98.0609 124.341Z" fill="#52BD95"/>
<path d="M110.1 124.341C107.084 124.341 107.079 129.028 110.1 129.028C113.116 129.028 113.121 124.341 110.1 124.341Z" fill="#52BD95"/>
<path d="M122.141 124.341C119.125 124.341 119.12 129.028 122.141 129.028C125.157 129.028 125.162 124.341 122.141 124.341Z" fill="#52BD95"/>
<path d="M129.739 77.8494H30.2604C12.9229 77.8494 12.8932 104.786 30.2604 104.786H109.155C112.185 104.786 112.185 100.098 109.155 100.098H30.2604C18.9619 100.098 18.8841 82.5369 30.2604 82.5369H129.739C141.037 82.5369 141.115 100.098 129.739 100.098H121.655C118.625 100.098 118.625 104.786 121.655 104.786H129.739C147.077 104.786 147.106 77.8494 129.739 77.8494Z" fill="#52BD95"/>
<path d="M79.9999 13.1567C75.404 13.1567 71.6652 16.8955 71.6652 21.4914V27.0195C68.9193 27.308 66.7715 29.6364 66.7715 32.4574V44.5527C66.7715 47.568 69.2249 50.0214 72.2402 50.0214H87.7596C90.7749 50.0214 93.2284 47.568 93.2284 44.5527V32.4574C93.2284 29.6361 91.0809 27.308 88.3346 27.0195V21.4914C88.3346 16.8955 84.5959 13.1567 79.9999 13.1567ZM76.3527 21.4911C76.3527 16.9286 83.6474 16.7199 83.6474 21.4911V26.9883H76.3527V21.4911ZM88.5409 44.5527C88.5409 44.9833 88.1902 45.3339 87.7596 45.3339H72.2402C71.8096 45.3339 71.459 44.9833 71.459 44.5527V32.4574C71.459 32.0267 71.8096 31.6761 72.2402 31.6761H87.7596C88.1902 31.6761 88.5409 32.0267 88.5409 32.4574V44.5527Z" fill="#52BD95"/>
<path d="M124.485 91.3174C124.485 90.023 123.435 88.9736 122.141 88.9736H37.8596C34.8293 88.9736 34.8293 93.6611 37.8596 93.6611H122.141C123.435 93.6611 124.485 92.6118 124.485 91.3174Z" fill="#52BD95"/>
<path d="M80.0004 36.1611C76.9841 36.1611 76.9791 40.8486 80.0004 40.8486C83.0167 40.8486 83.0217 36.1611 80.0004 36.1611Z" fill="#52BD95"/>
</svg>
