<svg width="174" height="100" viewBox="0 0 174 100" fill="none" xmlns="http://www.w3.org/2000/svg">
<g clip-path="url(#clip0)">
<path d="M116.211 51.0949L60.7638 83.1074L24.2695 62.0375L94.9771 21.2144L113.224 31.7494" stroke="#52BD95" stroke-width="4"/>
<path d="M84.978 51.2545C86.012 51.8515 86.5229 52.5328 86.5108 53.2983C86.4987 54.0498 86.0241 54.7732 85.0875 55.4685L86.7115 56.4061L85.5254 57.0909L83.9197 56.1638C82.8491 56.7116 81.7116 57.0523 80.5075 57.1857C79.3032 57.3192 78.1231 57.2349 76.9675 56.9329L77.7339 55.2894C79.23 55.6617 80.6048 55.5563 81.8578 54.9734L78.0624 52.7821C77.3081 52.9787 76.6816 53.1297 76.1829 53.2351C75.6718 53.3334 75.0758 53.4107 74.3947 53.4669C73.7255 53.5161 73.0869 53.4774 72.4787 53.351C71.8704 53.2105 71.2865 52.9787 70.727 52.6557C69.7052 52.0657 69.2185 51.3915 69.2672 50.6329C69.3158 49.8745 69.7964 49.1756 70.7088 48.5365L69.103 47.6094L70.2891 46.9246L71.9131 47.8623C73.762 47.0476 75.7266 46.8755 77.8069 47.346L77.0588 48.9579C75.9517 48.684 74.93 48.7191 73.9932 49.0632L77.6062 51.1492C78.1413 51.0087 78.5489 50.9069 78.8287 50.8436C79.1205 50.7734 79.516 50.6926 80.0148 50.6013C80.5257 50.5031 80.9575 50.4503 81.3103 50.4433C81.6632 50.4363 82.0583 50.4469 82.4964 50.4749C82.9465 50.4961 83.3783 50.5768 83.792 50.7172C84.1934 50.8507 84.5887 51.0297 84.978 51.2545ZM72.8254 51.4441C73.2025 51.6618 73.6222 51.7777 74.0845 51.7918C74.5589 51.7989 75.1792 51.7216 75.9457 51.56L72.7707 49.7269C72.3935 50.029 72.205 50.3345 72.205 50.6435C72.2171 50.9455 72.424 51.2124 72.8254 51.4441ZM83.0256 54.278C83.4147 53.9409 83.5912 53.6143 83.5547 53.2983C83.5182 52.9822 83.2993 52.7083 82.8978 52.4766C82.4964 52.2448 82.0523 52.129 81.5658 52.1289C81.067 52.1219 80.4466 52.1991 79.7046 52.3607L83.0256 54.278Z" fill="#52BD95"/>
<path d="M90.4159 59.4031C97.3443 55.403 97.3443 48.9176 90.4159 44.9175C83.4876 40.9174 72.2545 40.9174 65.3261 44.9175C58.3978 48.9176 58.3978 55.403 65.3261 59.4031C72.2545 63.4032 83.4876 63.4032 90.4159 59.4031Z" stroke="#52BD95" stroke-width="4"/>
<path d="M136.319 33.5596L116.931 44.753L132.042 53.4773L151.43 42.2838L136.319 33.5596Z" stroke="#52BD95" stroke-width="4"/>
<path d="M132.043 34.0536C128.106 31.7808 121.724 31.7808 117.787 34.0536C113.851 36.3264 113.851 40.0113 117.787 42.2841" stroke="#52BD95" stroke-width="4"/>
<path d="M134.892 43.9307C135.68 43.4762 135.68 42.7392 134.892 42.2846C134.105 41.8301 132.829 41.8301 132.041 42.2846C131.254 42.7392 131.254 43.4762 132.041 43.9307C132.829 44.3853 134.105 44.3853 134.892 43.9307Z" fill="#52BD95"/>
<path d="M136.318 44.7533L133.467 43.1072" stroke="#52BD95" stroke-width="0.888889"/>
</g>
<defs>
<clipPath id="clip0">
<rect width="98.7654" height="59.2593" fill="white" transform="matrix(0.866025 -0.5 0.866025 0.5 20.8486 62.0371)"/>
</clipPath>
</defs>
</svg>
