<svg width="174" height="100" viewBox="0 0 174 100" fill="none" xmlns="http://www.w3.org/2000/svg">
<g clip-path="url(#clip0)">
<path d="M54.8841 31.1709C51.265 33.2604 51.265 36.6482 54.8841 38.7377C58.5033 40.8273 64.3711 40.8273 67.9902 38.7377C71.6094 36.6482 71.6094 33.2604 67.9902 31.1709C64.3689 29.0847 58.5059 29.0847 54.8841 31.1709ZM63.9993 36.4336C62.5844 37.2505 60.29 37.2505 58.875 36.4336C57.46 35.6167 57.46 34.292 58.875 33.4751C60.29 32.6581 62.5844 32.6581 63.9993 33.4751C65.4121 34.2926 65.4121 35.6161 63.9993 36.4336Z" fill="#52BD95"/>
<path d="M156.072 42.4309C156.07 42.4316 156.069 42.4324 156.068 42.4331L150.9 45.4169L110.991 22.3755L114.551 20.3199C115.653 19.6838 115.771 18.684 114.669 18.0478L105.554 12.7851C104.746 12.3264 103.544 12.1883 102.494 12.4338L46.4546 25.3886C45.7368 25.5549 45.1677 25.8834 44.8798 26.2978L22.4834 58.6279C22.0756 59.2309 22.3354 59.9164 23.1421 60.3658L32.2573 65.6285C33.2593 66.2371 34.9263 66.2615 35.9805 65.6831C36.0178 65.6627 36.0537 65.6417 36.0888 65.6201L39.7531 63.5045L79.6621 86.546L73.4961 90.1059C72.3831 90.7331 72.3615 91.7626 73.448 92.4053C73.4492 92.406 73.4506 92.4068 73.4518 92.4075L82.9422 97.8868C84.0443 98.5231 85.763 98.4614 86.8656 97.8248L169.437 50.152C170.539 49.5157 170.647 48.5231 169.545 47.8868L160.054 42.4075C158.944 41.779 157.16 41.7894 156.072 42.4309ZM34.1658 62.122L28.4492 58.8216L49.7183 28.1289L102.88 15.8492L108.596 19.1497L34.1658 62.122ZM107 24.6796L146.909 47.7211L137.131 53.3663L97.222 30.3248L107 24.6796ZM93.2311 32.6289L133.14 55.6704L123.562 61.2004L83.653 38.1589L93.2311 32.6289ZM79.6621 40.463L119.571 63.5045L109.993 69.0345L70.0839 45.993L79.6621 40.463ZM66.093 48.2971L106.002 71.3386L96.4238 76.8686L56.5148 53.8271L66.093 48.2971ZM52.5239 56.1312L92.4329 79.1727L83.653 84.2418L43.744 61.2004L52.5239 56.1312ZM163.471 48.9884L84.8502 94.3801L79.4625 91.2695L158.083 45.8778L163.471 48.9884Z" fill="#52BD95"/>
</g>
<defs>
<clipPath id="clip0">
<rect width="100" height="100" fill="white" transform="matrix(0.866025 -0.5 0.866025 0.5 0 50)"/>
</clipPath>
</defs>
</svg>
