<svg width="158" height="91" viewBox="0 0 158 91" fill="none" xmlns="http://www.w3.org/2000/svg">
<path d="M113.454 24.9268L108.379 27.8569C109.326 28.3208 110.243 28.8074 111.127 29.3176C118.768 33.729 123.403 39.5805 124.179 45.7945C124.736 50.2527 123.294 54.6891 120.067 58.6759L118.184 53.7377L111.196 54.626L115.95 67.0955L135.863 62.2445L133.082 58.4379L126.936 59.9352C130.403 55.4416 131.939 50.4807 131.317 45.4972C130.417 38.2931 125.044 31.5094 116.187 26.396C115.304 25.8864 114.392 25.3968 113.454 24.9268Z" fill="#52BD95"/>
<path d="M43.6173 65.7579L48.6923 62.8279C47.7454 62.3639 46.8279 61.8774 45.9443 61.3672C38.3035 56.9558 33.6682 51.1043 32.892 44.8903C32.3352 40.4321 33.7777 35.9957 37.0043 32.0089L38.8874 36.947L45.8758 36.0588L41.1208 23.5893L21.2079 28.4402L23.9896 32.2469L30.1358 30.7496C26.668 35.2432 25.1319 40.204 25.7542 45.1876C26.654 52.3917 32.0271 59.1753 40.8839 64.2888C41.7669 64.7984 42.6791 65.288 43.6173 65.7579Z" fill="#52BD95"/>
<rect width="40" height="40" rx="20" transform="matrix(0.866025 -0.5 0.866025 0.5 43 45)" fill="#52BD95"/>
<path d="M79.5955 53.8008L66.1964 46.0648L68.5966 45.6133L81.1959 52.8875L79.5955 53.8008ZM87.9401 52.3465L74.6474 44.6719L76.2663 43.7693L89.5313 51.4278L87.9401 52.3465ZM72.5686 55.0709L60.3855 48.037L61.2137 46.6673L73.8129 53.9414L72.5686 55.0709ZM76.6057 45.2337L61.2525 48.3105L62.2534 46.7396L75.8443 43.9969L76.6103 45.231L76.6057 45.2337ZM82.6138 36.7944L65.9348 39.4569L65.1 38.2411L81.9867 35.5335L82.6184 36.7918L82.6138 36.7944ZM89.5119 52.2719L72.5964 55.0869L71.9623 53.8286L88.7574 51.0365L89.5119 52.2719ZM62.7666 47.9809L60.3855 48.037L65.1278 38.2571L67.3259 38.6524L62.7666 47.9809ZM92.5669 43.4555L80.9756 36.7633L82.0119 35.5243L94.1626 42.5395L92.5669 43.4555ZM83.5458 48.7719L81.3855 48.3695L86.2799 39.34L88.4413 39.7431L83.5504 48.7746L83.5458 48.7719ZM76.9009 45.3315L74.7633 44.8893L80.1692 35.8674L82.3068 36.3097L76.9009 45.3315ZM89.5084 52.2686L87.3639 51.8343L91.8475 42.4027L94.1314 42.5202L89.5038 52.2659L89.5084 52.2686Z" fill="white"/>
</svg>
