<svg width="1440" height="1078" viewBox="0 0 1440 1078" fill="none" xmlns="http://www.w3.org/2000/svg">
<path d="M196 381C98.4656 389.226 -50 429 -50 429V436L-33 1078H1492V1C1492 1 1382.93 131.531 1289 180C1238.83 205.888 1207.93 215.972 1153 229C1080.93 246.094 1036.39 229.28 964 245C893.147 260.387 860.595 295.553 789 307C726.529 316.988 689.015 294.485 627 307C553.528 321.827 525.833 370.299 453 388C355.438 411.711 296.047 372.562 196 381Z" fill="#22BB95" fill-opacity="0.05"/>
<path d="M1492 1C1492 1 1382.93 131.531 1289 180C1238.83 205.888 1207.93 215.972 1153 229C1080.93 246.094 1036.39 229.28 964 245C893.147 260.387 860.595 295.553 789 307C726.529 316.988 689.015 294.485 627 307C553.528 321.827 525.833 370.299 453 388C355.438 411.711 296.047 372.562 196 381C98.4656 389.226 -50 429 -50 429V436" stroke="#22BB95" stroke-width="2"/>
<path d="M185 502C101.144 506.494 56.9497 535.885 -27 538C-41.8352 538.374 -65 538 -65 538V1076H1507V210L1449 306L1395 350C1395 350 1343.45 385.731 1307 402C1268.85 419.028 1245.24 424.396 1205.08 433.527L1203 434C1136.39 449.15 1096.6 442.119 1029 452C958.974 462.236 921.518 480.027 851 486C763.748 493.39 714.3 469.203 627 476C542.854 482.552 499.209 512.318 415 518C325.167 524.061 274.909 497.182 185 502Z" fill="#94B2F8" fill-opacity="0.05"/>
<path d="M1507 210L1449 306L1395 350C1395 350 1343.45 385.731 1307 402C1268.2 419.319 1244.44 424.576 1203 434C1136.39 449.15 1096.6 442.119 1029 452C958.974 462.236 921.518 480.027 851 486C763.748 493.39 714.3 469.203 627 476C542.854 482.552 499.209 512.318 415 518C325.167 524.061 274.909 497.182 185 502C101.144 506.494 56.9497 535.885 -27 538C-41.8352 538.374 -65 538 -65 538" stroke="#94B2F8" stroke-width="2"/>
<path d="M123 698C53.2455 700.756 -50 722.2 -54 723L-68 1076H1509V467C1509 467 1447.33 503.249 1407 525C1339.21 561.559 1305.01 594.509 1230 612C1174.75 624.884 1140.57 609.559 1085 621C1032.74 631.759 1008.9 659.017 956 666C905.96 672.606 877.474 657.9 827 658C753.246 658.146 712.7 673.157 639 676C589.05 677.927 560.933 673.68 511 676C420.903 680.186 372.17 703.894 282 706C219.845 707.452 185.123 695.545 123 698Z" fill="#EDDDB2" fill-opacity="0.1"/>
<path d="M-54 723C-50 722.2 53.2455 700.756 123 698C185.123 695.545 219.845 707.452 282 706C372.17 703.894 420.903 680.186 511 676C560.933 673.68 589.05 677.927 639 676C712.7 673.157 753.246 658.146 827 658C877.474 657.9 905.96 672.606 956 666C1008.9 659.017 1032.74 631.759 1085 621C1140.57 609.559 1174.75 624.884 1230 612C1305.01 594.509 1339.21 561.559 1407 525C1447.33 503.249 1509 467 1509 467" stroke="#EDDDB2" stroke-width="2"/>
</svg>
