<svg width="1260" height="727" viewBox="0 0 1260 727" fill="none" xmlns="http://www.w3.org/2000/svg">
<path opacity="0.04" d="M864.041 493.818C990.891 420.582 990.89 301.842 864.042 228.606C737.192 155.369 531.53 155.37 404.68 228.606C277.831 301.843 277.831 420.582 404.681 493.818C531.529 567.054 737.192 567.055 864.041 493.818Z" fill="#52BD95"/>
<path opacity="0.08" d="M782.524 451.11C868.617 401.405 868.616 320.816 782.524 271.11C696.431 221.404 556.847 221.405 470.754 271.11C384.661 320.816 384.661 401.404 470.754 451.11C556.847 500.816 696.431 500.816 782.524 451.11Z" fill="#52BD95"/>
<path opacity="0.08" d="M721.902 416.11C774.514 385.735 774.514 336.486 721.902 306.11C669.289 275.735 583.988 275.735 531.376 306.11C478.764 336.486 478.764 385.735 531.376 416.11C583.988 446.486 669.29 446.486 721.902 416.11Z" fill="#52BD95"/>
<path d="M681.945 329.368L994.376 148.986" stroke="#52BD95" stroke-opacity="0.5" stroke-width="15"/>
<path d="M681.945 329.368L994.376 148.986" stroke="white" stroke-width="2" stroke-linecap="round" stroke-dasharray="0.1 24"/>
<g filter="url(#filter0_d)">
<path d="M931.665 145.003L981.906 115.997C987.164 112.961 995.689 112.961 1000.95 115.997L1051.19 145.003C1056.45 148.039 1056.45 152.961 1051.19 155.997L1000.95 185.003C995.689 188.039 987.164 188.039 981.906 185.003L931.665 155.997C926.407 152.961 926.407 148.039 931.665 145.003Z" fill="#52BD95"/>
</g>
<path d="M624.865 362.322L533.135 415.282C414.775 483.617 569.34 559.188 458.87 622.968L399.69 657.135" stroke="#EDDDB2" stroke-opacity="0.5" stroke-width="15"/>
<path d="M570.585 393.662L258.153 574.044" stroke="#94B2F8" stroke-opacity="0.5" stroke-width="15"/>
<path d="M624.865 362.322L533.136 415.282C414.776 483.617 283.884 394.379 173.414 458.159L114.234 492.327" stroke="#52BD95" stroke-opacity="0.5" stroke-width="15"/>
<path d="M624.865 362.322L533.135 415.282C414.775 483.617 569.34 559.188 458.87 622.968L399.69 657.135" stroke="white" stroke-width="2" stroke-linecap="round" stroke-dasharray="0.1 24"/>
<path d="M570.585 393.662L258.153 574.044" stroke="white" stroke-width="2" stroke-linecap="round" stroke-dasharray="0.1 24"/>
<path d="M624.865 362.322L533.136 415.282C414.776 483.617 283.884 394.379 173.414 458.159L114.234 492.327" stroke="white" stroke-width="2" stroke-linecap="round" stroke-dasharray="0.1 24"/>
<path d="M108.761 455.107L58.5207 484.114C53.2626 487.149 53.2626 492.071 58.5207 495.107L108.761 524.114C114.019 527.149 122.545 527.149 127.803 524.114L178.043 495.107C183.302 492.071 183.302 487.149 178.043 484.114L127.803 455.107C122.545 452.071 114.019 452.071 108.761 455.107Z" fill="#52BD95"/>
<path d="M251.656 537.607L201.415 566.614C196.157 569.649 196.157 574.571 201.415 577.607L251.656 606.614C256.914 609.649 265.439 609.649 270.697 606.614L320.938 577.607C326.196 574.571 326.196 569.649 320.938 566.614L270.697 537.607C265.439 534.571 256.914 534.571 251.656 537.607Z" fill="#94B2F8"/>
<path d="M394.55 620.107L344.309 649.114C339.051 652.149 339.051 657.071 344.309 660.107L394.55 689.114C399.808 692.149 408.333 692.149 413.591 689.114L463.832 660.107C469.09 657.071 469.09 652.149 463.832 649.114L413.591 620.107C408.333 617.071 399.808 617.071 394.55 620.107Z" fill="#EDDDB2"/>
<circle r="70" transform="matrix(0.866025 -0.5 0.866025 0.5 626.243 361)" fill="#52BD95"/>
<path fill-rule="evenodd" clip-rule="evenodd" d="M592.63 337.958C605.961 330.262 620.878 330.445 620.878 330.445L604.85 339.699L596.836 344.326C592.652 346.741 590.653 347.896 590.696 349.025C590.735 350.058 592.487 351.07 595.844 353.007L602.866 357.062L616.911 365.17L630.955 373.279L637.978 377.333C641.334 379.271 643.087 380.283 644.876 380.306C646.831 380.331 648.831 379.176 653.014 376.761L661.028 372.134L677.057 362.88C674.657 370.112 672.562 373.926 664.043 379.189L643.413 391.1L572 349.869L592.63 337.958ZM654.204 337.592L644.5 343L655 349L664.678 343.639L654.204 337.592ZM622 336.5L631.669 331.178L646.904 334.477L637.5 340.5L629.5 338.5L622 336.5ZM670.074 347.854L660.5 353.5L666.265 362.147L676 356.5L670.074 347.854Z" fill="white"/>
<defs>
<filter id="filter0_d" x="877.722" y="88.72" width="227.41" height="173.56" filterUnits="userSpaceOnUse" color-interpolation-filters="sRGB">
<feFlood flood-opacity="0" result="BackgroundImageFix"/>
<feColorMatrix in="SourceAlpha" type="matrix" values="0 0 0 0 0 0 0 0 0 0 0 0 0 0 0 0 0 0 127 0"/>
<feOffset dy="25"/>
<feGaussianBlur stdDeviation="25"/>
<feColorMatrix type="matrix" values="0 0 0 0 0.501961 0 0 0 0 0.443137 0 0 0 0 0.882353 0 0 0 0.05 0"/>
<feBlend mode="normal" in2="BackgroundImageFix" result="effect1_dropShadow"/>
<feBlend mode="normal" in="SourceGraphic" in2="effect1_dropShadow" result="shape"/>
</filter>
</defs>
</svg>
