<svg width="1440" height="1717" viewBox="0 0 1440 1717" fill="none" xmlns="http://www.w3.org/2000/svg">
<path d="M195 381C97.4656 389.226 -51 429 -51 429V436L-34 1717H1491V1C1491 1 1381.93 131.531 1288 180C1237.83 205.888 1206.93 215.972 1152 229C1079.93 246.094 1035.39 229.28 963 245C892.147 260.387 859.595 295.553 788 307C725.529 316.988 688.015 294.485 626 307C552.528 321.827 524.833 370.299 452 388C354.438 411.711 295.047 372.562 195 381Z" fill="url(#paint0_linear)"/>
<path d="M1491 1C1491 1 1381.93 131.531 1288 180C1237.83 205.888 1206.93 215.972 1152 229C1079.93 246.094 1035.39 229.28 963 245C892.147 260.387 859.595 295.553 788 307C725.529 316.988 688.015 294.485 626 307C552.528 321.827 524.833 370.299 452 388C354.438 411.711 295.047 372.562 195 381C97.4656 389.226 -51 429 -51 429V436" stroke="#22BB95" stroke-width="2"/>
<defs>
<linearGradient id="paint0_linear" x1="720" y1="1" x2="720" y2="1410.5" gradientUnits="userSpaceOnUse">
<stop offset="0.193328" stop-color="#52BD95" stop-opacity="0.07"/>
<stop offset="1" stop-color="white" stop-opacity="0"/>
</linearGradient>
</defs>
</svg>
