<svg width="486" height="181" viewBox="0 0 486 181" fill="none" xmlns="http://www.w3.org/2000/svg">
<path d="M226.82 4.99182L193.471 24.2463C192.069 25.0557 192.068 26.3679 193.471 27.1775C194.873 27.9871 197.146 27.9869 198.548 27.1775L231.897 7.923C233.638 6.91819 236.47 6.91839 238.21 7.923L356.305 76.1055C357.707 76.9151 359.98 76.9149 361.382 76.1055C362.784 75.2961 362.784 73.9839 361.382 73.1743L243.287 4.99202C238.746 2.37096 231.36 2.37096 226.82 4.99182Z" fill="#52BD95"/>
<path d="M367.123 79.4202C365.722 80.2296 365.721 81.5417 367.123 82.3513L385.688 93.0697C387.429 94.0745 387.428 95.7091 385.688 96.7139L254.361 172.535C252.621 173.54 249.789 173.54 248.049 172.535L100.571 87.3889C98.8309 86.3841 98.8309 84.7492 100.571 83.7444L133.921 64.4899C135.323 63.6805 135.323 62.3683 133.921 61.5588C132.519 60.7492 130.246 60.7494 128.844 61.5588L95.4943 80.8133C90.9545 83.4343 90.9545 87.699 95.4943 90.32L242.973 175.467C247.512 178.087 254.899 178.087 259.438 175.466L390.765 99.6449C395.305 97.0238 395.305 92.7592 390.765 90.1383L372.201 79.42C370.799 78.6108 368.525 78.6108 367.123 79.4202Z" fill="#52BD95"/>
<path d="M144.074 67.4213C142.672 66.6117 140.399 66.6119 138.998 67.4213L110.107 84.1011C108.705 84.9105 108.705 86.2226 110.107 87.0322L157.852 114.598C159.254 115.407 161.527 115.407 162.929 114.598C164.331 113.788 164.331 112.476 162.929 111.666L117.723 85.5667L144.074 70.3525C145.477 69.5429 145.477 68.2309 144.074 67.4213Z" fill="#52BD95"/>
<path d="M248.667 167.03C250.07 167.839 252.342 167.839 253.744 167.03L376.152 96.3577C377.554 95.5483 377.554 94.2361 376.152 93.4265L237.592 13.4288C236.19 12.6193 233.917 12.6194 232.515 13.4288L203.625 30.1086C202.223 30.918 202.223 32.2302 203.625 33.0398C205.027 33.8494 207.3 33.8492 208.702 33.0398L235.054 17.8256L368.537 94.8921L251.206 162.633L173.747 117.912C172.345 117.103 170.072 117.103 168.67 117.912C167.268 118.722 167.268 120.034 168.67 120.843L248.667 167.03Z" fill="#52BD95"/>
<path d="M170.703 70.7433L174.912 68.3133C176.314 67.5039 176.314 66.1917 174.912 65.3821C173.51 64.5725 171.237 64.5727 169.835 65.3821L165.626 67.8121C165.47 67.9024 165.215 67.9026 165.058 67.8121L143.397 55.3059C143.241 55.2156 143.241 55.0687 143.397 54.9782L154.169 48.759C155.201 48.1632 155.505 47.2657 154.939 46.4889C153.434 44.4254 154.232 42.0695 156.973 40.4873C159.714 38.905 163.794 38.4442 167.369 39.3132C168.714 39.6404 170.268 39.4647 171.301 38.8687L182.072 32.6495C182.229 32.5592 182.484 32.559 182.64 32.6493L204.301 45.1553C204.458 45.2457 204.458 45.3927 204.301 45.4832L180.653 59.1362C179.251 59.9456 179.251 61.2578 180.653 62.0674C182.056 62.877 184.328 62.8768 185.73 62.0674L209.378 48.4143C212.334 46.7078 212.334 43.9308 209.378 42.2241L187.717 29.7179C184.761 28.0114 179.951 28.0114 176.995 29.7181L167.79 35.0327C162.14 34.197 156.115 35.1205 151.896 37.5561C147.677 39.9917 146.078 43.4704 147.526 46.7324L138.32 52.047C135.365 53.7536 135.364 56.5304 138.32 58.2371L159.981 70.7433C162.937 72.45 167.747 72.4498 170.703 70.7433Z" fill="#52BD95"/>
<path d="M166.668 54.3764C165.266 53.5668 162.993 53.567 161.592 54.3764L159.787 55.418C158.386 56.2274 158.385 57.5395 159.787 58.3491C161.19 59.1587 163.463 59.1585 164.864 58.3491L166.668 57.3076C168.07 56.4982 168.071 55.186 166.668 54.3764Z" fill="#52BD95"/>
<path d="M188.249 44.8474C189.651 44.038 189.652 42.7258 188.249 41.9162C186.847 41.1066 184.574 41.1068 183.173 41.9162L181.369 42.9578C179.967 43.7671 179.966 45.0793 181.369 45.8889C182.771 46.6985 185.044 46.6983 186.445 45.8889L188.249 44.8474Z" fill="#52BD95"/>
<path d="M170.998 83.133C169.595 82.3235 167.323 82.3236 165.921 83.133C164.519 83.9424 164.519 85.2546 165.921 86.0642L184.512 96.798C186.41 97.8937 189.498 97.8939 191.397 96.798L196.68 93.7476C198.082 92.9382 198.082 91.626 196.68 90.8164C195.278 90.0069 193.005 90.007 191.603 90.8164L187.954 92.923L170.998 83.133Z" fill="#52BD95"/>
<path d="M185.858 80.3618L195.293 85.8091C199.466 88.2185 206.256 88.2185 210.43 85.8091C214.603 83.3997 214.603 79.4793 210.43 77.0699L200.995 71.6226C196.821 69.2132 190.031 69.2132 185.858 71.6226C181.685 74.032 181.685 77.9524 185.858 80.3618ZM190.935 77.4306C189.561 76.6374 189.561 75.3469 190.935 74.5538C192.309 73.7606 194.544 73.7608 195.918 74.5538L205.353 80.0011C206.727 80.7942 206.727 82.0847 205.353 82.8779C203.979 83.6711 201.743 83.6709 200.37 82.8779L190.935 77.4306Z" fill="#52BD95"/>
<path d="M235.587 71.285C236.989 70.4756 236.989 69.1634 235.587 68.3538L219.398 59.0074C216.176 57.1467 210.931 57.1465 207.708 59.0074L204.261 60.9973C201.038 62.858 201.038 65.8859 204.261 67.7468L220.45 77.0932C221.852 77.9028 224.125 77.9026 225.527 77.0932C226.928 76.2838 226.929 74.9716 225.527 74.162L218.726 70.2358L223.709 67.3587L230.51 71.285C231.912 72.0943 234.185 72.0943 235.587 71.285ZM213.65 67.3044L209.339 64.8155C208.915 64.571 208.915 64.1729 209.339 63.9283L212.785 61.9384C213.209 61.694 213.898 61.694 214.322 61.9384L218.633 64.4274L213.65 67.3044Z" fill="#52BD95"/>
<path d="M220.719 51.5678C219.825 52.3866 220.033 53.4536 221.218 54.1377L240.713 65.3932C242.116 66.2028 244.388 66.2026 245.79 65.3932C247.192 64.5838 247.192 63.2716 245.79 62.4621L237.47 57.6582L251.398 60.4907C252.722 60.76 254.169 60.5562 255.129 60.002C255.315 59.8945 255.483 59.7734 255.628 59.6403C256.522 58.8213 256.314 57.7544 255.129 57.0702L235.634 45.8147C234.232 45.0051 231.959 45.0053 230.557 45.8147C229.155 46.6241 229.155 47.9363 230.557 48.7459L238.877 53.5497L224.949 50.7172C223.369 50.396 221.614 50.7483 220.719 51.5678Z" fill="#52BD95"/>
<path d="M202.394 103.463L199.154 105.333C197.752 106.143 197.752 107.455 199.154 108.264C200.556 109.074 202.829 109.074 204.231 108.264L207.471 106.394C208.873 105.584 208.873 104.272 207.471 103.463C206.069 102.653 203.796 102.653 202.394 103.463Z" fill="#52BD95"/>
<path d="M214.211 99.5713C215.613 100.381 217.886 100.381 219.288 99.5713L283.653 62.4101C285.055 61.6007 285.055 60.2885 283.653 59.4789C282.251 58.6693 279.978 58.6695 278.576 59.4789L214.211 96.6401C212.809 97.4495 212.809 98.7619 214.211 99.5713Z" fill="#52BD95"/>
<path d="M202.529 121.061C203.931 121.871 206.204 121.871 207.606 121.061L296.423 69.7825C297.825 68.9731 297.825 67.6609 296.423 66.8513C295.021 66.0417 292.748 66.0419 291.346 66.8513L202.529 118.13C201.127 118.94 201.126 120.252 202.529 121.061Z" fill="#52BD95"/>
<path d="M309.193 74.2241C307.79 73.4145 305.518 73.4147 304.116 74.2241L215.298 125.503C213.896 126.312 213.896 127.625 215.298 128.434C216.7 129.244 218.973 129.243 220.375 128.434L309.193 77.1553C310.595 76.3459 310.595 75.0337 309.193 74.2241Z" fill="#52BD95"/>
<path d="M301.591 95.1977C299.64 94.9918 297.771 95.7375 297.414 96.8636L294.958 104.613C287.666 103.303 279.384 104.31 273.62 107.637C265.347 112.414 265.347 120.186 273.62 124.962C281.893 129.739 295.355 129.739 303.628 124.962C311.901 120.186 311.901 112.414 303.628 107.637C302.989 107.269 302.317 106.932 301.621 106.62L304.476 97.6095C304.833 96.4837 303.541 95.4037 301.591 95.1977ZM298.551 122.031C293.077 125.192 284.171 125.192 278.697 122.031C273.223 118.871 273.223 113.729 278.697 110.569C282.733 108.239 288.635 107.629 293.652 108.735L291.366 115.949L286.224 115.753C284.247 115.678 282.536 116.543 282.406 117.685C282.276 118.827 283.775 119.814 285.753 119.889L294.085 120.206C295.153 120.247 296.151 120.013 296.861 119.603C297.361 119.314 297.717 118.939 297.853 118.511L300.046 111.59C303.965 114.754 303.469 119.192 298.551 122.031Z" fill="#52BD95"/>
</svg>
