<svg width="388" height="145" viewBox="0 0 388 145" fill="none" xmlns="http://www.w3.org/2000/svg">
<path d="M180.903 4.41569L154.213 19.8249C153.091 20.4727 153.091 21.5228 154.213 22.1707C155.335 22.8186 157.154 22.8185 158.276 22.1707L184.966 6.76148C186.359 5.95734 188.625 5.9575 190.017 6.76148L284.528 61.3273C285.651 61.9753 287.469 61.9751 288.591 61.3273C289.713 60.6796 289.714 59.6295 288.591 58.9816L194.081 4.41584C190.447 2.31823 184.536 2.31823 180.903 4.41569Z" fill="#52BD95"/>
<path d="M293.186 63.9799C292.064 64.6277 292.064 65.6778 293.186 66.3257L308.043 74.9035C309.436 75.7077 309.435 77.0158 308.043 77.82L202.943 138.499C201.55 139.303 199.284 139.303 197.892 138.499L79.8663 70.3572C78.4735 69.5531 78.4735 68.2448 79.8663 67.4406L106.556 52.0314C107.678 51.3836 107.678 50.3335 106.556 49.6856C105.434 49.0377 103.615 49.0379 102.493 49.6856L75.8032 65.0948C72.1701 67.1924 72.1701 70.6054 75.8032 72.703L193.829 140.845C197.462 142.943 203.373 142.943 207.006 140.845L312.106 80.1656C315.739 78.068 315.739 74.655 312.106 72.5576L297.249 63.9798C296.127 63.3322 294.308 63.3322 293.186 63.9799Z" fill="#52BD95"/>
<path d="M114.682 54.3774C113.56 53.7295 111.741 53.7296 110.619 54.3774L87.4983 67.726C86.3764 68.3738 86.3761 69.4239 87.4983 70.0718L125.708 92.1322C126.83 92.7801 128.649 92.7799 129.771 92.1322C130.893 91.4844 130.893 90.4343 129.771 89.7864L93.5929 68.8989L114.682 56.7232C115.804 56.0752 115.804 55.0253 114.682 54.3774Z" fill="#52BD95"/>
<path d="M198.387 134.093C199.509 134.741 201.328 134.741 202.45 134.093L300.412 77.5349C301.534 76.8871 301.534 75.837 300.412 75.1891L189.523 11.1676C188.401 10.5197 186.582 10.5199 185.46 11.1676L162.34 24.5163C161.218 25.1641 161.218 26.2142 162.34 26.8621C163.462 27.51 165.281 27.5099 166.403 26.8621L187.492 14.6863L294.317 76.362L200.418 130.575L138.428 94.7848C137.306 94.1369 135.487 94.137 134.365 94.7848C133.244 95.4325 133.243 96.4827 134.365 97.1306L198.387 134.093Z" fill="#52BD95"/>
<path d="M135.992 57.036L139.361 55.0914C140.482 54.4436 140.483 53.3935 139.361 52.7456C138.238 52.0976 136.419 52.0978 135.298 52.7456L131.929 54.6902C131.804 54.7625 131.6 54.7626 131.475 54.6902L114.139 44.6816C114.014 44.6094 114.014 44.4918 114.14 44.4194L122.76 39.4422C123.586 38.9654 123.83 38.2471 123.377 37.6255C122.172 35.974 122.811 34.0887 125.004 32.8224C127.197 31.5561 130.463 31.1874 133.324 31.8828C134.4 32.1446 135.644 32.004 136.47 31.527L145.091 26.5499C145.216 26.4776 145.42 26.4775 145.545 26.5497L162.88 36.5582C163.006 36.6306 163.006 36.7482 162.88 36.8206L143.955 47.747C142.833 48.3947 142.833 49.4449 143.955 50.0928C145.078 50.7407 146.896 50.7405 148.018 50.0928L166.943 39.1664C169.309 37.8006 169.309 35.5782 166.943 34.2124L149.608 24.2038C147.243 22.8381 143.394 22.8381 141.028 24.2039L133.661 28.4572C129.139 27.7883 124.317 28.5274 120.941 30.4766C117.565 32.4258 116.285 35.2098 117.443 37.8203L110.077 42.0736C107.711 43.4393 107.711 45.6616 110.076 47.0274L127.412 57.036C129.777 58.4019 133.627 58.4017 135.992 57.036Z" fill="#52BD95"/>
<path d="M132.763 43.9377C131.641 43.2897 129.822 43.2899 128.7 43.9377L127.257 44.7712C126.135 45.4189 126.134 46.4691 127.257 47.117C128.379 47.7649 130.198 47.7647 131.32 47.117L132.763 46.2835C133.885 45.6357 133.886 44.5856 132.763 43.9377Z" fill="#52BD95"/>
<path d="M150.034 36.3118C151.156 35.664 151.156 34.6139 150.034 33.966C148.912 33.3181 147.093 33.3182 145.971 33.966L144.527 34.7995C143.405 35.4473 143.405 36.4974 144.527 37.1453C145.649 37.7932 147.468 37.7931 148.59 37.1453L150.034 36.3118Z" fill="#52BD95"/>
<path d="M136.228 66.9511C135.106 66.3032 133.287 66.3034 132.165 66.9511C131.043 67.5989 131.043 68.649 132.165 69.2969L147.043 77.8871C148.562 78.7639 151.034 78.7641 152.553 77.8871L156.781 75.4459C157.903 74.7981 157.903 73.748 156.781 73.1001C155.659 72.4522 153.84 72.4523 152.718 73.1001L149.798 74.7859L136.228 66.9511Z" fill="#52BD95"/>
<path d="M148.121 64.7335L155.672 69.093C159.011 71.0212 164.446 71.0212 167.785 69.093C171.125 67.1647 171.125 64.0273 167.785 62.099L160.235 57.7396C156.895 55.8114 151.461 55.8114 148.121 57.7396C144.781 59.6679 144.781 62.8053 148.121 64.7335ZM152.184 62.3877C151.084 61.753 151.084 60.7202 152.184 60.0854C153.283 59.4506 155.072 59.4508 156.172 60.0854L163.722 64.4448C164.822 65.0796 164.822 66.1124 163.722 66.7472C162.623 67.3819 160.834 67.3818 159.735 66.7472L152.184 62.3877Z" fill="#52BD95"/>
<path d="M187.918 57.4696C189.04 56.8218 189.041 55.7717 187.918 55.1238L174.963 47.644C172.384 46.1549 168.187 46.1547 165.607 47.644L162.849 49.2365C160.27 50.7256 160.269 53.1488 162.849 54.638L175.804 62.1178C176.926 62.7658 178.745 62.7656 179.867 62.1179C180.989 61.4701 180.989 60.42 179.867 59.7721L174.425 56.6299L178.413 54.3275L183.855 57.4696C184.977 58.1173 186.796 58.1173 187.918 57.4696ZM170.362 54.284L166.912 52.2921C166.573 52.0965 166.573 51.7779 166.912 51.5821L169.67 49.9896C170.009 49.794 170.561 49.794 170.9 49.9896L174.35 51.9815L170.362 54.284Z" fill="#52BD95"/>
<path d="M176.02 41.69C175.305 42.3452 175.471 43.1991 176.419 43.7466L192.021 52.7543C193.143 53.4022 194.962 53.4021 196.084 52.7543C197.206 52.1066 197.206 51.0564 196.084 50.4085L189.425 46.5641L200.572 48.8309C201.631 49.0464 202.789 48.8833 203.558 48.4398C203.707 48.3538 203.841 48.2568 203.957 48.1503C204.672 47.4949 204.506 46.641 203.558 46.0935L187.956 37.0858C186.834 36.4379 185.015 36.4381 183.893 37.0858C182.771 37.7336 182.771 38.7837 183.893 39.4316L190.552 43.2761L179.405 41.0092C178.14 40.7521 176.736 41.0341 176.02 41.69Z" fill="#52BD95"/>
<path d="M161.354 83.2209L158.761 84.718C157.639 85.3657 157.639 86.4159 158.761 87.0638C159.883 87.7117 161.702 87.7115 162.824 87.0638L165.417 85.5667C166.539 84.9189 166.539 83.8688 165.417 83.2209C164.295 82.573 162.476 82.5731 161.354 83.2209Z" fill="#52BD95"/>
<path d="M170.811 80.1067C171.934 80.7546 173.752 80.7545 174.874 80.1067L226.385 50.3669C227.507 49.7192 227.507 48.669 226.385 48.0211C225.263 47.3732 223.444 47.3734 222.322 48.0211L170.811 77.7609C169.689 78.4087 169.689 79.459 170.811 80.1067Z" fill="#52BD95"/>
<path d="M161.462 97.305C162.584 97.9529 164.403 97.9527 165.525 97.305L236.605 56.267C237.727 55.6192 237.727 54.5691 236.605 53.9212C235.483 53.2733 233.664 53.2735 232.542 53.9212L161.462 94.9592C160.34 95.6069 160.34 96.6571 161.462 97.305Z" fill="#52BD95"/>
<path d="M246.824 59.8216C245.702 59.1737 243.883 59.1738 242.761 59.8216L171.681 100.86C170.559 101.507 170.559 102.557 171.681 103.205C172.804 103.853 174.623 103.853 175.744 103.205L246.824 62.1674C247.946 61.5196 247.947 60.4695 246.824 59.8216Z" fill="#52BD95"/>
<path d="M240.741 76.6064C239.18 76.4415 237.684 77.0383 237.398 77.9396L235.433 84.1411C229.597 83.093 222.969 83.8985 218.356 86.5618C211.735 90.3843 211.735 96.6043 218.356 100.427C224.977 104.249 235.75 104.25 242.371 100.427C248.992 96.6041 248.992 90.3842 242.371 86.5616C241.86 86.2665 241.322 85.9971 240.765 85.7475L243.05 78.5365C243.335 77.6355 242.301 76.7712 240.741 76.6064ZM238.308 98.0812C233.927 100.61 226.8 100.61 222.419 98.0812C218.038 95.5521 218.038 91.437 222.419 88.9077C225.649 87.0428 230.372 86.5547 234.387 87.4402L232.558 93.213L228.443 93.0567C226.86 92.9964 225.492 93.6888 225.388 94.6027C225.283 95.5168 226.483 96.3067 228.066 96.3669L234.734 96.6204C235.589 96.6529 236.388 96.4656 236.956 96.1376C237.356 95.9068 237.641 95.6062 237.749 95.2639L239.504 89.7247C242.641 92.2569 242.244 95.8089 238.308 98.0812Z" fill="#52BD95"/>
</svg>
