<svg width="375" height="140" viewBox="0 0 375 140" fill="none" xmlns="http://www.w3.org/2000/svg">
<path d="M230.164 17.3263C229.261 17.4534 228.538 17.8428 228.255 18.3541L222.931 28.0036C222.485 28.8132 223.259 29.6783 224.661 29.9362C226.063 30.194 227.562 29.7462 228.008 28.9375L232.004 21.6953L271.927 44.7445L270.403 49.4376C270.276 49.8292 270.417 50.2338 270.797 50.5665C270.86 50.6217 275.701 54.9142 277.553 59.5796L247.764 42.3809C246.36 41.52 243.637 41.9864 243.274 43.1506C241.208 48.7974 235.24 53.1404 225.535 56.0595C218.098 58.2965 211.15 58.8178 211.085 58.8228C210.273 58.8799 209.553 59.1495 209.129 59.553C209.058 59.6209 201.932 66.4079 195.343 71.9844C193.326 73.6901 190.832 74.624 187.928 74.7599C186.27 74.8683 184.872 73.8518 185.418 72.9433L197.568 50.3847C198.855 47.9942 201.514 45.8813 205.052 44.4356L212.887 41.2341C217.063 39.5278 220.576 37.401 223.327 34.9116C224.119 34.1955 223.755 33.2444 222.514 32.7876C221.274 32.3303 219.626 32.5409 218.835 33.2565C216.457 35.4088 213.42 37.2482 209.809 38.7229L201.974 41.9244C197.484 43.7593 194.112 46.439 192.479 49.4714L182.003 68.9243L156.009 83.9318C154.969 84.5324 154.968 85.5064 156.009 86.1072C157.05 86.708 158.737 86.7079 159.777 86.1072L180.168 74.3342C180.645 75.6492 182.312 76.8541 184.43 77.412L152.032 96.1168C150.991 96.7175 150.991 97.6916 152.032 98.2923C156.308 100.761 156.645 104.898 152.753 107.145C151.713 107.746 151.712 108.72 152.753 109.321L175.948 122.712C176.989 123.313 178.676 123.313 179.716 122.712C183.608 120.465 190.774 120.66 195.05 123.129C196.091 123.73 197.777 123.73 198.818 123.129L251.311 92.8221C252.352 92.2213 252.351 91.2474 251.311 90.6467C250.271 90.046 248.584 90.0459 247.543 90.6467L196.777 119.956C194.113 118.855 190.855 118.19 187.518 118.092C183.986 117.987 180.696 118.5 178.011 119.553L158.227 108.13C160.05 106.58 160.938 104.68 160.757 102.641C160.586 100.714 159.434 98.8339 157.527 97.2954L192.074 77.3497C194.579 76.8146 197.339 75.7547 199.745 73.7185C200.68 72.9277 201.624 72.1131 202.559 71.2967L221.323 60.4633C223.348 60.0461 225.56 59.5152 227.833 58.8378C228.836 58.5391 229.804 58.2243 230.741 57.8953C236.092 59.0477 242.501 58.5977 247.048 56.7995L266.917 68.2707C263.03 71.5381 262.944 76.3478 266.708 79.5822L255.079 86.296C254.039 86.8968 254.039 87.8707 255.079 88.4714C256.12 89.0721 257.806 89.0722 258.847 88.4714L272.174 80.777C273.215 80.1762 273.215 79.2023 272.174 78.6016C268.145 76.2755 268.254 71.6466 272.393 69.2568C273.434 68.656 273.434 67.6821 272.393 67.0813L249.11 53.6389C248.07 53.0383 246.383 53.0381 245.342 53.6389C243.194 54.8789 239.847 55.5188 236.549 55.455C237.25 55.1035 237.93 54.7433 238.577 54.3699C242.51 52.099 245.418 49.4251 247.221 46.4176L292.784 72.7231C293.593 73.1905 293.594 73.9507 292.786 74.4176L188.699 134.512C187.891 134.979 186.574 134.978 185.765 134.511L132.32 103.654C131.51 103.187 131.509 102.427 132.318 101.96L152.241 90.4575C153.281 89.8568 153.281 88.8827 152.241 88.2821C151.201 87.6814 149.514 87.6813 148.473 88.2821L128.55 99.7845C125.664 101.451 125.665 104.163 128.552 105.83L181.996 136.685C184.883 138.352 189.58 138.353 192.466 136.686L296.551 76.5926C299.438 74.9262 299.437 72.2144 296.55 70.5474L283.586 63.0626C283.683 57.3335 277.76 51.2406 275.833 49.4127L277.423 44.5137C277.585 44.0146 277.31 43.5016 276.688 43.1425L232.678 17.7333C232.021 17.3538 231.068 17.1995 230.164 17.3263Z" fill="#52BD95"/>
<path d="M196.762 97.304C205.471 102.333 219.639 102.334 228.345 97.3082C237.051 92.282 237.047 84.1019 228.338 79.0735C219.628 74.0449 205.46 74.0431 196.754 79.0693C188.049 84.0955 188.052 92.2755 196.762 97.304ZM224.57 81.2488C231.202 85.0777 231.206 91.3062 224.577 95.1329C217.949 98.9597 207.161 98.9577 200.529 95.1287C193.897 91.2998 193.894 85.0714 200.522 81.2446C207.15 77.418 217.938 77.4197 224.57 81.2488Z" fill="#52BD95"/>
<path d="M148.623 72.8048C151.52 72.229 153.577 70.7728 153.948 68.9996L155.089 63.5768C159.611 62.5673 163.776 60.9884 167.181 58.9824C173.611 55.2004 177.071 50.1753 176.922 44.833C176.773 39.4815 173.025 34.513 166.37 30.843C159.867 27.2562 151.327 25.3144 142.325 25.375C133.333 25.4354 124.888 27.4887 118.532 31.1586C118.512 31.1698 118.492 31.1817 118.473 31.193C105.194 38.8965 105.346 51.489 118.813 59.2641L140.361 71.7049C142.542 72.9641 145.708 73.3856 148.623 72.8048ZM122.581 57.0887C111.187 50.5102 111.038 39.8668 122.25 33.3631C127.611 30.2529 134.773 28.5024 142.387 28.4512C149.989 28.4 157.199 30.0394 162.69 33.0677C168.306 36.1647 171.468 40.3607 171.594 44.8826C171.72 49.3955 168.802 53.6375 163.379 56.8276C160.111 58.7529 156.215 60.1516 151.81 60.9877C150.828 61.1738 150.122 61.6711 149.997 62.2634L148.659 68.6289C148.483 69.8716 145.593 70.4448 144.129 69.5295L122.581 57.0887Z" fill="#52BD95"/>
<path d="M145.837 53.9623C147.281 53.841 148.301 53.0621 148.086 52.2167L144.66 38.7584C144.446 37.9179 143.093 37.3364 141.637 37.4601C140.181 37.5837 139.174 38.365 139.388 39.2055L142.814 52.664C143.028 53.5043 144.381 54.0857 145.837 53.9623Z" fill="#52BD95"/>
<path d="M136.58 48.2268C137.62 47.6261 137.62 46.6521 136.58 46.0513L134.028 44.5783C132.988 43.9776 131.301 43.9776 130.26 44.5783C129.22 45.179 129.22 46.1531 130.26 46.7537L132.812 48.2269C133.853 48.8274 135.539 48.8274 136.58 48.2268Z" fill="#52BD95"/>
<path d="M150.928 45.3905L153.48 46.8636C154.52 47.4643 156.207 47.4644 157.248 46.8636C158.289 46.2628 158.288 45.2888 157.248 44.6882L154.696 43.215C153.656 42.6143 151.969 42.6142 150.928 43.215C149.888 43.8158 149.888 44.7898 150.928 45.3905Z" fill="#52BD95"/>
</svg>
