<svg width="507" height="188" viewBox="0 0 507 188" fill="none" xmlns="http://www.w3.org/2000/svg">
<path d="M311.139 22.8572C309.919 23.0286 308.944 23.554 308.563 24.2441L301.378 37.2652C300.775 38.3575 301.82 39.5249 303.712 39.873C305.604 40.2208 307.627 39.6165 308.229 38.5253L313.621 28.7527L367.493 59.8554L365.437 66.1882C365.266 66.7167 365.456 67.2626 365.968 67.7116C366.053 67.7861 372.585 73.5784 375.085 79.8739L334.888 56.6659C332.993 55.5042 329.318 56.1335 328.828 57.7046C326.041 65.3243 317.988 71.1849 304.892 75.1239C294.856 78.1425 285.481 78.846 285.392 78.8527C284.297 78.9298 283.325 79.2935 282.753 79.838C282.657 79.9296 273.042 89.088 264.15 96.613C261.429 98.9148 258.063 100.175 254.144 100.358C251.908 100.505 250.02 99.1329 250.757 97.907L267.152 67.4663C268.89 64.2406 272.478 61.3894 277.252 59.4386L287.825 55.1185C293.46 52.8159 298.199 49.946 301.912 46.5868C302.98 45.6204 302.49 44.337 300.816 43.7206C299.142 43.1036 296.918 43.3878 295.851 44.3534C292.641 47.2577 288.543 49.7398 283.671 51.7298L273.098 56.0499C267.039 58.5259 262.49 62.1419 260.286 66.2339L246.149 92.4837L211.073 112.735C209.669 113.545 209.669 114.86 211.073 115.67C212.477 116.481 214.753 116.481 216.157 115.67L243.674 99.7839C244.317 101.558 246.567 103.184 249.424 103.937L205.706 129.177C204.302 129.988 204.302 131.302 205.706 132.113C211.477 135.445 211.931 141.027 206.679 144.059C205.275 144.87 205.275 146.184 206.679 146.995L237.979 165.066C239.383 165.876 241.659 165.876 243.064 165.066C248.316 162.034 257.985 162.296 263.755 165.628C265.159 166.438 267.435 166.438 268.84 165.628L339.674 124.732C341.078 123.921 341.078 122.607 339.674 121.796C338.27 120.985 335.994 120.985 334.589 121.796L266.086 161.347C262.49 159.861 258.095 158.964 253.591 158.83C248.826 158.689 244.385 159.381 240.762 160.802L214.066 145.389C216.526 143.297 217.724 140.733 217.48 137.982C217.249 135.382 215.695 132.844 213.122 130.768L259.74 103.853C263.12 103.131 266.844 101.701 270.091 98.953C271.352 97.8859 272.627 96.7866 273.887 95.6851L299.207 81.0663C301.94 80.5034 304.926 79.787 307.993 78.873C309.345 78.4698 310.652 78.045 311.916 77.6011C319.138 79.1562 327.785 78.5489 333.921 76.1224L360.732 91.6017C355.488 96.0109 355.371 102.501 360.45 106.866L344.759 115.925C343.354 116.736 343.355 118.05 344.759 118.861C346.163 119.671 348.439 119.671 349.843 118.861L367.827 108.478C369.231 107.667 369.231 106.353 367.827 105.542C362.39 102.403 362.537 96.1572 368.122 92.9323C369.526 92.1216 369.526 90.8075 368.122 89.9968L336.704 71.8575C335.3 71.047 333.024 71.0468 331.619 71.8575C328.721 73.5308 324.204 74.3943 319.754 74.3081C320.7 73.8339 321.618 73.3478 322.49 72.8439C327.798 69.7796 331.722 66.1714 334.155 62.113L395.638 97.6099C396.73 98.2405 396.731 99.2663 395.64 99.8964L255.186 180.988C254.094 181.618 252.318 181.617 251.225 180.986L179.107 139.349C178.014 138.718 178.013 137.692 179.104 137.062L205.988 121.541C207.392 120.73 207.392 119.416 205.988 118.605C204.584 117.795 202.308 117.794 200.904 118.605L174.02 134.127C170.125 136.375 170.126 140.035 174.022 142.284L246.14 183.921C250.035 186.17 256.373 186.171 260.268 183.922L400.721 102.831C404.616 100.583 404.616 96.9234 400.719 94.6739L383.226 84.5739C383.357 76.8431 375.365 68.6212 372.763 66.1546L374.909 59.5439C375.128 58.8704 374.757 58.1782 373.918 57.6937L314.53 23.4064C313.643 22.8943 312.358 22.6861 311.139 22.8572Z" fill="#52BD95"/>
<path d="M266.065 130.779C277.818 137.565 296.936 137.567 308.684 130.785C320.431 124.002 320.427 112.964 308.674 106.179C296.921 99.3933 277.803 99.3908 266.055 106.173C254.308 112.956 254.312 123.994 266.065 130.779ZM303.59 109.114C312.539 114.281 312.544 122.686 303.6 127.85C294.656 133.013 280.098 133.011 271.149 127.844C262.2 122.677 262.195 114.272 271.139 109.109C280.083 103.945 294.64 103.947 303.59 109.114Z" fill="#52BD95"/>
<path d="M201.106 97.7201C205.015 96.9431 207.791 94.9781 208.293 92.5853L209.831 85.2677C215.934 83.9056 221.554 81.7749 226.148 79.0681C234.826 73.9646 239.494 67.1837 239.293 59.9748C239.092 52.7535 234.035 46.049 225.055 41.0966C216.279 36.2566 204.755 33.6363 192.607 33.7181C180.475 33.7996 169.079 36.5703 160.502 41.5224C160.475 41.5377 160.448 41.5537 160.422 41.5689C142.503 51.964 142.709 68.9564 160.881 79.4482L189.958 96.2359C192.901 97.9351 197.173 98.5038 201.106 97.7201ZM165.965 76.5126C150.59 67.6357 150.389 53.2734 165.518 44.4972C172.753 40.3003 182.417 37.9382 192.692 37.8691C202.949 37.8 212.679 40.0123 220.089 44.0986C227.667 48.2777 231.934 53.9398 232.104 60.0418C232.273 66.1314 228.336 71.8556 221.018 76.1603C216.609 78.7583 211.351 80.6458 205.407 81.774C204.082 82.0251 203.129 82.6962 202.961 83.4955L201.155 92.0851C200.918 93.762 197.018 94.5355 195.042 93.3003L165.965 76.5126Z" fill="#52BD95"/>
<path d="M197.347 72.2936C199.296 72.1299 200.672 71.079 200.382 69.9381L195.759 51.7774C195.47 50.6432 193.644 49.8586 191.679 50.0254C189.714 50.1922 188.356 51.2465 188.645 52.3807L193.267 70.5416C193.556 71.6756 195.383 72.4602 197.347 72.2936Z" fill="#52BD95"/>
<path d="M184.855 64.5541C186.259 63.7436 186.259 62.4293 184.855 61.6186L181.412 59.6309C180.009 58.8203 177.732 58.8203 176.328 59.6309C174.924 60.4414 174.924 61.7559 176.328 62.5664L179.771 64.5543C181.175 65.3647 183.451 65.3647 184.855 64.5541Z" fill="#52BD95"/>
<path d="M204.218 60.7268L207.661 62.7147C209.065 63.5253 211.341 63.5254 212.745 62.7147C214.149 61.904 214.149 60.5897 212.745 59.7791L209.302 57.7913C207.898 56.9807 205.622 56.9805 204.218 57.7913C202.813 58.602 202.814 59.9163 204.218 60.7268Z" fill="#52BD95"/>
</svg>
