<svg width="305" height="176" viewBox="0 0 305 176" fill="none" xmlns="http://www.w3.org/2000/svg">
<path d="M124.884 3.41798L5.9201 72.1016C2.65592 73.9861 2.65592 77.0529 5.9201 78.9375L167.285 172.102C170.549 173.986 175.861 173.986 179.125 172.102L273.113 117.838C274.514 117.029 274.514 115.717 273.113 114.908C271.711 114.099 269.44 114.099 268.038 114.908L174.051 169.172C173.585 169.441 172.826 169.441 172.359 169.172L10.9945 76.0078C10.5283 75.7387 10.5283 75.3004 10.9945 75.0312L47.7545 53.8078L54.5204 57.7141L29.7635 72.0074C26.4994 73.892 26.4994 76.9588 29.7635 78.8434L48.5387 89.6832C49.9399 90.4922 52.2119 90.4922 53.6131 89.6832C55.0143 88.8742 55.0143 87.5625 53.6131 86.7535L34.8379 75.9137C34.3717 75.6445 34.3717 75.2062 34.8379 74.9371L59.5947 60.6437L61.1904 61.565C64.4546 63.4496 69.7665 63.4496 73.0306 61.565L87.1259 53.4271C88.5271 52.6182 88.5271 51.3064 87.1259 50.4975C85.7247 49.6885 83.4527 49.6885 82.0515 50.4975L67.9559 58.6355C67.4898 58.9047 66.7306 58.9047 66.2645 58.6355L52.8286 50.8783L88.1235 30.5008L101.559 38.258C102.026 38.5271 102.026 38.9652 101.559 39.2346L93.5534 43.8568C92.1519 44.666 92.1522 45.9775 93.5534 46.7865C94.9546 47.5955 97.2262 47.5957 98.6278 46.7865L106.634 42.1641C109.898 40.2795 109.898 37.2127 106.634 35.3281L105.038 34.4068L129.794 20.1141C130.261 19.8447 131.02 19.8449 131.486 20.1141L233.761 79.1627L203.426 96.6764C200.162 98.5609 200.162 101.628 203.426 103.512L233.761 121.026L174.214 155.406C173.747 155.675 172.988 155.675 172.522 155.406L65.1146 93.3943C63.7134 92.5854 61.4415 92.5854 60.0403 93.3943C58.6391 94.2033 58.6391 95.515 60.0403 96.324L167.448 158.336C170.712 160.22 176.024 160.22 179.288 158.336L241.372 122.492C242.032 122.11 242.423 121.587 242.424 121.026L242.423 79.1627C242.423 78.5092 241.887 77.9092 241.016 77.523C240.918 77.4484 136.559 17.1844 136.559 17.1844C133.295 15.2998 127.983 15.2998 124.719 17.1844L99.9633 31.4772L93.1979 27.5711L129.958 6.34766C130.424 6.07832 131.183 6.07852 131.649 6.34766L293.014 99.5117C293.48 99.7809 293.481 100.219 293.014 100.488L279.54 108.268C278.139 109.077 278.139 110.388 279.54 111.197C280.941 112.006 283.213 112.006 284.615 111.197L298.089 103.418C301.353 101.533 301.353 98.4666 298.089 96.582L136.724 3.41798C133.46 1.53341 128.148 1.5334 124.884 3.41798ZM235.247 116.025L208.501 100.583C208.035 100.313 208.034 99.8754 208.501 99.6061L235.247 84.1641L235.247 116.025Z" fill="#52BD95"/>
<path d="M64.5871 49.4053C64.5831 49.4076 64.579 49.4099 64.575 49.4123C63.1795 50.218 63.1727 51.5242 64.5635 52.3349C65.9579 53.1478 68.2302 53.1539 69.6378 52.3486L69.673 52.3283L69.6852 52.3213C71.0806 51.5156 71.0874 50.2094 69.6967 49.3986C68.3022 48.5857 66.0299 48.5797 64.6223 49.3849L64.5871 49.4053Z" fill="#52BD95"/>
<path d="M90.6471 40.2192L90.6593 40.2121C92.0548 39.4065 92.0615 38.1002 90.6708 37.2895C89.2764 36.4766 87.0044 36.4703 85.5964 37.2758L85.5613 37.2961C85.5572 37.2985 85.5535 37.3006 85.5491 37.3032C84.1536 38.1088 84.1469 39.4151 85.5376 40.2258C86.932 41.0387 89.204 41.045 90.6119 40.2395L90.6471 40.2192Z" fill="#52BD95"/>
<path d="M70.9747 78.8779C69.5735 79.6869 69.5735 80.9986 70.9747 81.8076L88.488 91.9189C91.4271 93.6158 96.2099 93.6158 99.1489 91.9189L106.888 87.4508C108.289 86.6418 108.289 85.3301 106.888 84.5211C105.487 83.7121 103.215 83.7121 101.814 84.5211L94.0746 88.9893C93.9335 89.0707 93.7035 89.0707 93.5624 88.9893L76.0491 78.8779C74.6478 78.0689 72.3759 78.0689 70.9747 78.8779Z" fill="#52BD95"/>
<path d="M122.466 78.457C125.405 76.7602 125.405 73.9988 122.466 72.302L107.746 63.8033C104.807 62.1064 100.024 62.1064 97.0854 63.8033L92.1395 66.6588C89.2005 68.3557 89.2005 71.117 92.1395 72.8139L106.86 81.3125C109.799 83.0094 114.581 83.0094 117.521 81.3125L122.466 78.457ZM111.934 78.3828L97.2139 69.8842C97.0728 69.8027 97.0728 69.6699 97.2139 69.5885L102.16 66.733C102.301 66.6516 102.531 66.6516 102.672 66.733L117.392 75.2316C117.533 75.3131 117.533 75.4459 117.392 75.5273L112.446 78.3828C112.305 78.4643 112.075 78.4645 111.934 78.3828Z" fill="#52BD95"/>
<path d="M115.456 53.1967L110.51 56.0521C107.571 57.749 107.571 60.5105 110.51 62.2074L128.023 72.3187C129.425 73.1277 131.696 73.1279 133.098 72.3187C134.499 71.5096 134.499 70.198 133.098 69.3891L125.858 65.2092L131.317 62.0576L138.557 66.2375C139.958 67.0465 142.229 67.0467 143.631 66.2375C145.032 65.4283 145.032 64.1168 143.631 63.3078L126.118 53.1965C123.178 51.4996 118.395 51.4998 115.456 53.1967ZM120.784 62.2795L115.585 59.2777C115.443 59.1963 115.443 59.0635 115.585 58.9818L120.531 56.1264C120.672 56.0447 120.902 56.0447 121.043 56.1262L126.242 59.1279L120.784 62.2795Z" fill="#52BD95"/>
<path d="M136.621 40.9774C135.219 41.7866 135.22 43.0981 136.621 43.9071L146.526 49.6256L129.709 46.5489C128.132 46.2602 126.419 46.6321 125.559 47.4477C124.7 48.2639 124.918 49.3133 126.088 49.9887L146.394 61.7127C147.796 62.5217 150.067 62.5219 151.469 61.7127C152.87 60.9036 152.87 59.592 151.469 58.7831L141.564 53.0645L158.381 56.1413C159.679 56.379 161.071 56.1692 162.001 55.6319C162.201 55.5166 162.379 55.3866 162.531 55.2426C163.389 54.4264 163.171 53.377 162.001 52.7016L141.695 40.9776C140.294 40.1684 138.022 40.1682 136.621 40.9774Z" fill="#52BD95"/>
<path d="M106.113 106.323C107.514 107.132 109.786 107.132 111.187 106.323L123.038 99.4808C124.439 98.6718 124.439 97.3601 123.038 96.5511C121.637 95.7421 119.365 95.7421 117.964 96.5511L106.113 103.393C104.712 104.202 104.712 105.514 106.113 106.323Z" fill="#52BD95"/>
<path d="M132.386 118.562L161.162 101.949C162.563 101.14 162.563 99.8281 161.162 99.0191C159.761 98.2102 157.489 98.2102 156.088 99.0191L127.312 115.633C125.911 116.442 125.911 117.754 127.312 118.562C128.713 119.371 130.985 119.371 132.386 118.562Z" fill="#52BD95"/>
<path d="M142.987 124.682L166.688 110.998C168.089 110.189 168.089 108.877 166.688 108.068C165.287 107.259 163.015 107.259 161.614 108.068L137.912 121.752C136.511 122.561 136.511 123.873 137.912 124.682C139.313 125.491 141.585 125.491 142.987 124.682Z" fill="#52BD95"/>
<path d="M179.081 61.2649L167.231 68.1067C165.829 68.9159 165.83 70.2274 167.231 71.0364C168.632 71.8454 170.904 71.8456 172.305 71.0364L184.156 64.1946C185.557 63.3854 185.557 62.0739 184.156 61.2649C182.755 60.4559 180.483 60.4559 179.081 61.2649Z" fill="#52BD95"/>
<path d="M171.505 93.0479C172.906 93.8568 175.178 93.857 176.579 93.0479L205.355 76.4342C206.757 75.625 206.756 74.3135 205.355 73.5045C203.954 72.6955 201.682 72.6953 200.281 73.5045L171.505 90.1182C170.104 90.9271 170.104 92.2389 171.505 93.0479Z" fill="#52BD95"/>
<path d="M210.881 79.6241L187.179 93.3081C185.778 94.1173 185.778 95.4288 187.179 96.2378C188.58 97.0468 190.852 97.047 192.254 96.2378L215.955 82.5538C217.357 81.7446 217.356 80.4331 215.955 79.6241C214.554 78.8151 212.282 78.8151 210.881 79.6241Z" fill="#52BD95"/>
<path d="M168.531 141.056C169.008 140.949 169.423 140.789 169.763 140.593C170.738 140.029 171.103 139.164 170.571 138.374C168.692 135.586 166.971 130.838 169.024 129.015C169.418 128.666 170.121 128.258 172.078 128.205C181.323 127.958 182.861 123.752 183.879 120.969C185.024 117.839 185.793 116.315 190.713 115.875C192.671 115.7 194.012 114.641 193.709 113.511C193.405 112.38 191.572 111.605 189.614 111.781C179.577 112.679 177.941 117.153 176.858 120.113C175.714 123.238 175.105 123.977 171.745 124.067C166.876 124.198 164.302 125.604 163.003 126.761C158.147 131.08 163.284 138.994 163.886 139.882C164.608 140.946 166.686 141.472 168.531 141.056Z" fill="#52BD95"/>
<path d="M116.411 109.254C115.01 110.063 115.01 111.375 116.411 112.184C117.812 112.993 120.084 112.993 121.486 112.184L121.521 112.164C122.922 111.355 122.922 110.043 121.521 109.234C120.12 108.425 117.848 108.425 116.446 109.234L116.411 109.254Z" fill="#52BD95"/>
<path d="M123.72 105.035C122.319 105.844 122.319 107.155 123.72 107.964C125.121 108.773 127.393 108.773 128.794 107.964L128.829 107.944C130.231 107.135 130.231 105.823 128.829 105.014C127.428 104.205 125.156 104.205 123.755 105.014L123.72 105.035Z" fill="#52BD95"/>
<path d="M181.891 71.4497C180.489 72.2589 180.489 73.5704 181.891 74.3794C183.292 75.1884 185.564 75.1886 186.965 74.3794L187 74.3591C188.402 73.5499 188.401 72.2384 187 71.4294C185.599 70.6204 183.327 70.6202 181.926 71.4294L181.891 71.4497Z" fill="#52BD95"/>
<path d="M189.234 67.2102L189.199 67.2305C187.797 68.0396 187.798 69.3512 189.199 70.1602C190.6 70.9691 192.872 70.9693 194.273 70.1602L194.308 70.1398C195.71 69.3307 195.71 68.0191 194.308 67.2102C192.907 66.4012 190.635 66.4012 189.234 67.2102Z" fill="#52BD95"/>
</svg>
