<svg width="375" height="140" viewBox="0 0 375 140" fill="none" xmlns="http://www.w3.org/2000/svg">
<path d="M203.051 40.8047L199.161 38.5589C202.378 36.7017 202.378 33.6789 199.161 31.8216C195.944 29.9644 190.708 29.9644 187.492 31.8216L183.602 34.0674C182.528 34.6872 180.786 34.6872 179.712 34.0674C178.638 33.4476 178.638 32.4414 179.712 31.8216L185.547 28.453L187.492 29.5758L191.381 27.3301L185.547 23.9614L179.712 27.3301L175.822 25.0843L171.932 27.3301L175.822 29.5758C172.605 31.4331 172.605 34.4559 175.822 36.3132C179.039 38.1704 184.275 38.1704 187.492 36.3132L191.381 34.0674C192.455 33.4476 194.198 33.4476 195.271 34.0674C196.345 34.6872 196.345 35.6933 195.271 36.3132L189.436 39.6818L187.492 38.5589L183.602 40.8047L189.436 44.1734L195.271 40.8047L199.161 43.0505L203.051 40.8047Z" fill="#52BD95"/>
<path d="M208.886 21.7156C197.09 14.9053 177.894 14.9053 166.098 21.7156C154.302 28.5259 154.302 39.6088 166.098 46.4192C177.894 53.2295 197.09 53.2295 208.886 46.4192C220.682 39.6088 220.682 28.5259 208.886 21.7156ZM169.988 44.1734C160.335 38.6005 160.335 29.5343 169.988 23.9614C179.64 18.3885 195.343 18.3885 204.996 23.9614C214.649 29.5343 214.649 38.6005 204.996 44.1734C195.343 49.7463 179.64 49.7463 169.988 44.1734Z" fill="#52BD95"/>
<path d="M216.665 17.2242C200.579 7.93679 174.404 7.93679 158.318 17.2242C142.232 26.5116 142.232 41.6235 158.318 50.9109C170.703 58.0614 189.053 59.684 204.19 55.8224L204.19 60.3589L188.553 69.3869L190.498 86.2302L167.193 99.6858L169.184 128.452L174.681 128.326L172.784 100.949L196.156 87.4553L194.211 70.612L209.693 61.6738L209.693 54.1302C211.867 53.3285 213.927 52.3909 215.862 51.3297L215.86 62.6047L198.189 72.8072L202.078 88.5277L178.829 101.951L182.87 136.951L187.492 139.619L300.296 74.4916L228.653 33.1288C228.261 27.3459 224.295 21.6293 216.665 17.2242ZM162.208 48.6651C148.267 40.6162 148.267 27.5189 162.208 19.47C176.149 11.4211 198.834 11.4211 212.775 19.47C226.716 27.5189 226.716 40.6162 212.775 48.6651C198.834 56.714 176.149 56.714 162.208 48.6651ZM221.912 47.2031L280.847 81.2289L273.067 85.7205L221.36 55.8673L221.36 47.6365C221.537 47.4894 221.741 47.3513 221.912 47.2031ZM221.36 63.9207L221.36 60.3589L269.177 87.9662L261.398 92.4578L216.665 66.6313L221.36 63.9207ZM210.83 121.653L203.051 126.144L186 116.3L184.889 106.676L210.83 121.653ZM185.547 102.564L193.326 98.0722L222.5 114.916L214.72 119.407L185.547 102.564ZM197.216 95.8265L204.996 91.3349L234.169 108.178L226.39 112.67L197.216 95.8265ZM207.588 88.3401L204.996 77.8602L245.839 101.441L238.059 105.932L207.588 88.3401ZM204.996 73.3687L212.775 68.8771L257.508 94.7036L249.728 99.1951L204.996 73.3687ZM186.556 121.113L199.161 128.39L188.131 134.758L186.556 121.113ZM284.737 78.9831L224.688 44.3139C226.504 42.1086 227.702 39.7797 228.28 37.4048L292.516 74.4916L284.737 78.9831Z" fill="#52BD95"/>
<path d="M150.538 104.81L154.428 102.564L146.649 98.0723L150.538 95.8265L127.2 82.3519L123.31 84.5977L115.53 80.1061L111.64 82.3519L119.42 86.8434L115.53 89.0892L138.869 102.564L142.759 100.318L150.538 104.81ZM123.31 89.0892L127.2 86.8434L142.759 95.8265L138.869 98.0723L123.31 89.0892Z" fill="#52BD95"/>
<path d="M156.374 90.2118L160.263 87.9661L152.484 83.4745L156.374 81.2287L136.925 69.9998L133.035 72.2456L125.255 67.754L121.365 69.9998L129.145 74.4914L125.255 76.7372L144.704 87.9661L148.594 85.7203L156.374 90.2118ZM133.035 76.7372L136.925 74.4914L148.594 81.2287L144.704 83.4745L133.035 76.7372Z" fill="#52BD95"/>
<path d="M158.318 73.3689L162.208 71.1231L154.428 66.6316L158.318 64.3858L142.759 55.4027L138.869 57.6484L131.09 53.1569L127.2 55.4027L134.979 59.8942L131.09 62.14L146.649 71.1231L150.539 68.8773L158.318 73.3689ZM138.869 62.14L142.759 59.8942L150.539 64.3858L146.649 66.6316L138.869 62.14Z" fill="#52BD95"/>
</svg>
