<svg width="301" height="174" viewBox="0 0 301 174" fill="none" xmlns="http://www.w3.org/2000/svg">
<path d="M129.904 171.667L199.186 131.667C200.779 130.747 200.779 129.253 199.186 128.333L164.545 108.333L158.771 111.667L173.436 120.133C165.878 125.967 165.875 134.035 173.436 139.867L144.106 156.8C134.006 152.435 120.028 152.435 109.927 156.8L28.6365 109.867C36.1969 104.035 36.1969 95.965 28.6365 90.1333L57.9659 73.2C68.0695 77.5634 82.0443 77.565 92.145 73.2L106.81 81.6667L112.583 78.3334L77.9422 58.3334C76.3487 57.4134 73.7622 57.4134 72.1687 58.3334L2.88675 98.3333C1.29326 99.2533 1.29326 100.747 2.88675 101.667L124.13 171.667C125.724 172.587 128.31 172.587 129.904 171.667ZM179.27 123.502L190.525 130L179.27 136.498C174.775 132.573 174.775 127.427 179.27 123.502ZM138.272 160.168L127.017 166.667L115.761 160.168C122.56 157.573 131.474 157.573 138.272 160.168ZM86.3109 69.8317C79.5126 72.4267 70.5983 72.4267 63.8 69.8317L75.0554 63.3334L86.3109 69.8317ZM22.8024 93.5017C27.2971 97.4267 27.2971 102.573 22.8024 106.498L11.547 100L22.8024 93.5017Z" fill="#52BD95"/>
<path d="M118.357 81.6666L112.584 84.9999C111.619 85.5566 111.201 86.3549 111.466 87.1283L117.24 103.795C117.563 104.728 118.825 105.457 120.441 105.643L149.309 108.977C150.651 109.132 152.034 108.89 152.998 108.333L158.772 105C160.365 104.08 160.365 102.587 158.772 101.667L152.998 98.3332L164.545 91.6666L170.319 94.9999C171.912 95.9199 174.499 95.9199 176.092 94.9999L181.866 91.6666C182.83 91.1099 183.248 90.3116 182.983 89.5383L177.209 72.8716C176.886 71.9383 175.624 71.2099 174.008 71.0233L145.14 67.6899C143.798 67.5349 142.415 67.7766 141.451 68.3333L135.678 71.6666C134.084 72.5866 134.084 74.0799 135.678 74.9999L141.451 78.3333L129.904 84.9999L124.131 81.6666C122.537 80.7466 119.951 80.7466 118.357 81.6666ZM150.111 79.9999C151.705 79.0799 151.705 77.5866 150.111 76.6666L144.338 73.3333L145.68 72.5583L169.735 75.3366L174.548 89.2249L173.205 89.9999L167.432 86.6666C165.838 85.7466 163.252 85.7466 161.658 86.6666L144.338 96.6666C142.744 97.5866 142.744 99.0799 144.338 99.9999L150.111 103.333L148.769 104.108L124.714 101.33L119.902 87.4416L121.244 86.6666L127.017 89.9999C128.611 90.9199 131.197 90.9199 132.791 89.9999L150.111 79.9999Z" fill="#52BD95"/>
<path d="M178.979 36.6668C163.061 45.8568 163.061 60.8102 178.979 70.0001C194.896 79.1901 220.796 79.1901 236.714 70.0001C252.631 60.8102 252.631 45.8568 236.714 36.6668C220.796 27.4769 194.896 27.4769 178.979 36.6668ZM219.393 60.0002C213.025 63.6768 202.667 63.6768 196.299 60.0002C189.931 56.3235 189.931 50.3435 196.299 46.6668C202.667 42.9902 213.025 42.9902 219.393 46.6668C225.761 50.3435 225.761 56.3235 219.393 60.0002ZM203.764 39.4068C200.194 39.7518 196.741 40.5585 193.672 41.8168L187.838 38.4485C192.575 36.3235 198.089 35.0602 203.764 34.6502L203.764 39.4068ZM187.899 45.1502C185.719 46.9218 184.322 48.9152 183.725 50.9768L175.486 50.9768C176.196 47.7002 178.384 44.5168 182.065 41.7818L187.899 45.1502ZM183.725 55.6902C184.322 57.7518 185.719 59.7452 187.899 61.5168L182.065 64.8851C178.384 62.1502 176.196 58.9668 175.486 55.6902L183.725 55.6902ZM193.672 64.8501C196.741 66.1085 200.194 66.9151 203.764 67.2601L203.764 72.0168C198.089 71.6068 192.575 70.3435 187.838 68.2185L193.672 64.8501ZM211.928 67.2601C215.499 66.9151 218.952 66.1085 222.02 64.8501L227.854 68.2185C223.117 70.3435 217.603 71.6068 211.928 72.0168L211.928 67.2601ZM227.794 61.5168C229.973 59.7452 231.37 57.7518 231.968 55.6902L240.207 55.6902C239.497 58.9668 237.308 62.1501 233.628 64.8851L227.794 61.5168ZM231.968 50.9768C231.37 48.9152 229.973 46.9218 227.794 45.1502L233.628 41.7818C237.308 44.5168 239.497 47.7002 240.207 50.9768L231.968 50.9768ZM222.02 41.8168C218.952 40.5585 215.499 39.7518 211.928 39.4068L211.928 34.6502C217.603 35.0602 223.117 36.3235 227.854 38.4485L222.02 41.8168Z" fill="#52BD95"/>
<path d="M86.6027 123.333C94.5615 127.928 107.511 127.928 115.47 123.333C123.429 118.738 123.429 111.262 115.47 106.667C107.511 102.072 94.5614 102.072 86.6027 106.667C78.6439 111.262 78.6439 118.738 86.6027 123.333ZM109.697 110C114.471 112.757 114.471 117.243 109.697 120C104.922 122.757 97.1509 122.757 92.3762 120C87.6015 117.243 87.6015 112.757 92.3762 110C97.1509 107.243 104.922 107.243 109.697 110Z" fill="#52BD95"/>
<path d="M164.545 28.3334C154.372 34.2067 148.085 41.9934 146.84 50.255L154.972 50.6633C156.052 43.5034 161.502 36.7567 170.318 31.6667L164.545 28.3334Z" fill="#52BD95"/>
<path d="M254.129 76.485L247.96 73.3967C244.663 75.59 240.726 77.5667 236.462 79.145L240.87 83.1134C244.565 81.7467 248.021 80.1384 251.147 78.3334C252.186 77.7334 253.179 77.1167 254.129 76.485Z" fill="#52BD95"/>
<path d="M260.717 56.0016C259.975 60.9266 257.152 65.7166 252.554 69.8549L259.427 72.3999C264.739 67.6199 267.998 62.0916 268.852 56.4083L260.717 56.0016Z" fill="#52BD95"/>
</svg>
