<svg width="60" height="60" viewBox="0 0 60 60" fill="none" xmlns="http://www.w3.org/2000/svg">
<circle cx="30" cy="30" r="30" fill="#52BD95"/>
<path fill-rule="evenodd" clip-rule="evenodd" d="M30 12.4082C36.5968 12.4082 40.2094 16.1778 40.2094 16.1778H32.2774H28.3115C26.2412 16.1778 25.2516 16.1778 24.7786 16.6721C24.3455 17.1248 24.3455 17.9919 24.3455 19.653V23.1281V30.0784V37.0286V40.5038C24.3455 42.1648 24.3455 43.0319 24.7786 43.4846C25.2516 43.9789 26.2412 43.9789 28.3115 43.9789H32.2774H40.2094C36.516 46.4847 34.3633 47.6005 30 47.7485H19.7905V12.4082H30ZM45.3926 27.4866H40.6805V32.6698H45.3926V27.4866ZM37.8533 19.1621H42.5654L44.9214 24.3454H40.2094L39.0313 21.7537L37.8533 19.1621ZM44.9214 35.8113H40.2094L37.8533 40.9945H42.5654L44.9214 35.8113Z" fill="white"/>
</svg>
