<svg width="178" height="60" viewBox="0 0 178 60" fill="none" xmlns="http://www.w3.org/2000/svg">
<path d="M81.744 20.4C84.4133 20.4 86.6253 21.352 88.38 23.256C90.1533 25.1413 91.04 27.456 91.04 30.2C91.04 32.944 90.1533 35.268 88.38 37.172C86.6253 39.0573 84.4133 40 81.744 40H74.1V20.4H81.744ZM81.744 37.536C83.7413 37.536 85.3747 36.836 86.644 35.436C87.9133 34.036 88.548 32.2907 88.548 30.2C88.548 28.1093 87.9133 26.364 86.644 24.964C85.3747 23.564 83.7413 22.864 81.744 22.864H76.704V37.536H81.744ZM95.6537 34.12C95.8963 35.3707 96.4657 36.3413 97.3617 37.032C98.2763 37.7227 99.3963 38.068 100.722 38.068C102.57 38.068 103.914 37.3867 104.754 36.024L106.826 37.2C105.463 39.3093 103.41 40.364 100.666 40.364C98.4443 40.364 96.6337 39.6733 95.2337 38.292C93.8523 36.892 93.1617 35.128 93.1617 33C93.1617 30.8907 93.843 29.136 95.2057 27.736C96.5683 26.336 98.3323 25.636 100.498 25.636C102.551 25.636 104.222 26.364 105.51 27.82C106.816 29.2573 107.47 30.9933 107.47 33.028C107.47 33.3827 107.442 33.7467 107.386 34.12H95.6537ZM100.498 27.932C99.191 27.932 98.1083 28.3053 97.2497 29.052C96.391 29.78 95.859 30.76 95.6537 31.992H105.006C104.8 30.6667 104.278 29.6587 103.438 28.968C102.598 28.2773 101.618 27.932 100.498 27.932ZM120.976 26V40H118.54V28.352H113.36V40H110.924V28.352H108.684V26H110.924V25.58C110.924 21.884 112.968 20.036 117.056 20.036C117.821 20.036 118.782 20.1573 119.94 20.4V22.612C118.801 22.4627 117.84 22.388 117.056 22.388C115.786 22.388 114.853 22.6307 114.256 23.116C113.658 23.5827 113.36 24.404 113.36 25.58V26H120.976ZM127.143 28.352C127.946 26.616 129.402 25.748 131.511 25.748V28.296C130.317 28.24 129.29 28.5573 128.431 29.248C127.573 29.9387 127.143 31.0493 127.143 32.58V40H124.707V26H127.143V28.352ZM135.127 23.452C134.66 23.452 134.268 23.2933 133.951 22.976C133.634 22.6587 133.475 22.276 133.475 21.828C133.475 21.38 133.634 20.9973 133.951 20.68C134.268 20.344 134.66 20.176 135.127 20.176C135.575 20.176 135.958 20.344 136.275 20.68C136.592 20.9973 136.751 21.38 136.751 21.828C136.751 22.276 136.592 22.6587 136.275 22.976C135.958 23.2933 135.575 23.452 135.127 23.452ZM133.895 40V26H136.331V40H133.895ZM149.707 26H152.143V40H149.707V37.984C148.718 39.5707 147.206 40.364 145.171 40.364C143.529 40.364 142.213 39.8507 141.223 38.824C140.234 37.7787 139.739 36.3693 139.739 34.596V26H142.175V34.456C142.175 35.5947 142.483 36.4813 143.099 37.116C143.715 37.732 144.565 38.04 145.647 38.04C146.861 38.04 147.841 37.6667 148.587 36.92C149.334 36.1547 149.707 34.988 149.707 33.42V26ZM170.972 25.636C172.54 25.636 173.809 26.1493 174.78 27.176C175.751 28.184 176.236 29.556 176.236 31.292V40H173.8V31.376C173.8 30.2933 173.52 29.4533 172.96 28.856C172.4 28.2587 171.653 27.96 170.72 27.96C169.675 27.96 168.835 28.3147 168.2 29.024C167.584 29.7147 167.276 30.7787 167.276 32.216V40H164.84V31.376C164.84 30.2933 164.569 29.4533 164.028 28.856C163.505 28.2587 162.787 27.96 161.872 27.96C160.845 27.96 159.987 28.3147 159.296 29.024C158.624 29.7333 158.288 30.7973 158.288 32.216V40H155.852V26H158.288V27.876C159.24 26.3827 160.631 25.636 162.46 25.636C164.345 25.636 165.717 26.4293 166.576 28.016C167.547 26.4293 169.012 25.636 170.972 25.636Z" fill="black"/>
<circle cx="30" cy="30" r="30" fill="#52BD95"/>
<path fill-rule="evenodd" clip-rule="evenodd" d="M30 12.4084C36.5969 12.4084 40.2094 16.1781 40.2094 16.1781H32.2775H28.3115C26.2413 16.1781 25.2517 16.1781 24.7787 16.6724C24.3456 17.125 24.3456 17.9921 24.3456 19.6532V23.1283V30.0786V37.0289V40.504C24.3456 42.1651 24.3456 43.0322 24.7787 43.4848C25.2517 43.9791 26.2413 43.9791 28.3115 43.9791H32.2775H40.2094C36.5161 46.4849 34.3633 47.6008 30 47.7488H19.7906V12.4084H30ZM45.3926 27.4868H40.6806V32.6701H45.3926V27.4868ZM37.8534 19.1624H42.5654L44.9215 24.3456H40.2094L39.0314 21.754L37.8534 19.1624ZM44.9215 35.8115H40.2094L37.8534 40.9948H42.5654L44.9215 35.8115Z" fill="white"/>
</svg>
