<svg width="30" height="30" viewBox="0 0 30 30" fill="none" xmlns="http://www.w3.org/2000/svg">
<rect width="30" height="30" rx="4" fill="#52BD95"/>
<path d="M9.2453 22.4465V10.8425L10.6233 11.5433V22.4545L9.2453 22.4465ZM13.9494 24.9691V13.4572L15.3273 13.4813V24.9691H13.9494ZM5.25 20.3563V9.80547L6.63588 9.13678V20.048L5.25 20.3563ZM14.376 14.7265L5.42027 10.3861L7.03185 9.6413L14.9739 13.4692L14.38 14.7265H14.376ZM23.3071 10.9987L14.088 5.77331L14.6384 4.5L23.9812 9.78145L23.311 10.9987H23.3071ZM14.6859 25.5938L5.25 20.3804L5.91918 19.1621L15.2858 24.3405L14.6859 25.5938ZM6.32307 10.7945L5.25 9.80547L14.6384 4.52402L15.2937 5.77231L6.32307 10.7945ZM22.621 20.3043V10.2659L23.999 9.78545V20.3083L22.621 20.3043ZM14.7275 20.3854L14.0939 19.1481L22.9853 14.4953L23.6189 15.7336L14.7275 20.3894V20.3854ZM14.4305 14.9278L13.8365 13.6705L22.9438 9.24489L23.5377 10.5022L14.4305 14.9278ZM14.6869 25.5897L14.084 24.3355L23.0992 19.2032L24 20.2803L14.6869 25.5857V25.5897Z" fill="white"/>
</svg>
