<svg width="1092" height="581" viewBox="0 0 1092 581" fill="none" xmlns="http://www.w3.org/2000/svg">
<path d="M725.755 228.177L984.84 292.118" stroke="#848080" stroke-opacity="0.1" stroke-width="3"/>
<path d="M727.845 229.547L93.562 137.399" stroke="#848080" stroke-opacity="0.1" stroke-width="3"/>
<path d="M728.438 229.515L384.947 318.885" stroke="#848080" stroke-opacity="0.1" stroke-width="3"/>
<path d="M729.491 229.182L813 469" stroke="#848080" stroke-opacity="0.1" stroke-width="3"/>
<path d="M139 309L811 469" stroke="#848080" stroke-opacity="0.1" stroke-width="3"/>
<path d="M139 307L995.02 93.4807" stroke="#848080" stroke-opacity="0.1" stroke-width="3"/>
<path d="M137 315.85L383.82 315.85" stroke="#848080" stroke-opacity="0.1" stroke-width="3"/>
<path d="M141 311L100.248 150.642" stroke="#848080" stroke-opacity="0.1" stroke-width="3"/>
<path d="M263 507L1008.62 94.2754" stroke="#848080" stroke-opacity="0.1" stroke-width="3"/>
<path d="M265 507L986.867 298.622" stroke="#848080" stroke-opacity="0.1" stroke-width="3"/>
<path d="M259 505L382.562 324.227" stroke="#848080" stroke-opacity="0.1" stroke-width="3"/>
<g filter="url(#filter0_d)">
<path d="M1021.77 61H968.999C963.476 61 958.999 65.4772 958.999 71V123.773C958.999 129.296 963.476 133.773 968.999 133.773H1021.77C1027.29 133.773 1031.77 129.296 1031.77 123.773V71C1031.77 65.4772 1027.29 61 1021.77 61Z" fill="#52BD95"/>
<path d="M1012.63 90.5625H1011.41V79.8131C1011.41 79.2031 1010.91 78.7087 1010.3 78.7087H1002.53C1001.92 78.7087 1001.43 79.2031 1001.43 79.8131V85.0904C1001.43 85.7004 1001.92 86.195 1002.53 86.195H1009.2V90.5625H1003.8C1003.19 90.5625 1002.7 91.0569 1002.7 91.6669V95.9099H994.98C994.37 95.9099 993.876 96.4043 993.876 97.0143V101.257H986.158C985.548 101.257 985.053 101.751 985.053 102.361V106.604H977.335C976.725 106.604 976.23 107.099 976.23 107.709V114.161C976.23 114.771 976.725 115.265 977.335 115.265H1012.63C1013.24 115.265 1013.73 114.771 1013.73 114.161V91.6669C1013.73 91.0569 1013.24 90.5625 1012.63 90.5625ZM1003.64 83.9861V80.9179H1009.2V83.9861H1003.64ZM1011.52 113.056H978.439V108.813H986.158C986.768 108.813 987.262 108.319 987.262 107.709V103.466H994.98C995.59 103.466 996.085 102.971 996.085 102.361V98.1186H1003.8C1004.41 98.1186 1004.91 97.6242 1004.91 97.0143V92.7712H1011.52V113.056Z" fill="white"/>
</g>
<g filter="url(#filter1_d)">
<path d="M410.956 278.756H358.183C352.66 278.756 348.183 283.233 348.183 288.756V341.529C348.183 347.052 352.66 351.529 358.183 351.529H410.956C416.479 351.529 420.956 347.052 420.956 341.529V288.756C420.956 283.233 416.479 278.756 410.956 278.756Z" fill="#52BD95"/>
<path d="M395.039 295C389.547 295 385.078 299.468 385.078 304.961C385.078 308.144 386.579 310.982 388.91 312.807C388.128 313.19 387.588 313.994 387.588 314.922V316.961H382.412C381.114 316.961 380.059 318.016 380.059 319.314V321.353H374.882C373.585 321.353 372.529 322.408 372.529 323.706V325.745H367.353C366.056 325.745 365 326.801 365 328.098V333.824C365 334.473 365.527 335 366.176 335H403.824C404.473 335 405 334.473 405 333.824V304.961C405 299.468 400.532 295 395.039 295ZM372.529 332.647H367.353V328.098H372.529V332.647ZM380.059 332.647H374.882C374.882 331.857 374.882 324.766 374.882 323.706H380.059V332.647ZM387.588 332.647H382.412C382.412 331.213 382.412 321.654 382.412 319.314H387.588V332.647ZM395.118 332.647H389.941C389.941 331.871 389.941 316.217 389.941 314.922H395.118V332.647ZM402.647 332.647H397.471V314.621C399.522 314.105 401.322 312.95 402.647 311.382V332.647ZM395.039 312.569C390.844 312.569 387.431 309.156 387.431 304.961C387.431 300.766 390.844 297.353 395.039 297.353C399.234 297.353 402.647 300.766 402.647 304.961C402.647 309.156 399.234 312.569 395.039 312.569Z" fill="white"/>
<path d="M367.51 311.157V313.745C367.51 314.395 368.037 314.922 368.686 314.922C369.336 314.922 369.863 314.395 369.863 313.745V311.157H370.02C371.317 311.157 372.373 310.101 372.373 308.804V304.255C372.373 303.066 371.477 301.902 369.863 301.902V296.176C369.863 295.527 369.336 295 368.686 295C368.037 295 367.51 295.527 367.51 296.176V301.902H367.353C366.056 301.902 365 302.957 365 304.255V308.804C365 309.993 365.896 311.157 367.51 311.157ZM367.353 304.255H370.02L370.021 308.804C370.013 308.805 369.583 308.804 367.353 308.804V304.255Z" fill="white"/>
<path d="M377.549 309.275V313.745C377.549 314.395 378.076 314.922 378.726 314.922C379.375 314.922 379.902 314.395 379.902 313.745V309.275H380.059C381.356 309.275 382.412 308.219 382.412 306.922V302.373C382.412 301.184 381.516 300.02 379.902 300.02V296.176C379.902 295.527 379.375 295 378.726 295C378.076 295 377.549 295.527 377.549 296.176V300.02H377.392C376.095 300.02 375.039 301.075 375.039 302.373V306.922C375.039 308.11 375.935 309.275 377.549 309.275ZM377.392 302.373H380.059L380.06 306.921C380.053 306.923 379.622 306.922 377.392 306.922V302.373Z" fill="white"/>
<path d="M396.094 303.795C395.655 303.665 395.016 303.465 394.608 303.255C394.763 303.16 395.346 303.085 395.721 303.321C395.696 303.302 395.699 303.309 395.711 303.293C396.469 303.957 397.668 303.42 397.668 302.405C397.668 301.927 397.383 301.516 396.973 301.33C396.805 301.225 396.524 301.075 396.148 300.962C396.038 300.416 395.555 300.02 394.995 300.02C394.402 300.02 393.913 300.459 393.831 301.029C391.956 301.745 391.625 304.119 393.14 305.119C394.282 305.872 395.779 306.011 395.744 306.262C395.711 306.489 395.377 306.686 394.988 306.686C394.341 306.689 394.187 306.669 393.725 306.415C393.155 306.102 392.44 306.309 392.127 306.878C391.813 307.448 392.021 308.163 392.591 308.476C393.061 308.736 393.445 308.879 393.843 308.956C393.97 309.57 394.567 309.943 395.039 309.891C395.628 309.87 396.106 309.417 396.166 308.838C398.658 307.941 398.836 304.611 396.094 303.795Z" fill="white"/>
</g>
<g filter="url(#filter2_d)">
<path d="M984.156 261.604H931.383C925.86 261.604 921.383 266.081 921.383 271.604V324.377C921.383 329.9 925.86 334.377 931.383 334.377H984.156C989.679 334.377 994.156 329.9 994.156 324.377V271.604C994.156 266.081 989.679 261.604 984.156 261.604Z" fill="#52BD95"/>
<g clip-path="url(#clip0)">
<path d="M973.192 305.624L969.956 300.077C970.519 295.238 968.536 290.436 964.584 287.458V282C964.929 282.283 965.204 282.835 965.904 282.835C966.939 282.835 967.473 281.575 966.733 280.835L964.241 278.343C963.783 277.885 963.039 277.886 962.583 278.343L960.091 280.835C959.634 281.292 959.634 282.034 960.091 282.492C960.549 282.95 961.291 282.95 961.748 282.492L962.24 282V286.036C960.414 285.164 958.397 284.696 956.325 284.696C944.258 284.696 937.98 299.345 946.537 308.049V316.764C946.537 317.408 947.057 317.932 947.702 317.936C958.251 317.994 959.233 318 959.246 318C959.893 318 960.418 317.475 960.418 316.828V315.101H965.057C966.736 315.101 968.102 313.735 968.102 312.057V308.09H971.775C973.032 308.09 973.831 306.724 973.192 305.624ZM966.93 305.746C966.283 305.746 965.759 306.271 965.759 306.918V312.057C965.759 312.443 965.444 312.757 965.057 312.757H959.246C958.599 312.757 958.075 313.281 958.075 313.928V315.65L948.88 315.598V309.959C949.307 310.235 949.75 310.488 950.207 310.716C950.786 311.004 951.49 310.769 951.779 310.19C952.067 309.611 951.832 308.907 951.253 308.618C947.361 306.677 944.942 302.771 944.942 298.423C944.942 289.556 954.684 284.102 962.24 288.698V298.577C962.24 301.807 959.611 304.436 956.381 304.436C953.15 304.436 950.521 301.807 950.521 298.577C950.521 294.521 954.559 291.697 958.354 293.059C958.963 293.278 959.634 292.961 959.853 292.352C960.071 291.742 959.755 291.071 959.145 290.853C953.821 288.942 948.177 292.909 948.177 298.577C948.177 303.1 951.857 306.78 956.381 306.78C960.904 306.78 964.584 303.1 964.584 298.577V290.59C967.012 293.148 968.106 296.574 967.582 300.152C967.544 300.415 967.596 300.683 967.73 300.912L970.55 305.746H966.93V305.746Z" fill="white"/>
<path d="M956.38 295.061C954.442 295.061 952.865 296.638 952.865 298.576C952.865 300.515 954.442 302.092 956.38 302.092C958.319 302.092 959.896 300.515 959.896 298.576C959.896 296.638 958.319 295.061 956.38 295.061ZM956.38 299.748C955.734 299.748 955.208 299.223 955.208 298.576C955.208 297.93 955.734 297.405 956.38 297.405C957.027 297.405 957.552 297.93 957.552 298.576C957.552 299.223 957.027 299.748 956.38 299.748Z" fill="white"/>
</g>
</g>
<g filter="url(#filter3_d)">
<path d="M842.773 433H790C784.477 433 780 437.477 780 443V495.773C780 501.296 784.477 505.773 790 505.773H842.773C848.296 505.773 852.773 501.296 852.773 495.773V443C852.773 437.477 848.296 433 842.773 433Z" fill="#52BD95"/>
<path d="M832.484 449.078H799.516C797.577 449.078 796 450.655 796 452.594V485.406C796 487.345 797.577 488.922 799.516 488.922H832.484C834.423 488.922 836 487.345 836 485.406V452.594C836 450.655 834.423 449.078 832.484 449.078ZM799.516 451.422H832.484C833.131 451.422 833.656 451.948 833.656 452.594V458.453H798.344V452.594C798.344 451.948 798.869 451.422 799.516 451.422ZM832.484 486.578H799.516C798.869 486.578 798.344 486.052 798.344 485.406V460.797H833.656V485.406C833.656 486.052 833.131 486.578 832.484 486.578Z" fill="white"/>
<path d="M819.977 464.407C819.382 464.152 818.693 464.428 818.438 465.023L811.407 481.429C811.152 482.024 811.428 482.713 812.023 482.968C812.618 483.223 813.306 482.947 813.561 482.352L820.593 465.946C820.848 465.351 820.572 464.662 819.977 464.407Z" fill="white"/>
<path d="M809.884 468.268C809.48 467.763 808.742 467.681 808.237 468.085L802.378 472.772C801.792 473.241 801.791 474.134 802.378 474.603L808.237 479.29C808.742 479.695 809.48 479.612 809.884 479.107C810.288 478.602 810.206 477.864 809.701 477.46L804.985 473.688L809.701 469.915C810.206 469.511 810.288 468.773 809.884 468.268Z" fill="white"/>
<path d="M829.623 472.772L823.763 468.085C823.258 467.681 822.52 467.762 822.116 468.268C821.712 468.773 821.794 469.511 822.299 469.915L827.015 473.687L822.299 477.46C821.794 477.864 821.712 478.602 822.116 479.107C822.521 479.613 823.259 479.694 823.763 479.29L829.623 474.602C830.209 474.134 830.209 473.241 829.623 472.772Z" fill="white"/>
<path d="M801.938 456.109C802.585 456.109 803.109 455.585 803.109 454.938C803.109 454.29 802.585 453.766 801.938 453.766C801.29 453.766 800.766 454.29 800.766 454.938C800.766 455.585 801.29 456.109 801.938 456.109Z" fill="white"/>
<path d="M806.625 456.109C807.272 456.109 807.797 455.585 807.797 454.938C807.797 454.29 807.272 453.766 806.625 453.766C805.978 453.766 805.453 454.29 805.453 454.938C805.453 455.585 805.978 456.109 806.625 456.109Z" fill="white"/>
<path d="M811.312 456.109C811.96 456.109 812.484 455.585 812.484 454.938C812.484 454.29 811.96 453.766 811.312 453.766C810.665 453.766 810.141 454.29 810.141 454.938C810.141 455.585 810.665 456.109 811.312 456.109Z" fill="white"/>
<path d="M823.031 456.109H830.062C830.71 456.109 831.234 455.585 831.234 454.938C831.234 454.29 830.71 453.766 830.062 453.766H823.031C822.384 453.766 821.859 454.29 821.859 454.938C821.859 455.585 822.384 456.109 823.031 456.109Z" fill="white"/>
</g>
<g filter="url(#filter4_d)">
<path d="M125.773 105.984H73C67.4772 105.984 63 110.462 63 115.984V168.757C63 174.28 67.4772 178.757 73 178.757H125.773C131.296 178.757 135.773 174.28 135.773 168.757V115.984C135.773 110.462 131.296 105.984 125.773 105.984Z" fill="#52BD95"/>
<path d="M122.22 151.918H120.49V146.08C120.49 145.309 119.866 144.685 119.095 144.685H117.365V138.846C117.365 138.076 116.741 137.451 115.97 137.451H114.24V131.612C114.24 130.842 113.616 130.217 112.845 130.217H109.032V123.337C109.032 122.566 108.407 121.942 107.637 121.942H91.9783C91.2079 121.942 90.5833 122.566 90.5833 123.337V130.217H86.77C85.9996 130.217 85.375 130.842 85.375 131.612V137.451H83.6449C82.8745 137.451 82.25 138.075 82.25 138.846V144.685H80.52C79.7496 144.685 79.125 145.309 79.125 146.08V151.918H77.395C76.6246 151.918 76 152.543 76 153.313V160.547C76 161.317 76.6246 161.942 77.395 161.942H122.22C122.991 161.942 123.615 161.317 123.615 160.547V153.313C123.615 152.543 122.991 151.918 122.22 151.918ZM117.7 151.918H109.136L108.336 147.475H117.7V151.918H117.7ZM96.7177 133.007H102.898L107.604 159.152H92.0116L96.7177 133.007ZM114.575 144.685H107.834L107.034 140.241H114.575V144.685ZM111.45 137.451H106.532L105.732 133.007H111.45V137.451H111.45ZM93.3733 124.732H106.242V130.217H93.3733V124.732ZM88.165 133.007H93.8829L93.083 137.451H88.1649V133.007H88.165ZM85.0399 140.241H92.5808L91.7809 144.685H85.0399V140.241ZM81.915 147.475H91.2787L90.4789 151.918H81.915V147.475ZM78.79 154.708H89.9767L89.1768 159.152H78.79V154.708ZM120.825 159.152H110.438L109.639 154.708H120.825V159.152Z" fill="white"/>
</g>
<g filter="url(#filter5_d)">
<path d="M162.77 275H110C104.477 275 100 279.477 100 285V337.77C100 343.293 104.477 347.77 110 347.77H162.77C168.293 347.77 172.77 343.293 172.77 337.77V285C172.77 279.477 168.293 275 162.77 275Z" fill="#52BD95"/>
<g clip-path="url(#clip1)">
<path d="M150.025 321.506C151.132 320.354 151.815 318.791 151.815 317.071C151.815 313.537 148.94 310.662 145.407 310.662C144.383 310.662 143.376 310.91 142.475 311.374C141.463 309.389 139.579 307.92 137.331 307.475V299.92L144.055 297.087C144.503 296.899 144.788 296.454 144.771 295.968C144.755 295.483 144.442 295.058 143.983 294.899L137.331 292.603V292.192C137.331 291.544 136.806 291.02 136.159 291.02C135.512 291.02 134.987 291.544 134.987 292.192V307.391C132.541 307.694 130.462 309.198 129.362 311.293C128.502 310.882 127.555 310.663 126.593 310.663C123.06 310.663 120.185 313.537 120.185 317.071C120.185 318.791 120.868 320.354 121.975 321.507C118.52 322.567 116 325.787 116 329.586V329.808C116 330.455 116.525 330.98 117.172 330.98H154.828C155.475 330.98 156 330.455 156 329.808V329.586C156 325.787 153.48 322.567 150.025 321.506ZM145.407 313.006C147.648 313.006 149.471 314.829 149.471 317.071C149.471 319.312 147.648 321.135 145.407 321.135C145.393 321.135 145.381 321.136 145.368 321.137H144.51C143.525 320.488 142.398 320.04 141.186 319.85C142.478 318.521 143.275 316.708 143.275 314.713C143.275 314.354 143.249 314.002 143.199 313.658C143.855 313.231 144.609 313.006 145.407 313.006ZM140.324 296.116L137.331 297.377V295.083L140.324 296.116ZM135.897 309.679C138.673 309.679 140.931 311.937 140.931 314.713C140.931 317.488 138.673 319.747 135.897 319.747C133.122 319.747 130.863 317.488 130.863 314.713C130.863 311.937 133.122 309.679 135.897 309.679ZM126.593 313.006C127.315 313.006 128.003 313.19 128.613 313.542C128.552 313.923 128.52 314.314 128.52 314.713C128.52 316.721 129.326 318.544 130.633 319.875C129.478 320.078 128.404 320.515 127.46 321.137H126.624C126.614 321.136 126.604 321.135 126.593 321.135C124.352 321.135 122.529 319.312 122.529 317.071C122.529 314.83 124.352 313.006 126.593 313.006ZM124.449 323.48H125.089C124.179 324.828 123.648 326.451 123.648 328.195V328.636H118.417C118.875 325.719 121.405 323.48 124.449 323.48ZM125.991 328.195C125.991 324.83 128.729 322.092 132.095 322.092H134.725V328.636H125.991V328.195ZM145.979 328.636H137.069V322.092H139.876C143.241 322.092 145.979 324.83 145.979 328.195V328.636ZM148.323 328.636V328.195C148.323 326.451 147.791 324.828 146.881 323.48H147.551C150.595 323.48 153.125 325.719 153.583 328.636H148.323Z" fill="white"/>
</g>
</g>
<g filter="url(#filter6_d)">
<path d="M753.016 192.546H700.246C694.723 192.546 690.246 197.023 690.246 202.546V255.316C690.246 260.839 694.723 265.316 700.246 265.316H753.016C758.539 265.316 763.016 260.839 763.016 255.316V202.546C763.016 197.023 758.539 192.546 753.016 192.546Z" fill="#52BD95"/>
<g clip-path="url(#clip2)">
<path d="M732.625 238.453H726.375C725.728 238.453 725.203 238.978 725.203 239.625C725.203 240.272 725.728 240.797 726.375 240.797H732.625C733.272 240.797 733.797 240.272 733.797 239.625C733.797 238.978 733.272 238.453 732.625 238.453Z" fill="white"/>
<path d="M726.375 235.797H730.75C731.397 235.797 731.922 235.272 731.922 234.625C731.922 233.978 731.397 233.453 730.75 233.453H726.375C725.728 233.453 725.203 233.978 725.203 234.625C725.203 235.272 725.728 235.797 726.375 235.797Z" fill="white"/>
<path d="M747 221.5C747 216.374 742.829 212.203 737.703 212.203C733.644 212.203 730.184 214.819 728.92 218.453H710.516C708.577 218.453 707 220.03 707 221.969V242.281C707 244.22 708.577 245.797 710.516 245.797H739.656C741.595 245.797 743.172 244.22 743.172 242.281V229.013C745.49 227.321 747 224.584 747 221.5ZM737.703 214.547C741.537 214.547 744.656 217.666 744.656 221.5C744.656 225.334 741.537 228.453 737.703 228.453C733.869 228.453 730.75 225.334 730.75 221.5C730.75 217.666 733.869 214.547 737.703 214.547ZM740.828 242.281C740.828 242.927 740.302 243.453 739.656 243.453H710.516C709.869 243.453 709.344 242.927 709.344 242.281V221.969C709.344 221.323 709.869 220.797 710.516 220.797H728.433C728.415 221.029 728.406 221.264 728.406 221.5C728.406 226.626 732.577 230.797 737.703 230.797C738.799 230.797 739.851 230.606 740.828 230.256V242.281Z" fill="white"/>
<path d="M735.405 223.899C735.582 224.253 735.925 224.493 736.318 224.539C736.363 224.544 736.408 224.547 736.453 224.547C736.798 224.547 737.129 224.394 737.353 224.125L740.478 220.375C740.892 219.878 740.825 219.139 740.328 218.725C739.831 218.31 739.092 218.378 738.678 218.875L736.7 221.248L736.251 220.351C735.962 219.772 735.258 219.537 734.679 219.827C734.1 220.116 733.865 220.82 734.155 221.399L735.405 223.899Z" fill="white"/>
<path d="M720.054 232.644C720.822 231.868 721.297 230.801 721.297 229.625C721.297 227.256 719.369 225.328 717 225.328C714.631 225.328 712.703 227.256 712.703 229.625C712.703 230.801 713.178 231.868 713.946 232.644C712.809 233.547 712.078 234.939 712.078 236.5V239.625C712.078 240.272 712.603 240.797 713.25 240.797H720.75C721.397 240.797 721.922 240.272 721.922 239.625V236.5C721.922 234.939 721.191 233.547 720.054 232.644ZM715.047 229.625C715.047 228.548 715.923 227.672 717 227.672C718.077 227.672 718.953 228.548 718.953 229.625C718.953 230.702 718.077 231.578 717 231.578C715.923 231.578 715.047 230.702 715.047 229.625ZM719.578 238.453H714.422V236.5C714.422 235.078 715.578 233.922 717 233.922C718.422 233.922 719.578 235.078 719.578 236.5V238.453Z" fill="white"/>
</g>
</g>
<path d="M286.77 471H234C228.477 471 224 475.477 224 481V533.77C224 539.293 228.477 543.77 234 543.77H286.77C292.293 543.77 296.77 539.293 296.77 533.77V481C296.77 475.477 292.293 471 286.77 471Z" fill="#52BD95"/>
<g clip-path="url(#clip3)">
<path d="M277.573 489.51H267.531C266.193 489.51 265.104 490.599 265.104 491.938V499.469C265.104 499.512 265.064 499.552 265.021 499.552H254.979C253.641 499.552 252.552 500.641 252.552 501.979V509.51C252.552 509.553 252.512 509.594 252.469 509.594H242.427C241.089 509.594 240 510.683 240 512.021V522.063C240 523.401 241.089 524.49 242.427 524.49H275.69C278.067 524.49 280 522.556 280 520.18V491.938C280 490.599 278.911 489.51 277.573 489.51ZM277.656 520.18C277.656 521.264 276.774 522.146 275.69 522.146H242.427C242.384 522.146 242.344 522.105 242.344 522.063V512.021C242.344 511.978 242.384 511.938 242.427 511.938H252.469C253.807 511.938 254.896 510.849 254.896 509.51V501.979C254.896 501.937 254.936 501.896 254.979 501.896H265.021C266.359 501.896 267.448 500.807 267.448 499.469V491.938C267.448 491.895 267.488 491.854 267.531 491.854H277.573C277.616 491.854 277.656 491.895 277.656 491.938V520.18H277.656Z" fill="white"/>
<path d="M273.348 509.311L269.188 508.707L267.327 504.937C267.13 504.537 266.722 504.283 266.276 504.283C265.83 504.283 265.423 504.537 265.225 504.937L263.365 508.707L259.204 509.311C258.763 509.375 258.396 509.685 258.258 510.109C258.12 510.533 258.235 510.999 258.555 511.31L261.565 514.245L260.854 518.388C260.779 518.828 260.96 519.272 261.321 519.535C261.525 519.683 261.767 519.758 262.01 519.758C262.196 519.758 262.383 519.714 262.555 519.624L266.276 517.667L269.998 519.624C270.169 519.714 270.356 519.758 270.543 519.758H270.547C271.193 519.757 271.716 519.233 271.716 518.587C271.716 518.497 271.706 518.409 271.687 518.325L270.987 514.245L273.998 511.31C274.317 510.999 274.432 510.533 274.294 510.109C274.156 509.685 273.79 509.375 273.348 509.311ZM268.91 512.997C268.634 513.266 268.508 513.654 268.573 514.034L268.986 516.444L266.822 515.306C266.651 515.216 266.464 515.171 266.276 515.171C266.089 515.171 265.902 515.216 265.731 515.306L263.566 516.444L263.979 514.034C264.045 513.654 263.919 513.266 263.642 512.997L261.891 511.289L264.311 510.938C264.693 510.882 265.023 510.642 265.193 510.297L266.276 508.103L267.358 510.297C267.529 510.642 267.859 510.882 268.241 510.938L270.661 511.289L268.91 512.997Z" fill="white"/>
</g>
<path d="M41.7296 66.4C42.8936 66.4 43.8596 66.79 44.6276 67.57C45.4076 68.338 45.7976 69.298 45.7976 70.45C45.7976 71.59 45.4076 72.55 44.6276 73.33C43.8596 74.11 42.8936 74.5 41.7296 74.5H38.8316V79H37.1576V66.4H41.7296ZM41.7296 72.934C42.4256 72.934 43.0016 72.7 43.4576 72.232C43.9136 71.752 44.1416 71.158 44.1416 70.45C44.1416 69.73 43.9136 69.136 43.4576 68.668C43.0016 68.2 42.4256 67.966 41.7296 67.966H38.8316V72.934H41.7296ZM48.9854 71.512C49.5014 70.396 50.4374 69.838 51.7934 69.838V71.476C51.0254 71.44 50.3654 71.644 49.8134 72.088C49.2614 72.532 48.9854 73.246 48.9854 74.23V79H47.4194V70H48.9854V71.512ZM60.4295 77.866C59.5055 78.778 58.3835 79.234 57.0635 79.234C55.7435 79.234 54.6215 78.778 53.6975 77.866C52.7855 76.954 52.3295 75.832 52.3295 74.5C52.3295 73.168 52.7855 72.046 53.6975 71.134C54.6215 70.222 55.7435 69.766 57.0635 69.766C58.3835 69.766 59.5055 70.222 60.4295 71.134C61.3535 72.046 61.8155 73.168 61.8155 74.5C61.8155 75.832 61.3535 76.954 60.4295 77.866ZM57.0635 77.704C57.9635 77.704 58.7195 77.398 59.3315 76.786C59.9435 76.174 60.2495 75.412 60.2495 74.5C60.2495 73.588 59.9435 72.826 59.3315 72.214C58.7195 71.602 57.9635 71.296 57.0635 71.296C56.1755 71.296 55.4255 71.602 54.8135 72.214C54.2015 72.826 53.8955 73.588 53.8955 74.5C53.8955 75.412 54.2015 76.174 54.8135 76.786C55.4255 77.398 56.1755 77.704 57.0635 77.704ZM67.9536 67.678C66.3696 67.546 65.5776 68.23 65.5776 69.73V70H67.9536V71.512H65.5776V79H64.0116V71.512H62.5716V70H64.0116V69.73C64.0116 68.518 64.3476 67.6 65.0196 66.976C65.7036 66.352 66.6816 66.082 67.9536 66.166V67.678ZM69.7518 75.22C69.9078 76.024 70.2738 76.648 70.8498 77.092C71.4378 77.536 72.1578 77.758 73.0098 77.758C74.1978 77.758 75.0618 77.32 75.6018 76.444L76.9338 77.2C76.0578 78.556 74.7378 79.234 72.9738 79.234C71.5458 79.234 70.3818 78.79 69.4818 77.902C68.5938 77.002 68.1498 75.868 68.1498 74.5C68.1498 73.144 68.5878 72.016 69.4638 71.116C70.3398 70.216 71.4738 69.766 72.8658 69.766C74.1858 69.766 75.2598 70.234 76.0878 71.17C76.9278 72.094 77.3478 73.21 77.3478 74.518C77.3478 74.746 77.3298 74.98 77.2938 75.22H69.7518ZM72.8658 71.242C72.0258 71.242 71.3298 71.482 70.7778 71.962C70.2258 72.43 69.8838 73.06 69.7518 73.852H75.7638C75.6318 73 75.2958 72.352 74.7558 71.908C74.2158 71.464 73.5858 71.242 72.8658 71.242ZM80.1464 72.43C80.1464 72.778 80.3204 73.06 80.6684 73.276C81.0164 73.48 81.4364 73.648 81.9284 73.78C82.4204 73.9 82.9124 74.044 83.4044 74.212C83.8964 74.368 84.3164 74.644 84.6644 75.04C85.0124 75.424 85.1864 75.922 85.1864 76.534C85.1864 77.35 84.8684 78.004 84.2324 78.496C83.6084 78.988 82.8044 79.234 81.8204 79.234C80.9444 79.234 80.1944 79.042 79.5704 78.658C78.9464 78.274 78.5024 77.764 78.2384 77.128L79.5884 76.354C79.7324 76.786 80.0024 77.128 80.3984 77.38C80.7944 77.632 81.2684 77.758 81.8204 77.758C82.3364 77.758 82.7624 77.662 83.0984 77.47C83.4344 77.266 83.6024 76.954 83.6024 76.534C83.6024 76.186 83.4284 75.91 83.0804 75.706C82.7324 75.49 82.3124 75.322 81.8204 75.202C81.3284 75.07 80.8364 74.92 80.3444 74.752C79.8524 74.584 79.4324 74.308 79.0844 73.924C78.7364 73.54 78.5624 73.048 78.5624 72.448C78.5624 71.668 78.8624 71.026 79.4624 70.522C80.0744 70.018 80.8364 69.766 81.7484 69.766C82.4804 69.766 83.1284 69.934 83.6924 70.27C84.2684 70.594 84.7004 71.05 84.9884 71.638L83.6744 72.376C83.3504 71.608 82.7084 71.224 81.7484 71.224C81.3044 71.224 80.9264 71.332 80.6144 71.548C80.3024 71.752 80.1464 72.046 80.1464 72.43ZM87.828 72.43C87.828 72.778 88.002 73.06 88.35 73.276C88.698 73.48 89.118 73.648 89.61 73.78C90.102 73.9 90.594 74.044 91.086 74.212C91.578 74.368 91.998 74.644 92.346 75.04C92.694 75.424 92.868 75.922 92.868 76.534C92.868 77.35 92.55 78.004 91.914 78.496C91.29 78.988 90.486 79.234 89.502 79.234C88.626 79.234 87.876 79.042 87.252 78.658C86.628 78.274 86.184 77.764 85.92 77.128L87.27 76.354C87.414 76.786 87.684 77.128 88.08 77.38C88.476 77.632 88.95 77.758 89.502 77.758C90.018 77.758 90.444 77.662 90.78 77.47C91.116 77.266 91.284 76.954 91.284 76.534C91.284 76.186 91.11 75.91 90.762 75.706C90.414 75.49 89.994 75.322 89.502 75.202C89.01 75.07 88.518 74.92 88.026 74.752C87.534 74.584 87.114 74.308 86.766 73.924C86.418 73.54 86.244 73.048 86.244 72.448C86.244 71.668 86.544 71.026 87.144 70.522C87.756 70.018 88.518 69.766 89.43 69.766C90.162 69.766 90.81 69.934 91.374 70.27C91.95 70.594 92.382 71.05 92.67 71.638L91.356 72.376C91.032 71.608 90.39 71.224 89.43 71.224C88.986 71.224 88.608 71.332 88.296 71.548C87.984 71.752 87.828 72.046 87.828 72.43ZM95.4263 68.362C95.1263 68.362 94.8743 68.26 94.6703 68.056C94.4663 67.852 94.3643 67.606 94.3643 67.318C94.3643 67.03 94.4663 66.784 94.6703 66.58C94.8743 66.364 95.1263 66.256 95.4263 66.256C95.7143 66.256 95.9603 66.364 96.1643 66.58C96.3683 66.784 96.4703 67.03 96.4703 67.318C96.4703 67.606 96.3683 67.852 96.1643 68.056C95.9603 68.26 95.7143 68.362 95.4263 68.362ZM94.6343 79V70H96.2003V79H94.6343ZM106.185 77.866C105.261 78.778 104.139 79.234 102.819 79.234C101.499 79.234 100.377 78.778 99.4534 77.866C98.5414 76.954 98.0854 75.832 98.0854 74.5C98.0854 73.168 98.5414 72.046 99.4534 71.134C100.377 70.222 101.499 69.766 102.819 69.766C104.139 69.766 105.261 70.222 106.185 71.134C107.109 72.046 107.571 73.168 107.571 74.5C107.571 75.832 107.109 76.954 106.185 77.866ZM102.819 77.704C103.719 77.704 104.475 77.398 105.087 76.786C105.699 76.174 106.005 75.412 106.005 74.5C106.005 73.588 105.699 72.826 105.087 72.214C104.475 71.602 103.719 71.296 102.819 71.296C101.931 71.296 101.181 71.602 100.569 72.214C99.9574 72.826 99.6514 73.588 99.6514 74.5C99.6514 75.412 99.9574 76.174 100.569 76.786C101.181 77.398 101.931 77.704 102.819 77.704ZM113.899 69.766C114.955 69.766 115.801 70.102 116.437 70.774C117.073 71.434 117.391 72.334 117.391 73.474V79H115.825V73.564C115.825 72.832 115.627 72.268 115.231 71.872C114.835 71.464 114.289 71.26 113.593 71.26C112.813 71.26 112.183 71.506 111.703 71.998C111.223 72.478 110.983 73.222 110.983 74.23V79H109.417V70H110.983V71.296C111.619 70.276 112.591 69.766 113.899 69.766ZM127.03 70H128.596V79H127.03V77.452C126.25 78.64 125.116 79.234 123.628 79.234C122.368 79.234 121.294 78.778 120.406 77.866C119.518 76.942 119.074 75.82 119.074 74.5C119.074 73.18 119.518 72.064 120.406 71.152C121.294 70.228 122.368 69.766 123.628 69.766C125.116 69.766 126.25 70.36 127.03 71.548V70ZM123.826 77.722C124.738 77.722 125.5 77.416 126.112 76.804C126.724 76.18 127.03 75.412 127.03 74.5C127.03 73.588 126.724 72.826 126.112 72.214C125.5 71.59 124.738 71.278 123.826 71.278C122.926 71.278 122.17 71.59 121.558 72.214C120.946 72.826 120.64 73.588 120.64 74.5C120.64 75.412 120.946 76.18 121.558 76.804C122.17 77.416 122.926 77.722 123.826 77.722ZM130.968 79V65.86H132.534V79H130.968ZM135.715 68.362C135.415 68.362 135.163 68.26 134.959 68.056C134.755 67.852 134.653 67.606 134.653 67.318C134.653 67.03 134.755 66.784 134.959 66.58C135.163 66.364 135.415 66.256 135.715 66.256C136.003 66.256 136.249 66.364 136.453 66.58C136.657 66.784 136.759 67.03 136.759 67.318C136.759 67.606 136.657 67.852 136.453 68.056C136.249 68.26 136.003 68.362 135.715 68.362ZM134.923 79V70H136.489V79H134.923ZM140.211 72.43C140.211 72.778 140.385 73.06 140.733 73.276C141.081 73.48 141.501 73.648 141.993 73.78C142.485 73.9 142.977 74.044 143.469 74.212C143.961 74.368 144.381 74.644 144.729 75.04C145.077 75.424 145.251 75.922 145.251 76.534C145.251 77.35 144.933 78.004 144.297 78.496C143.673 78.988 142.869 79.234 141.885 79.234C141.009 79.234 140.259 79.042 139.635 78.658C139.011 78.274 138.567 77.764 138.303 77.128L139.653 76.354C139.797 76.786 140.067 77.128 140.463 77.38C140.859 77.632 141.333 77.758 141.885 77.758C142.401 77.758 142.827 77.662 143.163 77.47C143.499 77.266 143.667 76.954 143.667 76.534C143.667 76.186 143.493 75.91 143.145 75.706C142.797 75.49 142.377 75.322 141.885 75.202C141.393 75.07 140.901 74.92 140.409 74.752C139.917 74.584 139.497 74.308 139.149 73.924C138.801 73.54 138.627 73.048 138.627 72.448C138.627 71.668 138.927 71.026 139.527 70.522C140.139 70.018 140.901 69.766 141.813 69.766C142.545 69.766 143.193 69.934 143.757 70.27C144.333 70.594 144.765 71.05 145.053 71.638L143.739 72.376C143.415 71.608 142.773 71.224 141.813 71.224C141.369 71.224 140.991 71.332 140.679 71.548C140.367 71.752 140.211 72.046 140.211 72.43ZM156.825 69.766C157.833 69.766 158.649 70.096 159.273 70.756C159.897 71.404 160.209 72.286 160.209 73.402V79H158.643V73.456C158.643 72.76 158.463 72.22 158.103 71.836C157.743 71.452 157.263 71.26 156.663 71.26C155.991 71.26 155.451 71.488 155.043 71.944C154.647 72.388 154.449 73.072 154.449 73.996V79H152.883V73.456C152.883 72.76 152.709 72.22 152.361 71.836C152.025 71.452 151.563 71.26 150.975 71.26C150.315 71.26 149.763 71.488 149.319 71.944C148.887 72.4 148.671 73.084 148.671 73.996V79H147.105V70H148.671V71.206C149.283 70.246 150.177 69.766 151.353 69.766C152.565 69.766 153.447 70.276 153.999 71.296C154.623 70.276 155.565 69.766 156.825 69.766Z" fill="#323232"/>
<path d="M103.397 241.4V242.984H99.6714V254H98.0154V242.984H94.3074V241.4H103.397ZM104.355 250.22C104.511 251.024 104.877 251.648 105.453 252.092C106.041 252.536 106.761 252.758 107.613 252.758C108.801 252.758 109.665 252.32 110.205 251.444L111.537 252.2C110.661 253.556 109.341 254.234 107.577 254.234C106.149 254.234 104.985 253.79 104.085 252.902C103.197 252.002 102.753 250.868 102.753 249.5C102.753 248.144 103.191 247.016 104.067 246.116C104.943 245.216 106.077 244.766 107.469 244.766C108.789 244.766 109.863 245.234 110.691 246.17C111.531 247.094 111.951 248.21 111.951 249.518C111.951 249.746 111.933 249.98 111.897 250.22H104.355ZM107.469 246.242C106.629 246.242 105.933 246.482 105.381 246.962C104.829 247.43 104.487 248.06 104.355 248.852H110.367C110.235 248 109.899 247.352 109.359 246.908C108.819 246.464 108.189 246.242 107.469 246.242ZM121.186 245H122.752V254H121.186V252.452C120.406 253.64 119.272 254.234 117.784 254.234C116.524 254.234 115.45 253.778 114.562 252.866C113.674 251.942 113.23 250.82 113.23 249.5C113.23 248.18 113.674 247.064 114.562 246.152C115.45 245.228 116.524 244.766 117.784 244.766C119.272 244.766 120.406 245.36 121.186 246.548V245ZM117.982 252.722C118.894 252.722 119.656 252.416 120.268 251.804C120.88 251.18 121.186 250.412 121.186 249.5C121.186 248.588 120.88 247.826 120.268 247.214C119.656 246.59 118.894 246.278 117.982 246.278C117.082 246.278 116.326 246.59 115.714 247.214C115.102 247.826 114.796 248.588 114.796 249.5C114.796 250.412 115.102 251.18 115.714 251.804C116.326 252.416 117.082 252.722 117.982 252.722ZM134.845 244.766C135.853 244.766 136.669 245.096 137.293 245.756C137.917 246.404 138.229 247.286 138.229 248.402V254H136.663V248.456C136.663 247.76 136.483 247.22 136.123 246.836C135.763 246.452 135.283 246.26 134.683 246.26C134.011 246.26 133.471 246.488 133.063 246.944C132.667 247.388 132.469 248.072 132.469 248.996V254H130.903V248.456C130.903 247.76 130.729 247.22 130.381 246.836C130.045 246.452 129.583 246.26 128.995 246.26C128.335 246.26 127.783 246.488 127.339 246.944C126.907 247.4 126.691 248.084 126.691 248.996V254H125.125V245H126.691V246.206C127.303 245.246 128.197 244.766 129.373 244.766C130.585 244.766 131.467 245.276 132.019 246.296C132.643 245.276 133.585 244.766 134.845 244.766ZM155.502 245H157.14L154.35 254H152.748L150.642 247.34L148.536 254H146.934L144.144 245H145.782L147.762 251.84L149.886 245H151.398L153.522 251.858L155.502 245ZM165.996 252.866C165.072 253.778 163.95 254.234 162.63 254.234C161.31 254.234 160.188 253.778 159.264 252.866C158.352 251.954 157.896 250.832 157.896 249.5C157.896 248.168 158.352 247.046 159.264 246.134C160.188 245.222 161.31 244.766 162.63 244.766C163.95 244.766 165.072 245.222 165.996 246.134C166.92 247.046 167.382 248.168 167.382 249.5C167.382 250.832 166.92 251.954 165.996 252.866ZM162.63 252.704C163.53 252.704 164.286 252.398 164.898 251.786C165.51 251.174 165.816 250.412 165.816 249.5C165.816 248.588 165.51 247.826 164.898 247.214C164.286 246.602 163.53 246.296 162.63 246.296C161.742 246.296 160.992 246.602 160.38 247.214C159.768 247.826 159.462 248.588 159.462 249.5C159.462 250.412 159.768 251.174 160.38 251.786C160.992 252.398 161.742 252.704 162.63 252.704ZM170.794 246.512C171.31 245.396 172.246 244.838 173.602 244.838V246.476C172.834 246.44 172.174 246.644 171.622 247.088C171.07 247.532 170.794 248.246 170.794 249.23V254H169.228V245H170.794V246.512ZM182.748 254H180.804L176.7 249.734V254H175.134V241.4H176.7V248.978L180.588 245H182.604L178.302 249.356L182.748 254Z" fill="#323232"/>
<path d="M317.092 236.234C315.916 236.234 314.908 235.958 314.068 235.406C313.24 234.854 312.658 234.098 312.322 233.138L313.762 232.31C314.254 233.834 315.376 234.596 317.128 234.596C317.992 234.596 318.652 234.422 319.108 234.074C319.564 233.714 319.792 233.24 319.792 232.652C319.792 232.052 319.564 231.602 319.108 231.302C318.652 231.002 317.89 230.684 316.822 230.348C316.294 230.18 315.892 230.048 315.616 229.952C315.34 229.844 314.992 229.688 314.572 229.484C314.164 229.268 313.858 229.052 313.654 228.836C313.45 228.608 313.264 228.314 313.096 227.954C312.94 227.594 312.862 227.186 312.862 226.73C312.862 225.638 313.246 224.774 314.014 224.138C314.782 223.49 315.718 223.166 316.822 223.166C317.818 223.166 318.682 223.418 319.414 223.922C320.158 224.426 320.716 225.092 321.088 225.92L319.684 226.73C319.144 225.434 318.19 224.786 316.822 224.786C316.138 224.786 315.586 224.954 315.166 225.29C314.746 225.626 314.536 226.082 314.536 226.658C314.536 227.21 314.734 227.63 315.13 227.918C315.526 228.206 316.21 228.506 317.182 228.818C317.53 228.926 317.776 229.004 317.92 229.052C318.064 229.1 318.286 229.184 318.586 229.304C318.898 229.424 319.126 229.52 319.27 229.592C319.414 229.664 319.606 229.766 319.846 229.898C320.098 230.03 320.284 230.156 320.404 230.276C320.524 230.396 320.662 230.546 320.818 230.726C320.986 230.894 321.106 231.068 321.178 231.248C321.25 231.428 321.31 231.638 321.358 231.878C321.418 232.106 321.448 232.352 321.448 232.616C321.448 233.72 321.046 234.602 320.242 235.262C319.438 235.91 318.388 236.234 317.092 236.234ZM327.9 228.512H325.506V233.39C325.506 233.834 325.59 234.152 325.758 234.344C325.938 234.524 326.208 234.62 326.568 234.632C326.928 234.632 327.372 234.62 327.9 234.596V236C326.532 236.18 325.53 236.072 324.894 235.676C324.258 235.268 323.94 234.506 323.94 233.39V228.512H322.158V227H323.94V224.948L325.506 224.48V227H327.9V228.512ZM331.373 228.512C331.889 227.396 332.825 226.838 334.181 226.838V228.476C333.413 228.44 332.753 228.644 332.201 229.088C331.649 229.532 331.373 230.246 331.373 231.23V236H329.807V227H331.373V228.512ZM342.817 234.866C341.893 235.778 340.771 236.234 339.451 236.234C338.131 236.234 337.009 235.778 336.085 234.866C335.173 233.954 334.717 232.832 334.717 231.5C334.717 230.168 335.173 229.046 336.085 228.134C337.009 227.222 338.131 226.766 339.451 226.766C340.771 226.766 341.893 227.222 342.817 228.134C343.741 229.046 344.203 230.168 344.203 231.5C344.203 232.832 343.741 233.954 342.817 234.866ZM339.451 234.704C340.351 234.704 341.107 234.398 341.719 233.786C342.331 233.174 342.637 232.412 342.637 231.5C342.637 230.588 342.331 229.826 341.719 229.214C341.107 228.602 340.351 228.296 339.451 228.296C338.563 228.296 337.813 228.602 337.201 229.214C336.589 229.826 336.283 230.588 336.283 231.5C336.283 232.412 336.589 233.174 337.201 233.786C337.813 234.398 338.563 234.704 339.451 234.704ZM350.531 226.766C351.587 226.766 352.433 227.102 353.069 227.774C353.705 228.434 354.023 229.334 354.023 230.474V236H352.457V230.564C352.457 229.832 352.259 229.268 351.863 228.872C351.467 228.464 350.921 228.26 350.225 228.26C349.445 228.26 348.815 228.506 348.335 228.998C347.855 229.478 347.615 230.222 347.615 231.23V236H346.049V227H347.615V228.296C348.251 227.276 349.223 226.766 350.531 226.766ZM363.679 227H365.227V235.622C365.227 236.954 364.777 237.986 363.877 238.718C362.977 239.462 361.897 239.834 360.637 239.834C359.629 239.834 358.759 239.642 358.027 239.258C357.295 238.886 356.743 238.346 356.371 237.638L357.739 236.864C358.231 237.872 359.209 238.376 360.673 238.376C361.609 238.376 362.341 238.13 362.869 237.638C363.409 237.146 363.679 236.474 363.679 235.622V234.344C362.887 235.544 361.759 236.144 360.295 236.144C359.011 236.144 357.925 235.688 357.037 234.776C356.149 233.864 355.705 232.754 355.705 231.446C355.705 230.138 356.149 229.034 357.037 228.134C357.925 227.222 359.011 226.766 360.295 226.766C361.771 226.766 362.899 227.36 363.679 228.548V227ZM358.189 233.732C358.801 234.344 359.563 234.65 360.475 234.65C361.387 234.65 362.149 234.344 362.761 233.732C363.373 233.12 363.679 232.358 363.679 231.446C363.679 230.546 363.373 229.79 362.761 229.178C362.149 228.566 361.387 228.26 360.475 228.26C359.563 228.26 358.801 228.566 358.189 229.178C357.577 229.79 357.271 230.546 357.271 231.446C357.271 232.358 357.577 233.12 358.189 233.732ZM379.552 227H381.118V236H379.552V234.452C378.772 235.64 377.638 236.234 376.15 236.234C374.89 236.234 373.816 235.778 372.928 234.866C372.04 233.942 371.596 232.82 371.596 231.5C371.596 230.18 372.04 229.064 372.928 228.152C373.816 227.228 374.89 226.766 376.15 226.766C377.638 226.766 378.772 227.36 379.552 228.548V227ZM376.348 234.722C377.26 234.722 378.022 234.416 378.634 233.804C379.246 233.18 379.552 232.412 379.552 231.5C379.552 230.588 379.246 229.826 378.634 229.214C378.022 228.59 377.26 228.278 376.348 228.278C375.448 228.278 374.692 228.59 374.08 229.214C373.468 229.826 373.162 230.588 373.162 231.5C373.162 232.412 373.468 233.18 374.08 233.804C374.692 234.416 375.448 234.722 376.348 234.722ZM387.973 226.766C389.029 226.766 389.875 227.102 390.511 227.774C391.147 228.434 391.465 229.334 391.465 230.474V236H389.899V230.564C389.899 229.832 389.701 229.268 389.305 228.872C388.909 228.464 388.363 228.26 387.667 228.26C386.887 228.26 386.257 228.506 385.777 228.998C385.297 229.478 385.057 230.222 385.057 231.23V236H383.491V227H385.057V228.296C385.693 227.276 386.665 226.766 387.973 226.766ZM401.103 227H402.669V236H401.103V234.452C400.323 235.64 399.189 236.234 397.701 236.234C396.441 236.234 395.367 235.778 394.479 234.866C393.591 233.942 393.147 232.82 393.147 231.5C393.147 230.18 393.591 229.064 394.479 228.152C395.367 227.228 396.441 226.766 397.701 226.766C399.189 226.766 400.323 227.36 401.103 228.548V227ZM397.899 234.722C398.811 234.722 399.573 234.416 400.185 233.804C400.797 233.18 401.103 232.412 401.103 231.5C401.103 230.588 400.797 229.826 400.185 229.214C399.573 228.59 398.811 228.278 397.899 228.278C396.999 228.278 396.243 228.59 395.631 229.214C395.019 229.826 394.713 230.588 394.713 231.5C394.713 232.412 395.019 233.18 395.631 233.804C396.243 234.416 396.999 234.722 397.899 234.722ZM405.042 236V222.86H406.608V236H405.042ZM415.279 227H416.953L413.281 236.558C412.897 237.578 412.357 238.352 411.661 238.88C410.977 239.42 410.185 239.66 409.285 239.6V238.142C410.389 238.226 411.199 237.614 411.715 236.306L411.877 235.964L407.953 227H409.627L412.687 234.056L415.279 227ZM423.156 228.512H420.762V233.39C420.762 233.834 420.846 234.152 421.014 234.344C421.194 234.524 421.464 234.62 421.824 234.632C422.184 234.632 422.628 234.62 423.156 234.596V236C421.788 236.18 420.786 236.072 420.15 235.676C419.514 235.268 419.196 234.506 419.196 233.39V228.512H417.414V227H419.196V224.948L420.762 224.48V227H423.156V228.512ZM425.802 225.362C425.502 225.362 425.25 225.26 425.046 225.056C424.842 224.852 424.74 224.606 424.74 224.318C424.74 224.03 424.842 223.784 425.046 223.58C425.25 223.364 425.502 223.256 425.802 223.256C426.09 223.256 426.336 223.364 426.54 223.58C426.744 223.784 426.846 224.03 426.846 224.318C426.846 224.606 426.744 224.852 426.54 225.056C426.336 225.26 426.09 225.362 425.802 225.362ZM425.01 236V227H426.576V236H425.01ZM433.195 236.234C431.839 236.234 430.711 235.784 429.811 234.884C428.911 233.972 428.461 232.844 428.461 231.5C428.461 230.156 428.911 229.034 429.811 228.134C430.711 227.222 431.839 226.766 433.195 226.766C434.083 226.766 434.881 226.982 435.589 227.414C436.297 227.834 436.825 228.404 437.173 229.124L435.859 229.88C435.631 229.4 435.277 229.016 434.797 228.728C434.329 228.44 433.795 228.296 433.195 228.296C432.295 228.296 431.539 228.602 430.927 229.214C430.327 229.826 430.027 230.588 430.027 231.5C430.027 232.4 430.327 233.156 430.927 233.768C431.539 234.38 432.295 234.686 433.195 234.686C433.795 234.686 434.335 234.548 434.815 234.272C435.295 233.984 435.661 233.6 435.913 233.12L437.245 233.894C436.861 234.602 436.309 235.172 435.589 235.604C434.869 236.024 434.071 236.234 433.195 236.234ZM446.12 227H447.686V236H446.12V234.452C445.34 235.64 444.206 236.234 442.718 236.234C441.458 236.234 440.384 235.778 439.496 234.866C438.608 233.942 438.164 232.82 438.164 231.5C438.164 230.18 438.608 229.064 439.496 228.152C440.384 227.228 441.458 226.766 442.718 226.766C444.206 226.766 445.34 227.36 446.12 228.548V227ZM442.916 234.722C443.828 234.722 444.59 234.416 445.202 233.804C445.814 233.18 446.12 232.412 446.12 231.5C446.12 230.588 445.814 229.826 445.202 229.214C444.59 228.59 443.828 228.278 442.916 228.278C442.016 228.278 441.26 228.59 440.648 229.214C440.036 229.826 439.73 230.588 439.73 231.5C439.73 232.412 440.036 233.18 440.648 233.804C441.26 234.416 442.016 234.722 442.916 234.722ZM450.059 236V222.86H451.625V236H450.059ZM368.379 253.43C368.379 253.778 368.553 254.06 368.901 254.276C369.249 254.48 369.669 254.648 370.161 254.78C370.653 254.9 371.145 255.044 371.637 255.212C372.129 255.368 372.549 255.644 372.897 256.04C373.245 256.424 373.419 256.922 373.419 257.534C373.419 258.35 373.101 259.004 372.465 259.496C371.841 259.988 371.037 260.234 370.053 260.234C369.177 260.234 368.427 260.042 367.803 259.658C367.179 259.274 366.735 258.764 366.471 258.128L367.821 257.354C367.965 257.786 368.235 258.128 368.631 258.38C369.027 258.632 369.501 258.758 370.053 258.758C370.569 258.758 370.995 258.662 371.331 258.47C371.667 258.266 371.835 257.954 371.835 257.534C371.835 257.186 371.661 256.91 371.313 256.706C370.965 256.49 370.545 256.322 370.053 256.202C369.561 256.07 369.069 255.92 368.577 255.752C368.085 255.584 367.665 255.308 367.317 254.924C366.969 254.54 366.795 254.048 366.795 253.448C366.795 252.668 367.095 252.026 367.695 251.522C368.307 251.018 369.069 250.766 369.981 250.766C370.713 250.766 371.361 250.934 371.925 251.27C372.501 251.594 372.933 252.05 373.221 252.638L371.907 253.376C371.583 252.608 370.941 252.224 369.981 252.224C369.537 252.224 369.159 252.332 368.847 252.548C368.535 252.752 368.379 253.046 368.379 253.43ZM382.799 260H380.855L376.751 255.734V260H375.185V247.4H376.751V254.978L380.639 251H382.655L378.353 255.356L382.799 260ZM385.047 249.362C384.747 249.362 384.495 249.26 384.291 249.056C384.087 248.852 383.985 248.606 383.985 248.318C383.985 248.03 384.087 247.784 384.291 247.58C384.495 247.364 384.747 247.256 385.047 247.256C385.335 247.256 385.581 247.364 385.785 247.58C385.989 247.784 386.091 248.03 386.091 248.318C386.091 248.606 385.989 248.852 385.785 249.056C385.581 249.26 385.335 249.362 385.047 249.362ZM384.255 260V251H385.821V260H384.255ZM388.21 260V246.86H389.776V260H388.21ZM392.166 260V246.86H393.732V260H392.166ZM397.453 253.43C397.453 253.778 397.627 254.06 397.975 254.276C398.323 254.48 398.743 254.648 399.235 254.78C399.727 254.9 400.219 255.044 400.711 255.212C401.203 255.368 401.623 255.644 401.971 256.04C402.319 256.424 402.493 256.922 402.493 257.534C402.493 258.35 402.175 259.004 401.539 259.496C400.915 259.988 400.111 260.234 399.127 260.234C398.251 260.234 397.501 260.042 396.877 259.658C396.253 259.274 395.809 258.764 395.545 258.128L396.895 257.354C397.039 257.786 397.309 258.128 397.705 258.38C398.101 258.632 398.575 258.758 399.127 258.758C399.643 258.758 400.069 258.662 400.405 258.47C400.741 258.266 400.909 257.954 400.909 257.534C400.909 257.186 400.735 256.91 400.387 256.706C400.039 256.49 399.619 256.322 399.127 256.202C398.635 256.07 398.143 255.92 397.651 255.752C397.159 255.584 396.739 255.308 396.391 254.924C396.043 254.54 395.869 254.048 395.869 253.448C395.869 252.668 396.169 252.026 396.769 251.522C397.381 251.018 398.143 250.766 399.055 250.766C399.787 250.766 400.435 250.934 400.999 251.27C401.575 251.594 402.007 252.05 402.295 252.638L400.981 253.376C400.657 252.608 400.015 252.224 399.055 252.224C398.611 252.224 398.233 252.332 397.921 252.548C397.609 252.752 397.453 253.046 397.453 253.43Z" fill="#323232"/>
<path d="M223.404 427.416H229.254V429H221.73V416.4H229.164V417.984H223.404V421.854H228.714V423.42H223.404V427.416ZM238.925 429H237.089L234.569 425.598L232.031 429H230.195L233.651 424.374L230.393 420H232.247L234.569 423.132L236.891 420H238.727L235.487 424.356L238.925 429ZM243.974 429.234C242.618 429.234 241.49 428.784 240.59 427.884C239.69 426.972 239.24 425.844 239.24 424.5C239.24 423.156 239.69 422.034 240.59 421.134C241.49 420.222 242.618 419.766 243.974 419.766C244.862 419.766 245.66 419.982 246.368 420.414C247.076 420.834 247.604 421.404 247.952 422.124L246.638 422.88C246.41 422.4 246.056 422.016 245.576 421.728C245.108 421.44 244.574 421.296 243.974 421.296C243.074 421.296 242.318 421.602 241.706 422.214C241.106 422.826 240.806 423.588 240.806 424.5C240.806 425.4 241.106 426.156 241.706 426.768C242.318 427.38 243.074 427.686 243.974 427.686C244.574 427.686 245.114 427.548 245.594 427.272C246.074 426.984 246.44 426.6 246.692 426.12L248.024 426.894C247.64 427.602 247.088 428.172 246.368 428.604C245.648 429.024 244.85 429.234 243.974 429.234ZM250.545 425.22C250.701 426.024 251.067 426.648 251.643 427.092C252.231 427.536 252.951 427.758 253.803 427.758C254.991 427.758 255.855 427.32 256.395 426.444L257.727 427.2C256.851 428.556 255.531 429.234 253.767 429.234C252.339 429.234 251.175 428.79 250.275 427.902C249.387 427.002 248.943 425.868 248.943 424.5C248.943 423.144 249.381 422.016 250.257 421.116C251.133 420.216 252.267 419.766 253.659 419.766C254.979 419.766 256.053 420.234 256.881 421.17C257.721 422.094 258.141 423.21 258.141 424.518C258.141 424.746 258.123 424.98 258.087 425.22H250.545ZM253.659 421.242C252.819 421.242 252.123 421.482 251.571 421.962C251.019 422.43 250.677 423.06 250.545 423.852H256.557C256.425 423 256.089 422.352 255.549 421.908C255.009 421.464 254.379 421.242 253.659 421.242ZM259.941 429V415.86H261.507V429H259.941ZM263.896 429V415.86H265.462V429H263.896ZM268.949 425.22C269.105 426.024 269.471 426.648 270.047 427.092C270.635 427.536 271.355 427.758 272.207 427.758C273.395 427.758 274.259 427.32 274.799 426.444L276.131 427.2C275.255 428.556 273.935 429.234 272.171 429.234C270.743 429.234 269.579 428.79 268.679 427.902C267.791 427.002 267.347 425.868 267.347 424.5C267.347 423.144 267.785 422.016 268.661 421.116C269.537 420.216 270.671 419.766 272.063 419.766C273.383 419.766 274.457 420.234 275.285 421.17C276.125 422.094 276.545 423.21 276.545 424.518C276.545 424.746 276.527 424.98 276.491 425.22H268.949ZM272.063 421.242C271.223 421.242 270.527 421.482 269.975 421.962C269.423 422.43 269.081 423.06 268.949 423.852H274.961C274.829 423 274.493 422.352 273.953 421.908C273.413 421.464 272.783 421.242 272.063 421.242ZM282.827 419.766C283.883 419.766 284.729 420.102 285.365 420.774C286.001 421.434 286.319 422.334 286.319 423.474V429H284.753V423.564C284.753 422.832 284.555 422.268 284.159 421.872C283.763 421.464 283.217 421.26 282.521 421.26C281.741 421.26 281.111 421.506 280.631 421.998C280.151 422.478 279.911 423.222 279.911 424.23V429H278.345V420H279.911V421.296C280.547 420.276 281.519 419.766 282.827 419.766ZM293.401 421.512H291.007V426.39C291.007 426.834 291.091 427.152 291.259 427.344C291.439 427.524 291.709 427.62 292.069 427.632C292.429 427.632 292.873 427.62 293.401 427.596V429C292.033 429.18 291.031 429.072 290.395 428.676C289.759 428.268 289.441 427.506 289.441 426.39V421.512H287.659V420H289.441V417.948L291.007 417.48V420H293.401V421.512ZM215.558 443.766C216.818 443.766 217.892 444.228 218.78 445.152C219.668 446.064 220.112 447.18 220.112 448.5C220.112 449.82 219.668 450.942 218.78 451.866C217.892 452.778 216.818 453.234 215.558 453.234C214.07 453.234 212.936 452.64 212.156 451.452V453H210.59V440.4H212.156V445.548C212.936 444.36 214.07 443.766 215.558 443.766ZM215.36 451.722C216.26 451.722 217.016 451.416 217.628 450.804C218.24 450.18 218.546 449.412 218.546 448.5C218.546 447.588 218.24 446.826 217.628 446.214C217.016 445.59 216.26 445.278 215.36 445.278C214.448 445.278 213.686 445.59 213.074 446.214C212.462 446.826 212.156 447.588 212.156 448.5C212.156 449.412 212.462 450.18 213.074 450.804C213.686 451.416 214.448 451.722 215.36 451.722ZM229.433 444H230.999V453H229.433V451.452C228.653 452.64 227.519 453.234 226.031 453.234C224.771 453.234 223.697 452.778 222.809 451.866C221.921 450.942 221.477 449.82 221.477 448.5C221.477 447.18 221.921 446.064 222.809 445.152C223.697 444.228 224.771 443.766 226.031 443.766C227.519 443.766 228.653 444.36 229.433 445.548V444ZM226.229 451.722C227.141 451.722 227.903 451.416 228.515 450.804C229.127 450.18 229.433 449.412 229.433 448.5C229.433 447.588 229.127 446.826 228.515 446.214C227.903 445.59 227.141 445.278 226.229 445.278C225.329 445.278 224.573 445.59 223.961 446.214C223.349 446.826 223.043 447.588 223.043 448.5C223.043 449.412 223.349 450.18 223.961 450.804C224.573 451.416 225.329 451.722 226.229 451.722ZM237.602 453.234C236.246 453.234 235.118 452.784 234.218 451.884C233.318 450.972 232.868 449.844 232.868 448.5C232.868 447.156 233.318 446.034 234.218 445.134C235.118 444.222 236.246 443.766 237.602 443.766C238.49 443.766 239.288 443.982 239.996 444.414C240.704 444.834 241.232 445.404 241.58 446.124L240.266 446.88C240.038 446.4 239.684 446.016 239.204 445.728C238.736 445.44 238.202 445.296 237.602 445.296C236.702 445.296 235.946 445.602 235.334 446.214C234.734 446.826 234.434 447.588 234.434 448.5C234.434 449.4 234.734 450.156 235.334 450.768C235.946 451.38 236.702 451.686 237.602 451.686C238.202 451.686 238.742 451.548 239.222 451.272C239.702 450.984 240.068 450.6 240.32 450.12L241.652 450.894C241.268 451.602 240.716 452.172 239.996 452.604C239.276 453.024 238.478 453.234 237.602 453.234ZM250.812 453H248.868L244.764 448.734V453H243.198V440.4H244.764V447.978L248.652 444H250.668L246.366 448.356L250.812 453ZM258.912 444H260.46V452.622C260.46 453.954 260.01 454.986 259.11 455.718C258.21 456.462 257.13 456.834 255.87 456.834C254.862 456.834 253.992 456.642 253.26 456.258C252.528 455.886 251.976 455.346 251.604 454.638L252.972 453.864C253.464 454.872 254.442 455.376 255.906 455.376C256.842 455.376 257.574 455.13 258.102 454.638C258.642 454.146 258.912 453.474 258.912 452.622V451.344C258.12 452.544 256.992 453.144 255.528 453.144C254.244 453.144 253.158 452.688 252.27 451.776C251.382 450.864 250.938 449.754 250.938 448.446C250.938 447.138 251.382 446.034 252.27 445.134C253.158 444.222 254.244 443.766 255.528 443.766C257.004 443.766 258.132 444.36 258.912 445.548V444ZM253.422 450.732C254.034 451.344 254.796 451.65 255.708 451.65C256.62 451.65 257.382 451.344 257.994 450.732C258.606 450.12 258.912 449.358 258.912 448.446C258.912 447.546 258.606 446.79 257.994 446.178C257.382 445.566 256.62 445.26 255.708 445.26C254.796 445.26 254.034 445.566 253.422 446.178C252.81 446.79 252.504 447.546 252.504 448.446C252.504 449.358 252.81 450.12 253.422 450.732ZM264.399 445.512C264.915 444.396 265.851 443.838 267.207 443.838V445.476C266.439 445.44 265.779 445.644 265.227 446.088C264.675 446.532 264.399 447.246 264.399 448.23V453H262.833V444H264.399V445.512ZM275.843 451.866C274.919 452.778 273.797 453.234 272.477 453.234C271.157 453.234 270.035 452.778 269.111 451.866C268.199 450.954 267.743 449.832 267.743 448.5C267.743 447.168 268.199 446.046 269.111 445.134C270.035 444.222 271.157 443.766 272.477 443.766C273.797 443.766 274.919 444.222 275.843 445.134C276.767 446.046 277.229 447.168 277.229 448.5C277.229 449.832 276.767 450.954 275.843 451.866ZM272.477 451.704C273.377 451.704 274.133 451.398 274.745 450.786C275.357 450.174 275.663 449.412 275.663 448.5C275.663 447.588 275.357 446.826 274.745 446.214C274.133 445.602 273.377 445.296 272.477 445.296C271.589 445.296 270.839 445.602 270.227 446.214C269.615 446.826 269.309 447.588 269.309 448.5C269.309 449.412 269.615 450.174 270.227 450.786C270.839 451.398 271.589 451.704 272.477 451.704ZM285.285 444H286.851V453H285.285V451.704C284.649 452.724 283.677 453.234 282.369 453.234C281.313 453.234 280.467 452.904 279.831 452.244C279.195 451.572 278.877 450.666 278.877 449.526V444H280.443V449.436C280.443 450.168 280.641 450.738 281.037 451.146C281.433 451.542 281.979 451.74 282.675 451.74C283.455 451.74 284.085 451.5 284.565 451.02C285.045 450.528 285.285 449.778 285.285 448.77V444ZM293.717 443.766C294.773 443.766 295.619 444.102 296.255 444.774C296.891 445.434 297.209 446.334 297.209 447.474V453H295.643V447.564C295.643 446.832 295.445 446.268 295.049 445.872C294.653 445.464 294.107 445.26 293.411 445.26C292.631 445.26 292.001 445.506 291.521 445.998C291.041 446.478 290.801 447.222 290.801 448.23V453H289.235V444H290.801V445.296C291.437 444.276 292.409 443.766 293.717 443.766ZM306.847 440.4H308.413V453H306.847V451.452C306.067 452.64 304.933 453.234 303.445 453.234C302.185 453.234 301.111 452.778 300.223 451.866C299.335 450.942 298.891 449.82 298.891 448.5C298.891 447.18 299.335 446.064 300.223 445.152C301.111 444.228 302.185 443.766 303.445 443.766C304.933 443.766 306.067 444.36 306.847 445.548V440.4ZM303.643 451.722C304.555 451.722 305.317 451.416 305.929 450.804C306.541 450.18 306.847 449.412 306.847 448.5C306.847 447.588 306.541 446.826 305.929 446.214C305.317 445.59 304.555 445.278 303.643 445.278C302.743 445.278 301.987 445.59 301.375 446.214C300.763 446.826 300.457 447.588 300.457 448.5C300.457 449.412 300.763 450.18 301.375 450.804C301.987 451.416 302.743 451.722 303.643 451.722Z" fill="#323232"/>
<path d="M679.721 132.4H681.377V145H679.721V139.33H673.601V145H671.927V132.4H673.601V137.746H679.721V132.4ZM684.704 134.362C684.404 134.362 684.152 134.26 683.948 134.056C683.744 133.852 683.642 133.606 683.642 133.318C683.642 133.03 683.744 132.784 683.948 132.58C684.152 132.364 684.404 132.256 684.704 132.256C684.992 132.256 685.238 132.364 685.442 132.58C685.646 132.784 685.748 133.03 685.748 133.318C685.748 133.606 685.646 133.852 685.442 134.056C685.238 134.26 684.992 134.362 684.704 134.362ZM683.912 145V136H685.478V145H683.912ZM695.337 136H696.885V144.622C696.885 145.954 696.435 146.986 695.535 147.718C694.635 148.462 693.555 148.834 692.295 148.834C691.287 148.834 690.417 148.642 689.685 148.258C688.953 147.886 688.401 147.346 688.029 146.638L689.397 145.864C689.889 146.872 690.867 147.376 692.331 147.376C693.267 147.376 693.999 147.13 694.527 146.638C695.067 146.146 695.337 145.474 695.337 144.622V143.344C694.545 144.544 693.417 145.144 691.953 145.144C690.669 145.144 689.583 144.688 688.695 143.776C687.807 142.864 687.363 141.754 687.363 140.446C687.363 139.138 687.807 138.034 688.695 137.134C689.583 136.222 690.669 135.766 691.953 135.766C693.429 135.766 694.557 136.36 695.337 137.548V136ZM689.847 142.732C690.459 143.344 691.221 143.65 692.133 143.65C693.045 143.65 693.807 143.344 694.419 142.732C695.031 142.12 695.337 141.358 695.337 140.446C695.337 139.546 695.031 138.79 694.419 138.178C693.807 137.566 693.045 137.26 692.133 137.26C691.221 137.26 690.459 137.566 689.847 138.178C689.235 138.79 688.929 139.546 688.929 140.446C688.929 141.358 689.235 142.12 689.847 142.732ZM703.739 135.766C704.795 135.766 705.641 136.102 706.277 136.774C706.913 137.434 707.231 138.334 707.231 139.474V145H705.665V139.564C705.665 138.832 705.467 138.268 705.071 137.872C704.675 137.464 704.129 137.26 703.433 137.26C702.653 137.26 702.023 137.506 701.543 137.998C701.063 138.478 700.823 139.222 700.823 140.23V145H699.257V132.4H700.823V137.296C701.459 136.276 702.431 135.766 703.739 135.766ZM710.515 141.22C710.671 142.024 711.037 142.648 711.613 143.092C712.201 143.536 712.921 143.758 713.773 143.758C714.961 143.758 715.825 143.32 716.365 142.444L717.697 143.2C716.821 144.556 715.501 145.234 713.737 145.234C712.309 145.234 711.145 144.79 710.245 143.902C709.357 143.002 708.913 141.868 708.913 140.5C708.913 139.144 709.351 138.016 710.227 137.116C711.103 136.216 712.237 135.766 713.629 135.766C714.949 135.766 716.023 136.234 716.851 137.17C717.691 138.094 718.111 139.21 718.111 140.518C718.111 140.746 718.093 140.98 718.057 141.22H710.515ZM713.629 137.242C712.789 137.242 712.093 137.482 711.541 137.962C710.989 138.43 710.647 139.06 710.515 139.852H716.527C716.395 139 716.059 138.352 715.519 137.908C714.979 137.464 714.349 137.242 713.629 137.242ZM721.478 137.512C721.994 136.396 722.93 135.838 724.286 135.838V137.476C723.518 137.44 722.858 137.644 722.306 138.088C721.754 138.532 721.478 139.246 721.478 140.23V145H719.912V136H721.478V137.512ZM735.286 135.766C736.546 135.766 737.62 136.228 738.508 137.152C739.396 138.064 739.84 139.18 739.84 140.5C739.84 141.82 739.396 142.942 738.508 143.866C737.62 144.778 736.546 145.234 735.286 145.234C733.798 145.234 732.664 144.64 731.884 143.452V148.6H730.318V136H731.884V137.548C732.664 136.36 733.798 135.766 735.286 135.766ZM735.088 143.722C735.988 143.722 736.744 143.416 737.356 142.804C737.968 142.18 738.274 141.412 738.274 140.5C738.274 139.588 737.968 138.826 737.356 138.214C736.744 137.59 735.988 137.278 735.088 137.278C734.176 137.278 733.414 137.59 732.802 138.214C732.19 138.826 731.884 139.588 731.884 140.5C731.884 141.412 732.19 142.18 732.802 142.804C733.414 143.416 734.176 143.722 735.088 143.722ZM743.275 137.512C743.791 136.396 744.727 135.838 746.083 135.838V137.476C745.315 137.44 744.655 137.644 744.103 138.088C743.551 138.532 743.275 139.246 743.275 140.23V145H741.709V136H743.275V137.512ZM754.719 143.866C753.795 144.778 752.673 145.234 751.353 145.234C750.033 145.234 748.911 144.778 747.987 143.866C747.075 142.954 746.619 141.832 746.619 140.5C746.619 139.168 747.075 138.046 747.987 137.134C748.911 136.222 750.033 135.766 751.353 135.766C752.673 135.766 753.795 136.222 754.719 137.134C755.643 138.046 756.105 139.168 756.105 140.5C756.105 141.832 755.643 142.954 754.719 143.866ZM751.353 143.704C752.253 143.704 753.009 143.398 753.621 142.786C754.233 142.174 754.539 141.412 754.539 140.5C754.539 139.588 754.233 138.826 753.621 138.214C753.009 137.602 752.253 137.296 751.353 137.296C750.465 137.296 749.715 137.602 749.103 138.214C748.491 138.826 748.185 139.588 748.185 140.5C748.185 141.412 748.491 142.174 749.103 142.786C749.715 143.398 750.465 143.704 751.353 143.704ZM764.763 136V145H763.197V137.512H759.867V145H758.301V137.512H756.861V136H758.301V135.73C758.301 133.354 759.615 132.166 762.243 132.166C762.735 132.166 763.353 132.244 764.097 132.4V133.822C763.365 133.726 762.747 133.678 762.243 133.678C761.427 133.678 760.827 133.834 760.443 134.146C760.059 134.446 759.867 134.974 759.867 135.73V136H764.763ZM767.162 145V131.86H768.728V145H767.162ZM772.215 141.22C772.371 142.024 772.737 142.648 773.313 143.092C773.901 143.536 774.621 143.758 775.473 143.758C776.661 143.758 777.525 143.32 778.065 142.444L779.397 143.2C778.521 144.556 777.201 145.234 775.437 145.234C774.009 145.234 772.845 144.79 771.945 143.902C771.057 143.002 770.613 141.868 770.613 140.5C770.613 139.144 771.051 138.016 771.927 137.116C772.803 136.216 773.937 135.766 775.329 135.766C776.649 135.766 777.723 136.234 778.551 137.17C779.391 138.094 779.811 139.21 779.811 140.518C779.811 140.746 779.793 140.98 779.757 141.22H772.215ZM775.329 137.242C774.489 137.242 773.793 137.482 773.241 137.962C772.689 138.43 772.347 139.06 772.215 139.852H778.227C778.095 139 777.759 138.352 777.219 137.908C776.679 137.464 776.049 137.242 775.329 137.242ZM685.379 165.22C685.535 166.024 685.901 166.648 686.477 167.092C687.065 167.536 687.785 167.758 688.637 167.758C689.825 167.758 690.689 167.32 691.229 166.444L692.561 167.2C691.685 168.556 690.365 169.234 688.601 169.234C687.173 169.234 686.009 168.79 685.109 167.902C684.221 167.002 683.777 165.868 683.777 164.5C683.777 163.144 684.215 162.016 685.091 161.116C685.967 160.216 687.101 159.766 688.493 159.766C689.813 159.766 690.887 160.234 691.715 161.17C692.555 162.094 692.975 163.21 692.975 164.518C692.975 164.746 692.957 164.98 692.921 165.22H685.379ZM688.493 161.242C687.653 161.242 686.957 161.482 686.405 161.962C685.853 162.43 685.511 163.06 685.379 163.852H691.391C691.259 163 690.923 162.352 690.383 161.908C689.843 161.464 689.213 161.242 688.493 161.242ZM702.209 156.4H703.775V169H702.209V167.452C701.429 168.64 700.295 169.234 698.807 169.234C697.547 169.234 696.473 168.778 695.585 167.866C694.697 166.942 694.253 165.82 694.253 164.5C694.253 163.18 694.697 162.064 695.585 161.152C696.473 160.228 697.547 159.766 698.807 159.766C700.295 159.766 701.429 160.36 702.209 161.548V156.4ZM699.005 167.722C699.917 167.722 700.679 167.416 701.291 166.804C701.903 166.18 702.209 165.412 702.209 164.5C702.209 163.588 701.903 162.826 701.291 162.214C700.679 161.59 699.917 161.278 699.005 161.278C698.105 161.278 697.349 161.59 696.737 162.214C696.125 162.826 695.819 163.588 695.819 164.5C695.819 165.412 696.125 166.18 696.737 166.804C697.349 167.416 698.105 167.722 699.005 167.722ZM712.358 160H713.924V169H712.358V167.704C711.722 168.724 710.75 169.234 709.442 169.234C708.386 169.234 707.54 168.904 706.904 168.244C706.268 167.572 705.95 166.666 705.95 165.526V160H707.516V165.436C707.516 166.168 707.714 166.738 708.11 167.146C708.506 167.542 709.052 167.74 709.748 167.74C710.528 167.74 711.158 167.5 711.638 167.02C712.118 166.528 712.358 165.778 712.358 164.77V160ZM720.538 169.234C719.182 169.234 718.054 168.784 717.154 167.884C716.254 166.972 715.804 165.844 715.804 164.5C715.804 163.156 716.254 162.034 717.154 161.134C718.054 160.222 719.182 159.766 720.538 159.766C721.426 159.766 722.224 159.982 722.932 160.414C723.64 160.834 724.168 161.404 724.516 162.124L723.202 162.88C722.974 162.4 722.62 162.016 722.14 161.728C721.672 161.44 721.138 161.296 720.538 161.296C719.638 161.296 718.882 161.602 718.27 162.214C717.67 162.826 717.37 163.588 717.37 164.5C717.37 165.4 717.67 166.156 718.27 166.768C718.882 167.38 719.638 167.686 720.538 167.686C721.138 167.686 721.678 167.548 722.158 167.272C722.638 166.984 723.004 166.6 723.256 166.12L724.588 166.894C724.204 167.602 723.652 168.172 722.932 168.604C722.212 169.024 721.414 169.234 720.538 169.234ZM733.463 160H735.029V169H733.463V167.452C732.683 168.64 731.549 169.234 730.061 169.234C728.801 169.234 727.727 168.778 726.839 167.866C725.951 166.942 725.507 165.82 725.507 164.5C725.507 163.18 725.951 162.064 726.839 161.152C727.727 160.228 728.801 159.766 730.061 159.766C731.549 159.766 732.683 160.36 733.463 161.548V160ZM730.259 167.722C731.171 167.722 731.933 167.416 732.545 166.804C733.157 166.18 733.463 165.412 733.463 164.5C733.463 163.588 733.157 162.826 732.545 162.214C731.933 161.59 731.171 161.278 730.259 161.278C729.359 161.278 728.603 161.59 727.991 162.214C727.379 162.826 727.073 163.588 727.073 164.5C727.073 165.412 727.379 166.18 727.991 166.804C728.603 167.416 729.359 167.722 730.259 167.722ZM742.298 161.512H739.904V166.39C739.904 166.834 739.988 167.152 740.156 167.344C740.336 167.524 740.606 167.62 740.966 167.632C741.326 167.632 741.77 167.62 742.298 167.596V169C740.93 169.18 739.928 169.072 739.292 168.676C738.656 168.268 738.338 167.506 738.338 166.39V161.512H736.556V160H738.338V157.948L739.904 157.48V160H742.298V161.512ZM744.944 158.362C744.644 158.362 744.392 158.26 744.188 158.056C743.984 157.852 743.882 157.606 743.882 157.318C743.882 157.03 743.984 156.784 744.188 156.58C744.392 156.364 744.644 156.256 744.944 156.256C745.232 156.256 745.478 156.364 745.682 156.58C745.886 156.784 745.988 157.03 745.988 157.318C745.988 157.606 745.886 157.852 745.682 158.056C745.478 158.26 745.232 158.362 744.944 158.362ZM744.152 169V160H745.718V169H744.152ZM755.703 167.866C754.779 168.778 753.657 169.234 752.337 169.234C751.017 169.234 749.895 168.778 748.971 167.866C748.059 166.954 747.603 165.832 747.603 164.5C747.603 163.168 748.059 162.046 748.971 161.134C749.895 160.222 751.017 159.766 752.337 159.766C753.657 159.766 754.779 160.222 755.703 161.134C756.627 162.046 757.089 163.168 757.089 164.5C757.089 165.832 756.627 166.954 755.703 167.866ZM752.337 167.704C753.237 167.704 753.993 167.398 754.605 166.786C755.217 166.174 755.523 165.412 755.523 164.5C755.523 163.588 755.217 162.826 754.605 162.214C753.993 161.602 753.237 161.296 752.337 161.296C751.449 161.296 750.699 161.602 750.087 162.214C749.475 162.826 749.169 163.588 749.169 164.5C749.169 165.412 749.475 166.174 750.087 166.786C750.699 167.398 751.449 167.704 752.337 167.704ZM763.417 159.766C764.473 159.766 765.319 160.102 765.955 160.774C766.591 161.434 766.909 162.334 766.909 163.474V169H765.343V163.564C765.343 162.832 765.145 162.268 764.749 161.872C764.353 161.464 763.807 161.26 763.111 161.26C762.331 161.26 761.701 161.506 761.221 161.998C760.741 162.478 760.501 163.222 760.501 164.23V169H758.935V160H760.501V161.296C761.137 160.276 762.109 159.766 763.417 159.766Z" fill="#323232"/>
<path d="M766.05 378.4C767.766 378.4 769.188 379.012 770.316 380.236C771.456 381.448 772.026 382.936 772.026 384.7C772.026 386.464 771.456 387.958 770.316 389.182C769.188 390.394 767.766 391 766.05 391H761.136V378.4H766.05ZM766.05 389.416C767.334 389.416 768.384 388.966 769.2 388.066C770.016 387.166 770.424 386.044 770.424 384.7C770.424 383.356 770.016 382.234 769.2 381.334C768.384 380.434 767.334 379.984 766.05 379.984H762.81V389.416H766.05ZM774.992 387.22C775.148 388.024 775.514 388.648 776.09 389.092C776.678 389.536 777.398 389.758 778.25 389.758C779.438 389.758 780.302 389.32 780.842 388.444L782.174 389.2C781.298 390.556 779.978 391.234 778.214 391.234C776.786 391.234 775.622 390.79 774.722 389.902C773.834 389.002 773.39 387.868 773.39 386.5C773.39 385.144 773.828 384.016 774.704 383.116C775.58 382.216 776.714 381.766 778.106 381.766C779.426 381.766 780.5 382.234 781.328 383.17C782.168 384.094 782.588 385.21 782.588 386.518C782.588 386.746 782.57 386.98 782.534 387.22H774.992ZM778.106 383.242C777.266 383.242 776.57 383.482 776.018 383.962C775.466 384.43 775.124 385.06 774.992 385.852H781.004C780.872 385 780.536 384.352 779.996 383.908C779.456 383.464 778.826 383.242 778.106 383.242ZM790.337 382H792.029L788.429 391H786.593L782.993 382H784.685L787.511 389.326L790.337 382ZM794.099 387.22C794.255 388.024 794.621 388.648 795.197 389.092C795.785 389.536 796.505 389.758 797.357 389.758C798.545 389.758 799.409 389.32 799.949 388.444L801.281 389.2C800.405 390.556 799.085 391.234 797.321 391.234C795.893 391.234 794.729 390.79 793.829 389.902C792.941 389.002 792.497 387.868 792.497 386.5C792.497 385.144 792.935 384.016 793.811 383.116C794.687 382.216 795.821 381.766 797.213 381.766C798.533 381.766 799.607 382.234 800.435 383.17C801.275 384.094 801.695 385.21 801.695 386.518C801.695 386.746 801.677 386.98 801.641 387.22H794.099ZM797.213 383.242C796.373 383.242 795.677 383.482 795.125 383.962C794.573 384.43 794.231 385.06 794.099 385.852H800.111C799.979 385 799.643 384.352 799.103 383.908C798.563 383.464 797.933 383.242 797.213 383.242ZM803.496 391V377.86H805.062V391H803.496ZM815.047 389.866C814.123 390.778 813.001 391.234 811.681 391.234C810.361 391.234 809.239 390.778 808.315 389.866C807.403 388.954 806.947 387.832 806.947 386.5C806.947 385.168 807.403 384.046 808.315 383.134C809.239 382.222 810.361 381.766 811.681 381.766C813.001 381.766 814.123 382.222 815.047 383.134C815.971 384.046 816.433 385.168 816.433 386.5C816.433 387.832 815.971 388.954 815.047 389.866ZM811.681 389.704C812.581 389.704 813.337 389.398 813.949 388.786C814.561 388.174 814.867 387.412 814.867 386.5C814.867 385.588 814.561 384.826 813.949 384.214C813.337 383.602 812.581 383.296 811.681 383.296C810.793 383.296 810.043 383.602 809.431 384.214C808.819 384.826 808.513 385.588 808.513 386.5C808.513 387.412 808.819 388.174 809.431 388.786C810.043 389.398 810.793 389.704 811.681 389.704ZM823.247 381.766C824.507 381.766 825.581 382.228 826.469 383.152C827.357 384.064 827.801 385.18 827.801 386.5C827.801 387.82 827.357 388.942 826.469 389.866C825.581 390.778 824.507 391.234 823.247 391.234C821.759 391.234 820.625 390.64 819.845 389.452V394.6H818.279V382H819.845V383.548C820.625 382.36 821.759 381.766 823.247 381.766ZM823.049 389.722C823.949 389.722 824.705 389.416 825.317 388.804C825.929 388.18 826.235 387.412 826.235 386.5C826.235 385.588 825.929 384.826 825.317 384.214C824.705 383.59 823.949 383.278 823.049 383.278C822.137 383.278 821.375 383.59 820.763 384.214C820.151 384.826 819.845 385.588 819.845 386.5C819.845 387.412 820.151 388.18 820.763 388.804C821.375 389.416 822.137 389.722 823.049 389.722ZM839.389 381.766C840.397 381.766 841.213 382.096 841.837 382.756C842.461 383.404 842.773 384.286 842.773 385.402V391H841.207V385.456C841.207 384.76 841.027 384.22 840.667 383.836C840.307 383.452 839.827 383.26 839.227 383.26C838.555 383.26 838.015 383.488 837.607 383.944C837.211 384.388 837.013 385.072 837.013 385.996V391H835.447V385.456C835.447 384.76 835.273 384.22 834.925 383.836C834.589 383.452 834.127 383.26 833.539 383.26C832.879 383.26 832.327 383.488 831.883 383.944C831.451 384.4 831.235 385.084 831.235 385.996V391H829.669V382H831.235V383.206C831.847 382.246 832.741 381.766 833.917 381.766C835.129 381.766 836.011 382.276 836.563 383.296C837.187 382.276 838.129 381.766 839.389 381.766ZM846.043 387.22C846.199 388.024 846.565 388.648 847.141 389.092C847.729 389.536 848.449 389.758 849.301 389.758C850.489 389.758 851.353 389.32 851.893 388.444L853.225 389.2C852.349 390.556 851.029 391.234 849.265 391.234C847.837 391.234 846.673 390.79 845.773 389.902C844.885 389.002 844.441 387.868 844.441 386.5C844.441 385.144 844.879 384.016 845.755 383.116C846.631 382.216 847.765 381.766 849.157 381.766C850.477 381.766 851.551 382.234 852.379 383.17C853.219 384.094 853.639 385.21 853.639 386.518C853.639 386.746 853.621 386.98 853.585 387.22H846.043ZM849.157 383.242C848.317 383.242 847.621 383.482 847.069 383.962C846.517 384.43 846.175 385.06 846.043 385.852H852.055C851.923 385 851.587 384.352 851.047 383.908C850.507 383.464 849.877 383.242 849.157 383.242ZM859.921 381.766C860.977 381.766 861.823 382.102 862.459 382.774C863.095 383.434 863.413 384.334 863.413 385.474V391H861.847V385.564C861.847 384.832 861.649 384.268 861.253 383.872C860.857 383.464 860.311 383.26 859.615 383.26C858.835 383.26 858.205 383.506 857.725 383.998C857.245 384.478 857.005 385.222 857.005 386.23V391H855.439V382H857.005V383.296C857.641 382.276 858.613 381.766 859.921 381.766ZM870.495 383.512H868.101V388.39C868.101 388.834 868.185 389.152 868.353 389.344C868.533 389.524 868.803 389.62 869.163 389.632C869.523 389.632 869.967 389.62 870.495 389.596V391C869.127 391.18 868.125 391.072 867.489 390.676C866.853 390.268 866.535 389.506 866.535 388.39V383.512H864.753V382H866.535V379.948L868.101 379.48V382H870.495V383.512ZM799.379 408.43C799.379 408.778 799.553 409.06 799.901 409.276C800.249 409.48 800.669 409.648 801.161 409.78C801.653 409.9 802.145 410.044 802.637 410.212C803.129 410.368 803.549 410.644 803.897 411.04C804.245 411.424 804.419 411.922 804.419 412.534C804.419 413.35 804.101 414.004 803.465 414.496C802.841 414.988 802.037 415.234 801.053 415.234C800.177 415.234 799.427 415.042 798.803 414.658C798.179 414.274 797.735 413.764 797.471 413.128L798.821 412.354C798.965 412.786 799.235 413.128 799.631 413.38C800.027 413.632 800.501 413.758 801.053 413.758C801.569 413.758 801.995 413.662 802.331 413.47C802.667 413.266 802.835 412.954 802.835 412.534C802.835 412.186 802.661 411.91 802.313 411.706C801.965 411.49 801.545 411.322 801.053 411.202C800.561 411.07 800.069 410.92 799.577 410.752C799.085 410.584 798.665 410.308 798.317 409.924C797.969 409.54 797.795 409.048 797.795 408.448C797.795 407.668 798.095 407.026 798.695 406.522C799.307 406.018 800.069 405.766 800.981 405.766C801.713 405.766 802.361 405.934 802.925 406.27C803.501 406.594 803.933 407.05 804.221 407.638L802.907 408.376C802.583 407.608 801.941 407.224 800.981 407.224C800.537 407.224 800.159 407.332 799.847 407.548C799.535 407.752 799.379 408.046 799.379 408.43ZM813.799 415H811.855L807.751 410.734V415H806.185V402.4H807.751V409.978L811.639 406H813.655L809.353 410.356L813.799 415ZM816.047 404.362C815.747 404.362 815.495 404.26 815.291 404.056C815.087 403.852 814.985 403.606 814.985 403.318C814.985 403.03 815.087 402.784 815.291 402.58C815.495 402.364 815.747 402.256 816.047 402.256C816.335 402.256 816.581 402.364 816.785 402.58C816.989 402.784 817.091 403.03 817.091 403.318C817.091 403.606 816.989 403.852 816.785 404.056C816.581 404.26 816.335 404.362 816.047 404.362ZM815.255 415V406H816.821V415H815.255ZM819.21 415V401.86H820.776V415H819.21ZM823.166 415V401.86H824.732V415H823.166ZM828.453 408.43C828.453 408.778 828.627 409.06 828.975 409.276C829.323 409.48 829.743 409.648 830.235 409.78C830.727 409.9 831.219 410.044 831.711 410.212C832.203 410.368 832.623 410.644 832.971 411.04C833.319 411.424 833.493 411.922 833.493 412.534C833.493 413.35 833.175 414.004 832.539 414.496C831.915 414.988 831.111 415.234 830.127 415.234C829.251 415.234 828.501 415.042 827.877 414.658C827.253 414.274 826.809 413.764 826.545 413.128L827.895 412.354C828.039 412.786 828.309 413.128 828.705 413.38C829.101 413.632 829.575 413.758 830.127 413.758C830.643 413.758 831.069 413.662 831.405 413.47C831.741 413.266 831.909 412.954 831.909 412.534C831.909 412.186 831.735 411.91 831.387 411.706C831.039 411.49 830.619 411.322 830.127 411.202C829.635 411.07 829.143 410.92 828.651 410.752C828.159 410.584 827.739 410.308 827.391 409.924C827.043 409.54 826.869 409.048 826.869 408.448C826.869 407.668 827.169 407.026 827.769 406.522C828.381 406.018 829.143 405.766 830.055 405.766C830.787 405.766 831.435 405.934 831.999 406.27C832.575 406.594 833.007 407.05 833.295 407.638L831.981 408.376C831.657 407.608 831.015 407.224 830.055 407.224C829.611 407.224 829.233 407.332 828.921 407.548C828.609 407.752 828.453 408.046 828.453 408.43Z" fill="#323232"/>
<path d="M938.496 5.4C939.66 5.4 940.626 5.79 941.394 6.57C942.174 7.338 942.564 8.298 942.564 9.45C942.564 10.59 942.174 11.55 941.394 12.33C940.626 13.11 939.66 13.5 938.496 13.5H935.598V18H933.924V5.4H938.496ZM938.496 11.934C939.192 11.934 939.768 11.7 940.224 11.232C940.68 10.752 940.908 10.158 940.908 9.45C940.908 8.73 940.68 8.136 940.224 7.668C939.768 7.2 939.192 6.966 938.496 6.966H935.598V11.934H938.496ZM945.752 10.512C946.268 9.396 947.204 8.838 948.56 8.838V10.476C947.792 10.44 947.132 10.644 946.58 11.088C946.028 11.532 945.752 12.246 945.752 13.23V18H944.186V9H945.752V10.512ZM957.196 16.866C956.272 17.778 955.15 18.234 953.83 18.234C952.51 18.234 951.388 17.778 950.464 16.866C949.552 15.954 949.096 14.832 949.096 13.5C949.096 12.168 949.552 11.046 950.464 10.134C951.388 9.222 952.51 8.766 953.83 8.766C955.15 8.766 956.272 9.222 957.196 10.134C958.12 11.046 958.582 12.168 958.582 13.5C958.582 14.832 958.12 15.954 957.196 16.866ZM953.83 16.704C954.73 16.704 955.486 16.398 956.098 15.786C956.71 15.174 957.016 14.412 957.016 13.5C957.016 12.588 956.71 11.826 956.098 11.214C955.486 10.602 954.73 10.296 953.83 10.296C952.942 10.296 952.192 10.602 951.58 11.214C950.968 11.826 950.662 12.588 950.662 13.5C950.662 14.412 950.968 15.174 951.58 15.786C952.192 16.398 952.942 16.704 953.83 16.704ZM967.88 9H969.446V18H967.88V16.452C967.1 17.64 965.966 18.234 964.478 18.234C963.218 18.234 962.144 17.778 961.256 16.866C960.368 15.942 959.924 14.82 959.924 13.5C959.924 12.18 960.368 11.064 961.256 10.152C962.144 9.228 963.218 8.766 964.478 8.766C965.966 8.766 967.1 9.36 967.88 10.548V9ZM964.676 16.722C965.588 16.722 966.35 16.416 966.962 15.804C967.574 15.18 967.88 14.412 967.88 13.5C967.88 12.588 967.574 11.826 966.962 11.214C966.35 10.59 965.588 10.278 964.676 10.278C963.776 10.278 963.02 10.59 962.408 11.214C961.796 11.826 961.49 12.588 961.49 13.5C961.49 14.412 961.796 15.18 962.408 15.804C963.02 16.416 963.776 16.722 964.676 16.722ZM976.049 18.234C974.693 18.234 973.565 17.784 972.665 16.884C971.765 15.972 971.315 14.844 971.315 13.5C971.315 12.156 971.765 11.034 972.665 10.134C973.565 9.222 974.693 8.766 976.049 8.766C976.937 8.766 977.735 8.982 978.443 9.414C979.151 9.834 979.679 10.404 980.027 11.124L978.713 11.88C978.485 11.4 978.131 11.016 977.651 10.728C977.183 10.44 976.649 10.296 976.049 10.296C975.149 10.296 974.393 10.602 973.781 11.214C973.181 11.826 972.881 12.588 972.881 13.5C972.881 14.4 973.181 15.156 973.781 15.768C974.393 16.38 975.149 16.686 976.049 16.686C976.649 16.686 977.189 16.548 977.669 16.272C978.149 15.984 978.515 15.6 978.767 15.12L980.099 15.894C979.715 16.602 979.163 17.172 978.443 17.604C977.723 18.024 976.925 18.234 976.049 18.234ZM986.541 10.512H984.147V15.39C984.147 15.834 984.231 16.152 984.399 16.344C984.579 16.524 984.849 16.62 985.209 16.632C985.569 16.632 986.013 16.62 986.541 16.596V18C985.173 18.18 984.171 18.072 983.535 17.676C982.899 17.268 982.581 16.506 982.581 15.39V10.512H980.799V9H982.581V6.948L984.147 6.48V9H986.541V10.512ZM989.187 7.362C988.887 7.362 988.635 7.26 988.431 7.056C988.227 6.852 988.125 6.606 988.125 6.318C988.125 6.03 988.227 5.784 988.431 5.58C988.635 5.364 988.887 5.256 989.187 5.256C989.475 5.256 989.721 5.364 989.925 5.58C990.129 5.784 990.231 6.03 990.231 6.318C990.231 6.606 990.129 6.852 989.925 7.056C989.721 7.26 989.475 7.362 989.187 7.362ZM988.395 18V9H989.961V18H988.395ZM998.65 9H1000.34L996.742 18H994.906L991.306 9H992.998L995.824 16.326L998.65 9ZM1002.41 14.22C1002.57 15.024 1002.93 15.648 1003.51 16.092C1004.1 16.536 1004.82 16.758 1005.67 16.758C1006.86 16.758 1007.72 16.32 1008.26 15.444L1009.59 16.2C1008.72 17.556 1007.4 18.234 1005.63 18.234C1004.21 18.234 1003.04 17.79 1002.14 16.902C1001.25 16.002 1000.81 14.868 1000.81 13.5C1000.81 12.144 1001.25 11.016 1002.12 10.116C1003 9.216 1004.13 8.766 1005.53 8.766C1006.85 8.766 1007.92 9.234 1008.75 10.17C1009.59 11.094 1010.01 12.21 1010.01 13.518C1010.01 13.746 1009.99 13.98 1009.95 14.22H1002.41ZM1005.53 10.242C1004.69 10.242 1003.99 10.482 1003.44 10.962C1002.89 11.43 1002.54 12.06 1002.41 12.852H1008.42C1008.29 12 1007.96 11.352 1007.42 10.908C1006.88 10.464 1006.25 10.242 1005.53 10.242ZM1026.91 9H1028.55L1025.76 18H1024.16L1022.05 11.34L1019.95 18H1018.34L1015.55 9H1017.19L1019.17 15.84L1021.3 9H1022.81L1024.93 15.858L1026.91 9ZM1037.41 16.866C1036.48 17.778 1035.36 18.234 1034.04 18.234C1032.72 18.234 1031.6 17.778 1030.67 16.866C1029.76 15.954 1029.31 14.832 1029.31 13.5C1029.31 12.168 1029.76 11.046 1030.67 10.134C1031.6 9.222 1032.72 8.766 1034.04 8.766C1035.36 8.766 1036.48 9.222 1037.41 10.134C1038.33 11.046 1038.79 12.168 1038.79 13.5C1038.79 14.832 1038.33 15.954 1037.41 16.866ZM1034.04 16.704C1034.94 16.704 1035.7 16.398 1036.31 15.786C1036.92 15.174 1037.23 14.412 1037.23 13.5C1037.23 12.588 1036.92 11.826 1036.31 11.214C1035.7 10.602 1034.94 10.296 1034.04 10.296C1033.15 10.296 1032.4 10.602 1031.79 11.214C1031.18 11.826 1030.87 12.588 1030.87 13.5C1030.87 14.412 1031.18 15.174 1031.79 15.786C1032.4 16.398 1033.15 16.704 1034.04 16.704ZM1042.2 10.512C1042.72 9.396 1043.66 8.838 1045.01 8.838V10.476C1044.24 10.44 1043.58 10.644 1043.03 11.088C1042.48 11.532 1042.2 12.246 1042.2 13.23V18H1040.64V9H1042.2V10.512ZM1054.16 18H1052.21L1048.11 13.734V18H1046.54V5.4H1048.11V12.978L1052 9H1054.01L1049.71 13.356L1054.16 18ZM976.764 35.43C976.764 35.778 976.938 36.06 977.286 36.276C977.634 36.48 978.054 36.648 978.546 36.78C979.038 36.9 979.53 37.044 980.022 37.212C980.514 37.368 980.934 37.644 981.282 38.04C981.63 38.424 981.804 38.922 981.804 39.534C981.804 40.35 981.486 41.004 980.85 41.496C980.226 41.988 979.422 42.234 978.438 42.234C977.562 42.234 976.812 42.042 976.188 41.658C975.564 41.274 975.12 40.764 974.856 40.128L976.206 39.354C976.35 39.786 976.62 40.128 977.016 40.38C977.412 40.632 977.886 40.758 978.438 40.758C978.954 40.758 979.38 40.662 979.716 40.47C980.052 40.266 980.22 39.954 980.22 39.534C980.22 39.186 980.046 38.91 979.698 38.706C979.35 38.49 978.93 38.322 978.438 38.202C977.946 38.07 977.454 37.92 976.962 37.752C976.47 37.584 976.05 37.308 975.702 36.924C975.354 36.54 975.18 36.048 975.18 35.448C975.18 34.668 975.48 34.026 976.08 33.522C976.692 33.018 977.454 32.766 978.366 32.766C979.098 32.766 979.746 32.934 980.31 33.27C980.886 33.594 981.318 34.05 981.606 34.638L980.292 35.376C979.968 34.608 979.326 34.224 978.366 34.224C977.922 34.224 977.544 34.332 977.232 34.548C976.92 34.752 976.764 35.046 976.764 35.43ZM988.202 34.512H985.808V39.39C985.808 39.834 985.892 40.152 986.06 40.344C986.24 40.524 986.51 40.62 986.87 40.632C987.23 40.632 987.674 40.62 988.202 40.596V42C986.834 42.18 985.832 42.072 985.196 41.676C984.56 41.268 984.242 40.506 984.242 39.39V34.512H982.46V33H984.242V30.948L985.808 30.48V33H988.202V34.512ZM996.532 33H998.206L994.534 42.558C994.15 43.578 993.61 44.352 992.914 44.88C992.23 45.42 991.438 45.66 990.538 45.6V44.142C991.642 44.226 992.452 43.614 992.968 42.306L993.13 41.964L989.206 33H990.88L993.94 40.056L996.532 33ZM999.513 42V28.86H1001.08V42H999.513ZM1004.57 38.22C1004.72 39.024 1005.09 39.648 1005.66 40.092C1006.25 40.536 1006.97 40.758 1007.82 40.758C1009.01 40.758 1009.88 40.32 1010.42 39.444L1011.75 40.2C1010.87 41.556 1009.55 42.234 1007.79 42.234C1006.36 42.234 1005.2 41.79 1004.3 40.902C1003.41 40.002 1002.96 38.868 1002.96 37.5C1002.96 36.144 1003.4 35.016 1004.28 34.116C1005.15 33.216 1006.29 32.766 1007.68 32.766C1009 32.766 1010.07 33.234 1010.9 34.17C1011.74 35.094 1012.16 36.21 1012.16 37.518C1012.16 37.746 1012.14 37.98 1012.11 38.22H1004.57ZM1007.68 34.242C1006.84 34.242 1006.14 34.482 1005.59 34.962C1005.04 35.43 1004.7 36.06 1004.57 36.852H1010.58C1010.45 36 1010.11 35.352 1009.57 34.908C1009.03 34.464 1008.4 34.242 1007.68 34.242Z" fill="#323232"/>
<path d="M923.064 223.234C921.888 223.234 920.88 222.958 920.04 222.406C919.212 221.854 918.63 221.098 918.294 220.138L919.734 219.31C920.226 220.834 921.348 221.596 923.1 221.596C923.964 221.596 924.624 221.422 925.08 221.074C925.536 220.714 925.764 220.24 925.764 219.652C925.764 219.052 925.536 218.602 925.08 218.302C924.624 218.002 923.862 217.684 922.794 217.348C922.266 217.18 921.864 217.048 921.588 216.952C921.312 216.844 920.964 216.688 920.544 216.484C920.136 216.268 919.83 216.052 919.626 215.836C919.422 215.608 919.236 215.314 919.068 214.954C918.912 214.594 918.834 214.186 918.834 213.73C918.834 212.638 919.218 211.774 919.986 211.138C920.754 210.49 921.69 210.166 922.794 210.166C923.79 210.166 924.654 210.418 925.386 210.922C926.13 211.426 926.688 212.092 927.06 212.92L925.656 213.73C925.116 212.434 924.162 211.786 922.794 211.786C922.11 211.786 921.558 211.954 921.138 212.29C920.718 212.626 920.508 213.082 920.508 213.658C920.508 214.21 920.706 214.63 921.102 214.918C921.498 215.206 922.182 215.506 923.154 215.818C923.502 215.926 923.748 216.004 923.892 216.052C924.036 216.1 924.258 216.184 924.558 216.304C924.87 216.424 925.098 216.52 925.242 216.592C925.386 216.664 925.578 216.766 925.818 216.898C926.07 217.03 926.256 217.156 926.376 217.276C926.496 217.396 926.634 217.546 926.79 217.726C926.958 217.894 927.078 218.068 927.15 218.248C927.222 218.428 927.282 218.638 927.33 218.878C927.39 219.106 927.42 219.352 927.42 219.616C927.42 220.72 927.018 221.602 926.214 222.262C925.41 222.91 924.36 223.234 923.064 223.234ZM933.872 215.512H931.478V220.39C931.478 220.834 931.562 221.152 931.73 221.344C931.91 221.524 932.18 221.62 932.54 221.632C932.9 221.632 933.344 221.62 933.872 221.596V223C932.504 223.18 931.502 223.072 930.866 222.676C930.23 222.268 929.912 221.506 929.912 220.39V215.512H928.13V214H929.912V211.948L931.478 211.48V214H933.872V215.512ZM937.345 215.512C937.861 214.396 938.797 213.838 940.153 213.838V215.476C939.385 215.44 938.725 215.644 938.173 216.088C937.621 216.532 937.345 217.246 937.345 218.23V223H935.779V214H937.345V215.512ZM948.645 214H950.211V223H948.645V221.452C947.865 222.64 946.731 223.234 945.243 223.234C943.983 223.234 942.909 222.778 942.021 221.866C941.133 220.942 940.689 219.82 940.689 218.5C940.689 217.18 941.133 216.064 942.021 215.152C942.909 214.228 943.983 213.766 945.243 213.766C946.731 213.766 947.865 214.36 948.645 215.548V214ZM945.441 221.722C946.353 221.722 947.115 221.416 947.727 220.804C948.339 220.18 948.645 219.412 948.645 218.5C948.645 217.588 948.339 216.826 947.727 216.214C947.115 215.59 946.353 215.278 945.441 215.278C944.541 215.278 943.785 215.59 943.173 216.214C942.561 216.826 942.255 217.588 942.255 218.5C942.255 219.412 942.561 220.18 943.173 220.804C943.785 221.416 944.541 221.722 945.441 221.722ZM957.48 215.512H955.086V220.39C955.086 220.834 955.17 221.152 955.338 221.344C955.518 221.524 955.788 221.62 956.148 221.632C956.508 221.632 956.952 221.62 957.48 221.596V223C956.112 223.18 955.11 223.072 954.474 222.676C953.838 222.268 953.52 221.506 953.52 220.39V215.512H951.738V214H953.52V211.948L955.086 211.48V214H957.48V215.512ZM959.974 219.22C960.13 220.024 960.496 220.648 961.072 221.092C961.66 221.536 962.38 221.758 963.232 221.758C964.42 221.758 965.284 221.32 965.824 220.444L967.156 221.2C966.28 222.556 964.96 223.234 963.196 223.234C961.768 223.234 960.604 222.79 959.704 221.902C958.816 221.002 958.372 219.868 958.372 218.5C958.372 217.144 958.81 216.016 959.686 215.116C960.562 214.216 961.696 213.766 963.088 213.766C964.408 213.766 965.482 214.234 966.31 215.17C967.15 216.094 967.57 217.21 967.57 218.518C967.57 218.746 967.552 218.98 967.516 219.22H959.974ZM963.088 215.242C962.248 215.242 961.552 215.482 961 215.962C960.448 216.43 960.106 217.06 959.974 217.852H965.986C965.854 217 965.518 216.352 964.978 215.908C964.438 215.464 963.808 215.242 963.088 215.242ZM976.823 214H978.371V222.622C978.371 223.954 977.921 224.986 977.021 225.718C976.121 226.462 975.041 226.834 973.781 226.834C972.773 226.834 971.903 226.642 971.171 226.258C970.439 225.886 969.887 225.346 969.515 224.638L970.883 223.864C971.375 224.872 972.353 225.376 973.817 225.376C974.753 225.376 975.485 225.13 976.013 224.638C976.553 224.146 976.823 223.474 976.823 222.622V221.344C976.031 222.544 974.903 223.144 973.439 223.144C972.155 223.144 971.069 222.688 970.181 221.776C969.293 220.864 968.849 219.754 968.849 218.446C968.849 217.138 969.293 216.034 970.181 215.134C971.069 214.222 972.155 213.766 973.439 213.766C974.915 213.766 976.043 214.36 976.823 215.548V214ZM971.333 220.732C971.945 221.344 972.707 221.65 973.619 221.65C974.531 221.65 975.293 221.344 975.905 220.732C976.517 220.12 976.823 219.358 976.823 218.446C976.823 217.546 976.517 216.79 975.905 216.178C975.293 215.566 974.531 215.26 973.619 215.26C972.707 215.26 971.945 215.566 971.333 216.178C970.721 216.79 970.415 217.546 970.415 218.446C970.415 219.358 970.721 220.12 971.333 220.732ZM981.536 212.362C981.236 212.362 980.984 212.26 980.78 212.056C980.576 211.852 980.474 211.606 980.474 211.318C980.474 211.03 980.576 210.784 980.78 210.58C980.984 210.364 981.236 210.256 981.536 210.256C981.824 210.256 982.07 210.364 982.274 210.58C982.478 210.784 982.58 211.03 982.58 211.318C982.58 211.606 982.478 211.852 982.274 212.056C982.07 212.26 981.824 212.362 981.536 212.362ZM980.744 223V214H982.31V223H980.744ZM988.929 223.234C987.573 223.234 986.445 222.784 985.545 221.884C984.645 220.972 984.195 219.844 984.195 218.5C984.195 217.156 984.645 216.034 985.545 215.134C986.445 214.222 987.573 213.766 988.929 213.766C989.817 213.766 990.615 213.982 991.323 214.414C992.031 214.834 992.559 215.404 992.907 216.124L991.593 216.88C991.365 216.4 991.011 216.016 990.531 215.728C990.063 215.44 989.529 215.296 988.929 215.296C988.029 215.296 987.273 215.602 986.661 216.214C986.061 216.826 985.761 217.588 985.761 218.5C985.761 219.4 986.061 220.156 986.661 220.768C987.273 221.38 988.029 221.686 988.929 221.686C989.529 221.686 990.069 221.548 990.549 221.272C991.029 220.984 991.395 220.6 991.647 220.12L992.979 220.894C992.595 221.602 992.043 222.172 991.323 222.604C990.603 223.024 989.805 223.234 988.929 223.234ZM928.783 239.512H926.389V244.39C926.389 244.834 926.473 245.152 926.641 245.344C926.821 245.524 927.091 245.62 927.451 245.632C927.811 245.632 928.255 245.62 928.783 245.596V247C927.415 247.18 926.413 247.072 925.777 246.676C925.141 246.268 924.823 245.506 924.823 244.39V239.512H923.041V238H924.823V235.948L926.389 235.48V238H928.783V239.512ZM935.119 237.766C936.175 237.766 937.021 238.102 937.657 238.774C938.293 239.434 938.611 240.334 938.611 241.474V247H937.045V241.564C937.045 240.832 936.847 240.268 936.451 239.872C936.055 239.464 935.509 239.26 934.813 239.26C934.033 239.26 933.403 239.506 932.923 239.998C932.443 240.478 932.203 241.222 932.203 242.23V247H930.637V234.4H932.203V239.296C932.839 238.276 933.811 237.766 935.119 237.766ZM941.589 236.362C941.289 236.362 941.037 236.26 940.833 236.056C940.629 235.852 940.527 235.606 940.527 235.318C940.527 235.03 940.629 234.784 940.833 234.58C941.037 234.364 941.289 234.256 941.589 234.256C941.877 234.256 942.123 234.364 942.327 234.58C942.531 234.784 942.633 235.03 942.633 235.318C942.633 235.606 942.531 235.852 942.327 236.056C942.123 236.26 941.877 236.362 941.589 236.362ZM940.797 247V238H942.363V247H940.797ZM949.234 237.766C950.29 237.766 951.136 238.102 951.772 238.774C952.408 239.434 952.726 240.334 952.726 241.474V247H951.16V241.564C951.16 240.832 950.962 240.268 950.566 239.872C950.17 239.464 949.624 239.26 948.928 239.26C948.148 239.26 947.518 239.506 947.038 239.998C946.558 240.478 946.318 241.222 946.318 242.23V247H944.752V238H946.318V239.296C946.954 238.276 947.926 237.766 949.234 237.766ZM962.527 247H960.583L956.479 242.734V247H954.913V234.4H956.479V241.978L960.367 238H962.383L958.081 242.356L962.527 247ZM964.775 236.362C964.475 236.362 964.223 236.26 964.019 236.056C963.815 235.852 963.713 235.606 963.713 235.318C963.713 235.03 963.815 234.784 964.019 234.58C964.223 234.364 964.475 234.256 964.775 234.256C965.063 234.256 965.309 234.364 965.513 234.58C965.717 234.784 965.819 235.03 965.819 235.318C965.819 235.606 965.717 235.852 965.513 236.056C965.309 236.26 965.063 236.362 964.775 236.362ZM963.983 247V238H965.549V247H963.983ZM972.42 237.766C973.476 237.766 974.322 238.102 974.958 238.774C975.594 239.434 975.912 240.334 975.912 241.474V247H974.346V241.564C974.346 240.832 974.148 240.268 973.752 239.872C973.356 239.464 972.81 239.26 972.114 239.26C971.334 239.26 970.704 239.506 970.224 239.998C969.744 240.478 969.504 241.222 969.504 242.23V247H967.938V238H969.504V239.296C970.14 238.276 971.112 237.766 972.42 237.766ZM985.568 238H987.116V246.622C987.116 247.954 986.666 248.986 985.766 249.718C984.866 250.462 983.786 250.834 982.526 250.834C981.518 250.834 980.648 250.642 979.916 250.258C979.184 249.886 978.632 249.346 978.26 248.638L979.628 247.864C980.12 248.872 981.098 249.376 982.562 249.376C983.498 249.376 984.23 249.13 984.758 248.638C985.298 248.146 985.568 247.474 985.568 246.622V245.344C984.776 246.544 983.648 247.144 982.184 247.144C980.9 247.144 979.814 246.688 978.926 245.776C978.038 244.864 977.594 243.754 977.594 242.446C977.594 241.138 978.038 240.034 978.926 239.134C979.814 238.222 980.9 237.766 982.184 237.766C983.66 237.766 984.788 238.36 985.568 239.548V238ZM980.078 244.732C980.69 245.344 981.452 245.65 982.364 245.65C983.276 245.65 984.038 245.344 984.65 244.732C985.262 244.12 985.568 243.358 985.568 242.446C985.568 241.546 985.262 240.79 984.65 240.178C984.038 239.566 983.276 239.26 982.364 239.26C981.452 239.26 980.69 239.566 980.078 240.178C979.466 240.79 979.16 241.546 979.16 242.446C979.16 243.358 979.466 244.12 980.078 244.732Z" fill="#323232"/>
<defs>
<filter id="filter0_d" x="908.999" y="36" width="172.773" height="172.773" filterUnits="userSpaceOnUse" color-interpolation-filters="sRGB">
<feFlood flood-opacity="0" result="BackgroundImageFix"/>
<feColorMatrix in="SourceAlpha" type="matrix" values="0 0 0 0 0 0 0 0 0 0 0 0 0 0 0 0 0 0 127 0"/>
<feOffset dy="25"/>
<feGaussianBlur stdDeviation="25"/>
<feColorMatrix type="matrix" values="0 0 0 0 0 0 0 0 0 0 0 0 0 0 0 0 0 0 0.25 0"/>
<feBlend mode="normal" in2="BackgroundImageFix" result="effect1_dropShadow"/>
<feBlend mode="normal" in="SourceGraphic" in2="effect1_dropShadow" result="shape"/>
</filter>
<filter id="filter1_d" x="298.183" y="253.756" width="172.773" height="172.773" filterUnits="userSpaceOnUse" color-interpolation-filters="sRGB">
<feFlood flood-opacity="0" result="BackgroundImageFix"/>
<feColorMatrix in="SourceAlpha" type="matrix" values="0 0 0 0 0 0 0 0 0 0 0 0 0 0 0 0 0 0 127 0"/>
<feOffset dy="25"/>
<feGaussianBlur stdDeviation="25"/>
<feColorMatrix type="matrix" values="0 0 0 0 0 0 0 0 0 0 0 0 0 0 0 0 0 0 0.25 0"/>
<feBlend mode="normal" in2="BackgroundImageFix" result="effect1_dropShadow"/>
<feBlend mode="normal" in="SourceGraphic" in2="effect1_dropShadow" result="shape"/>
</filter>
<filter id="filter2_d" x="871.383" y="236.604" width="172.773" height="172.773" filterUnits="userSpaceOnUse" color-interpolation-filters="sRGB">
<feFlood flood-opacity="0" result="BackgroundImageFix"/>
<feColorMatrix in="SourceAlpha" type="matrix" values="0 0 0 0 0 0 0 0 0 0 0 0 0 0 0 0 0 0 127 0"/>
<feOffset dy="25"/>
<feGaussianBlur stdDeviation="25"/>
<feColorMatrix type="matrix" values="0 0 0 0 0 0 0 0 0 0 0 0 0 0 0 0 0 0 0.25 0"/>
<feBlend mode="normal" in2="BackgroundImageFix" result="effect1_dropShadow"/>
<feBlend mode="normal" in="SourceGraphic" in2="effect1_dropShadow" result="shape"/>
</filter>
<filter id="filter3_d" x="730" y="408" width="172.773" height="172.773" filterUnits="userSpaceOnUse" color-interpolation-filters="sRGB">
<feFlood flood-opacity="0" result="BackgroundImageFix"/>
<feColorMatrix in="SourceAlpha" type="matrix" values="0 0 0 0 0 0 0 0 0 0 0 0 0 0 0 0 0 0 127 0"/>
<feOffset dy="25"/>
<feGaussianBlur stdDeviation="25"/>
<feColorMatrix type="matrix" values="0 0 0 0 0 0 0 0 0 0 0 0 0 0 0 0 0 0 0.25 0"/>
<feBlend mode="normal" in2="BackgroundImageFix" result="effect1_dropShadow"/>
<feBlend mode="normal" in="SourceGraphic" in2="effect1_dropShadow" result="shape"/>
</filter>
<filter id="filter4_d" x="13" y="80.9844" width="172.773" height="172.773" filterUnits="userSpaceOnUse" color-interpolation-filters="sRGB">
<feFlood flood-opacity="0" result="BackgroundImageFix"/>
<feColorMatrix in="SourceAlpha" type="matrix" values="0 0 0 0 0 0 0 0 0 0 0 0 0 0 0 0 0 0 127 0"/>
<feOffset dy="25"/>
<feGaussianBlur stdDeviation="25"/>
<feColorMatrix type="matrix" values="0 0 0 0 0 0 0 0 0 0 0 0 0 0 0 0 0 0 0.25 0"/>
<feBlend mode="normal" in2="BackgroundImageFix" result="effect1_dropShadow"/>
<feBlend mode="normal" in="SourceGraphic" in2="effect1_dropShadow" result="shape"/>
</filter>
<filter id="filter5_d" x="50" y="250" width="172.77" height="172.77" filterUnits="userSpaceOnUse" color-interpolation-filters="sRGB">
<feFlood flood-opacity="0" result="BackgroundImageFix"/>
<feColorMatrix in="SourceAlpha" type="matrix" values="0 0 0 0 0 0 0 0 0 0 0 0 0 0 0 0 0 0 127 0"/>
<feOffset dy="25"/>
<feGaussianBlur stdDeviation="25"/>
<feColorMatrix type="matrix" values="0 0 0 0 0.501961 0 0 0 0 0.443137 0 0 0 0 0.882353 0 0 0 0.05 0"/>
<feBlend mode="normal" in2="BackgroundImageFix" result="effect1_dropShadow"/>
<feBlend mode="normal" in="SourceGraphic" in2="effect1_dropShadow" result="shape"/>
</filter>
<filter id="filter6_d" x="640.246" y="167.546" width="172.77" height="172.77" filterUnits="userSpaceOnUse" color-interpolation-filters="sRGB">
<feFlood flood-opacity="0" result="BackgroundImageFix"/>
<feColorMatrix in="SourceAlpha" type="matrix" values="0 0 0 0 0 0 0 0 0 0 0 0 0 0 0 0 0 0 127 0"/>
<feOffset dy="25"/>
<feGaussianBlur stdDeviation="25"/>
<feColorMatrix type="matrix" values="0 0 0 0 0.501961 0 0 0 0 0.443137 0 0 0 0 0.882353 0 0 0 0.05 0"/>
<feBlend mode="normal" in2="BackgroundImageFix" result="effect1_dropShadow"/>
<feBlend mode="normal" in="SourceGraphic" in2="effect1_dropShadow" result="shape"/>
</filter>
<clipPath id="clip0">
<rect width="40" height="40" fill="white" transform="translate(938 278)"/>
</clipPath>
<clipPath id="clip1">
<rect width="40" height="40" fill="white" transform="translate(116 291)"/>
</clipPath>
<clipPath id="clip2">
<rect width="40" height="40" fill="white" transform="translate(707 209)"/>
</clipPath>
<clipPath id="clip3">
<rect width="40" height="40" fill="white" transform="translate(240 487)"/>
</clipPath>
</defs>
</svg>
