<svg width="620" height="186" viewBox="0 0 620 186" fill="none" xmlns="http://www.w3.org/2000/svg">
<path d="M292.289 48.9143C296.952 46.2219 296.952 41.841 292.289 39.1486C287.626 36.4562 280.038 36.4561 275.374 39.1484C270.711 41.8408 270.711 46.2219 275.375 48.9143C277.279 50.0139 279.672 50.6639 282.154 50.8652L287.676 70.099C286.575 70.4205 285.541 70.8449 284.621 71.3758C282.399 72.6588 281.238 74.3254 281.134 76.0098L266.616 78.3229C266.166 77.9203 265.638 77.5387 265.028 77.1865C260.364 74.4941 252.776 74.4941 248.113 77.1865C243.45 79.8789 243.45 84.2598 248.113 86.9521C248.723 87.3043 249.384 87.6094 250.081 87.8693L246.075 96.2512C243.157 96.3113 240.271 96.9816 238.049 98.2647C233.386 100.957 233.386 105.338 238.049 108.03C242.713 110.723 250.301 110.723 254.964 108.031C259.627 105.338 259.627 100.957 254.964 98.2648C254.354 97.9127 253.693 97.6076 252.996 97.3477L257.002 88.9658C259.919 88.9057 262.806 88.2355 265.028 86.9525C267.25 85.6695 268.411 84.0031 268.516 82.3188L283.033 80.0057C283.484 80.4082 284.012 80.7898 284.622 81.142C289.285 83.8344 296.874 83.8346 301.537 81.1422C306.201 78.4496 306.2 74.0686 301.537 71.3762C299.632 70.2764 297.239 69.6264 294.757 69.425L289.234 50.1912C290.335 49.8697 291.37 49.4451 292.289 48.9143ZM280.449 42.0781C282.314 41.0012 285.349 41.0012 287.215 42.0783C289.08 43.1553 289.08 44.9076 287.215 45.9846C285.349 47.0615 282.314 47.0615 280.449 45.9846C278.583 44.9076 278.583 43.1553 280.449 42.0781ZM249.888 105.101C248.023 106.178 244.988 106.178 243.122 105.101C241.256 104.024 241.256 102.271 243.122 101.195C244.987 100.118 248.022 100.118 249.888 101.195C251.753 102.272 251.753 104.024 249.888 105.101ZM259.953 84.0228C258.087 85.0998 255.052 85.0998 253.186 84.0227C251.321 82.9457 251.321 81.1934 253.186 80.1164C255.052 79.0395 258.087 79.0395 259.952 80.1164C261.818 81.1934 261.818 82.9459 259.953 84.0228ZM296.461 78.2121C294.596 79.2891 291.561 79.2891 289.695 78.2119C287.829 77.1348 287.829 75.3824 289.695 74.3055C291.56 73.2283 294.596 73.2283 296.461 74.3055C298.327 75.3826 298.327 77.1352 296.461 78.2121Z" fill="#52BD95"/>
<path d="M405.981 78.5494L388.225 88.8006L291.514 144.637L271.482 156.202C270.323 156.871 268.437 156.871 267.277 156.202L162.604 95.7686C161.444 95.0992 161.444 94.0102 162.604 93.3408L174.564 86.4354C175.966 85.6264 175.966 84.3148 174.564 83.5057C173.163 82.6965 170.891 82.6967 169.49 83.5057L157.529 90.4111C153.572 92.6959 153.572 96.4135 157.529 98.6982L262.203 159.132C266.16 161.416 272.599 161.416 276.557 159.132L294.051 149.031L299.635 152.255C302.816 154.092 307.991 154.092 311.172 152.255L336.569 137.592L347.956 157.971C348.564 159.06 350.586 159.658 352.472 159.307C353.032 159.203 353.517 159.026 353.906 158.801C354.828 158.269 355.213 157.465 354.785 156.699L342.271 134.301L370.322 118.105L409.117 125.33C410.444 125.577 411.837 125.355 412.759 124.823C413.148 124.598 413.453 124.318 413.634 123.995C414.242 122.906 413.206 121.738 411.32 121.387L376.024 114.813L401.42 100.151C404.601 98.3141 404.602 95.326 401.42 93.4893L395.837 90.2654L411.055 81.4791C412.456 80.6701 412.456 79.3586 411.055 78.5494C409.653 77.7402 407.382 77.7404 405.981 78.5494ZM396.346 96.419C396.729 96.64 396.729 96.9998 396.346 97.2209L306.098 149.326C305.715 149.547 305.092 149.547 304.709 149.326L299.125 146.102L390.762 93.1951L396.346 96.419Z" fill="#52BD95"/>
<path d="M184.713 80.5758L219.446 60.5227L242.535 47.1924L299.378 14.3744C300.537 13.7051 302.423 13.7051 303.583 14.3744L327.706 28.3023C329.108 29.1115 331.38 29.1113 332.781 28.3023C334.182 27.4934 334.182 26.1818 332.781 25.3727L308.657 11.4447C304.7 9.15995 298.261 9.15995 294.303 11.4447L239.998 42.7977L235.011 39.9184C231.501 37.892 225.79 37.892 222.28 39.9186L206.848 48.8283C203.338 50.8547 203.338 54.1521 206.848 56.1785L211.835 59.0578L179.639 77.6461C178.238 78.4551 178.238 79.7666 179.639 80.5758C181.041 81.385 183.312 81.3848 184.713 80.5758ZM211.922 53.2488C211.21 52.8379 211.21 52.1691 211.923 51.758L227.355 42.8482C228.066 42.4373 229.225 42.4371 229.937 42.848L234.924 45.7273L216.91 56.1279L211.923 53.2486L211.922 53.2488Z" fill="#52BD95"/>
<path d="M262.788 118.492C261.386 119.301 261.386 120.612 262.788 121.421L285.207 134.365C286.608 135.174 288.88 135.174 290.281 134.365L300.574 128.422C301.976 127.613 301.976 126.302 300.574 125.493L278.155 112.549C276.754 111.74 274.482 111.74 273.081 112.549L262.788 118.492ZM292.963 126.958L287.744 129.971L270.4 119.957L275.618 116.944L292.963 126.958Z" fill="#52BD95"/>
<path d="M273.108 97.5615C271.707 98.3705 271.706 99.682 273.108 100.491L308.494 120.921C309.895 121.73 312.167 121.73 313.568 120.921L323.861 114.978C325.262 114.169 325.263 112.858 323.861 112.049L288.476 91.6188C287.074 90.8096 284.802 90.8098 283.401 91.6188L273.108 97.5615ZM316.25 113.513L311.031 116.526L280.72 99.0262L285.939 96.0131L316.25 113.513Z" fill="#52BD95"/>
<path d="M309.36 91.603C307.959 92.412 307.959 93.7235 309.36 94.5327L331.78 107.476C333.181 108.286 335.453 108.285 336.854 107.476L347.147 101.534C348.548 100.725 348.549 99.4132 347.147 98.604L324.728 85.6603C323.326 84.8511 321.055 84.8513 319.654 85.6603L309.36 91.603ZM339.536 100.069L334.317 103.082L316.972 93.0681L322.191 90.055L339.536 100.069Z" fill="#52BD95"/>
<path d="M347.619 86.8022C346.218 87.6112 346.217 88.9228 347.619 89.7319L355.067 94.0321C356.468 94.8413 358.74 94.8411 360.141 94.0321L370.434 88.0894C371.836 87.2804 371.836 85.9688 370.434 85.1597C369.033 84.3505 366.761 84.3507 365.36 85.1597L357.604 89.6376L352.693 86.8022C351.292 85.9931 349.02 85.9933 347.619 86.8022Z" fill="#52BD95"/>
<path d="M438.603 62.4698L398.836 56.3176C398.593 51.9192 396.476 47.5959 392.557 43.6772C386.294 37.4139 376.181 32.9336 364.081 31.0618C339.102 27.1971 313.336 35.7866 306.643 50.2075C299.949 64.6286 314.826 79.5047 339.805 83.369C351.905 85.2409 364.543 84.2801 375.391 80.6643C379.014 79.4567 382.292 78.0016 385.172 76.3385C387.69 74.885 389.903 73.2727 391.778 71.5286L431.543 77.6829C436.417 78.4375 441.395 77.5608 444.731 75.6344C446.366 74.6905 447.607 73.4942 448.248 72.1147C449.506 69.4051 448.152 66.4887 444.714 64.5039C443.03 63.5315 440.917 62.8282 438.603 62.4698ZM371.803 77.0762C362.615 80.1389 351.91 80.9526 341.661 79.3672C320.505 76.0942 307.906 63.4944 313.574 51.2799C315.439 47.2618 319.051 43.7795 323.813 41.0299C333.528 35.4215 348.027 32.8678 362.223 35.0639C372.471 36.6495 381.037 40.444 386.342 45.7491C391.647 51.0541 393.056 57.2342 390.31 63.1512C387.564 69.068 380.991 74.0129 371.803 77.0762ZM441.317 71.0414C440.394 73.0295 436.843 74.2135 433.401 73.6809L395.143 67.7598C395.974 66.619 396.678 65.4389 397.242 64.2233C397.807 63.0067 398.214 61.7805 398.482 60.5522L436.745 66.4715C437.844 66.642 438.845 66.9748 439.64 67.4338C441.27 68.3749 441.913 69.7575 441.317 71.0414Z" fill="#52BD95"/>
<path d="M382.094 48.061C378.116 43.6956 371.512 40.3755 363.499 38.7124C361.634 38.3253 359.579 38.8843 358.909 39.9608C358.238 41.0378 359.207 42.2241 361.072 42.611C367.392 43.9229 372.602 46.5432 375.743 49.9899C378.901 53.4555 379.673 57.4487 377.916 61.2341C376.058 65.2399 371.607 68.5878 365.387 70.6612C359.167 72.7346 351.919 73.2856 344.982 72.2122C330.659 69.9966 322.129 61.4665 325.967 53.1973C328.773 47.1516 337.525 42.6905 348.263 41.8313C350.227 41.6743 351.597 40.6286 351.325 39.4952C351.053 38.362 349.241 37.5704 347.278 37.7276C333.675 38.8155 322.589 44.4673 319.035 52.1251C316.68 57.1997 317.888 62.5003 322.438 67.0501C326.988 71.5999 334.334 74.8544 343.124 76.2141C351.914 77.5741 361.094 76.8761 368.975 74.2495C371.607 73.3723 373.988 72.3151 376.08 71.1071C380.254 68.6973 383.279 65.6866 384.848 62.3065C387.074 57.511 386.096 52.452 382.094 48.061Z" fill="#52BD95"/>
</svg>
