<svg width="620" height="186" viewBox="0 0 620 186" fill="none" xmlns="http://www.w3.org/2000/svg">
<path d="M294.167 52.5746L288.489 55.8532L294.167 59.1318C292.661 60.0014 291.815 61.1807 291.815 62.4104C291.815 63.6401 292.661 64.8195 294.167 65.689L299.846 68.9676C301.352 69.8372 303.395 70.3257 305.525 70.3257C307.655 70.3257 309.697 69.8372 311.204 68.9676L316.882 65.689L322.561 68.9676L311.204 75.5248L316.882 78.8034L322.561 75.5248L328.24 78.8034L333.918 75.5248L328.24 72.2462C329.746 71.3767 330.592 70.1973 330.592 68.9676C330.592 67.7379 329.746 66.5586 328.24 65.689L322.561 62.4104C321.055 61.5409 319.012 61.0524 316.882 61.0524C314.752 61.0524 312.71 61.5409 311.204 62.4104L305.525 65.689L299.846 62.4104L311.204 55.8532L305.525 52.5746L299.846 55.8532L294.167 52.5746Z" fill="#52BD95"/>
<path d="M282.81 49.2959C277.73 52.2187 274.101 55.8749 272.303 59.8832C270.504 63.8915 270.601 68.105 272.584 72.0842C274.567 76.0634 278.363 79.6625 283.576 82.5061C288.79 85.3496 295.229 87.3335 302.222 88.2506C298.93 89.4979 295.867 90.9365 293.083 92.544L271.168 105.196C267.305 103.726 262.682 103.069 258.079 103.338C253.475 103.607 249.173 104.784 245.898 106.671C245.145 107.106 244.722 107.696 244.722 108.311C244.722 108.926 245.145 109.515 245.898 109.95L258.289 117.104C255.45 121.767 254.48 126.742 255.452 131.653C256.424 136.564 259.312 141.284 263.9 145.457L257.256 149.293C255.749 150.163 254.903 151.342 254.903 152.572C254.903 153.802 255.749 154.981 257.256 155.85L262.934 159.129C264.44 159.999 266.483 160.487 268.613 160.487C270.743 160.487 272.786 159.999 274.292 159.129L280.936 155.293C287.514 157.716 294.891 159.325 302.601 160.018C310.311 160.711 318.187 160.473 325.729 159.319L333.918 164.047C335.424 164.916 337.467 165.405 339.597 165.405C341.727 165.405 343.769 164.916 345.275 164.047L350.954 160.768C352.46 159.899 353.306 158.719 353.306 157.49C353.306 156.26 352.46 155.081 350.954 154.211L347.996 152.503C349.06 151.98 350.043 151.459 350.954 150.933L373.669 137.818C374.58 137.292 375.483 136.725 376.389 136.11L379.348 137.818C380.854 138.688 382.896 139.176 385.026 139.176C387.156 139.176 389.199 138.688 390.705 137.818L396.384 134.54C397.89 133.67 398.736 132.491 398.736 131.261C398.736 130.031 397.89 128.852 396.384 127.982L388.198 123.256C390.796 117.759 390.817 111.961 388.26 106.458C385.702 100.954 380.658 95.9411 373.643 91.9325L373.669 91.9177C372.916 91.483 372.493 90.8933 372.493 90.2784C372.493 89.6636 372.916 89.0739 373.669 88.6391C374.422 88.2044 375.443 87.9601 376.508 87.9601C377.573 87.9601 378.595 88.2044 379.348 88.6391L396.384 98.4749L402.063 95.1963L385.026 85.3605C382.767 84.0562 379.703 83.3235 376.508 83.3235C373.313 83.3235 370.249 84.0562 367.99 85.3605C366.728 86.0946 365.77 86.984 365.188 87.9621C357.152 84.9104 347.878 83.1189 338.279 82.7639C338.714 82.5328 339.171 82.3213 339.591 82.0787C347.122 77.731 351.352 71.8342 351.352 65.6857C351.352 59.5371 347.122 53.6404 339.591 49.2927C332.061 44.945 321.847 42.5025 311.198 42.5025C300.548 42.5025 290.334 44.945 282.804 49.2927L282.81 49.2959ZM379.847 123.232C379.628 123.636 379.604 124.067 379.779 124.478C379.954 124.889 380.32 125.265 380.838 125.564L390.705 131.261L385.026 134.54L378.868 130.984C378.115 130.549 377.093 130.305 376.028 130.305C374.964 130.305 373.942 130.549 373.189 130.984C373.043 131.067 372.908 131.157 372.786 131.253C371.335 132.418 369.732 133.516 367.99 134.54L345.275 147.654C343.503 148.66 341.6 149.585 339.583 150.423C339.115 150.62 338.727 150.874 338.445 151.166C338.163 151.459 337.995 151.783 337.95 152.117C337.906 152.45 337.987 152.785 338.189 153.099C338.39 153.413 338.707 153.698 339.117 153.934L345.275 157.49L339.597 160.768L329.73 155.072C329.211 154.772 328.56 154.561 327.848 154.46C327.136 154.359 326.389 154.373 325.69 154.5C318.49 155.798 310.865 156.104 303.424 155.395C295.983 154.685 288.932 152.98 282.838 150.415C282.062 150.087 281.108 149.93 280.149 149.974C279.19 150.018 278.291 150.259 277.614 150.654L268.613 155.85L262.934 152.572L271.935 147.375C272.613 146.984 273.025 146.466 273.099 145.914C273.172 145.362 272.901 144.814 272.335 144.367C267.504 140.52 264.45 136.026 263.461 131.309C262.472 126.592 263.581 121.807 266.682 117.406C266.983 116.982 267.06 116.517 266.904 116.069C266.747 115.621 266.365 115.209 265.805 114.886L254.902 108.591C257.122 107.981 259.611 107.777 262.038 108.006C264.464 108.235 266.712 108.887 268.48 109.873C268.573 109.927 268.667 109.981 268.744 110.025C269.134 110.252 269.602 110.43 270.117 110.547C270.633 110.665 271.184 110.719 271.738 110.708C272.292 110.696 272.835 110.618 273.334 110.479C273.833 110.341 274.277 110.144 274.638 109.901C275.444 109.36 276.265 108.821 277.154 108.307L298.784 95.8193C307.66 90.618 319.654 87.5807 332.293 87.3333C344.933 87.086 357.255 89.6474 366.721 94.4898C373.427 98.0598 378.226 102.662 380.551 107.754C382.877 112.847 382.633 118.217 379.847 123.232ZM333.918 78.8033C329.425 81.3971 323.702 83.1635 317.47 83.8791C311.239 84.5948 304.78 84.2275 298.91 82.8237C293.04 81.42 288.023 79.0428 284.493 75.9929C280.964 72.9429 279.08 69.3571 279.08 65.6889C279.08 62.0208 280.964 58.435 284.493 55.385C288.023 52.3351 293.04 49.9579 298.91 48.5541C304.78 47.1504 311.239 46.7831 317.47 47.4987C323.702 48.2144 329.426 49.9808 333.918 52.5745C339.934 56.0554 343.312 60.7718 343.312 65.6889C343.312 70.6061 339.934 75.3225 333.918 78.8033Z" fill="#52BD95"/>
<path d="M277.131 124.704C274.872 126.008 273.603 127.777 273.603 129.622C273.603 131.467 274.872 133.236 277.131 134.54L282.81 131.261C282.057 130.827 281.634 130.237 281.634 129.622C281.634 129.007 282.057 128.418 282.81 127.983C283.563 127.548 284.584 127.304 285.649 127.304C286.714 127.304 287.736 127.548 288.489 127.983L294.167 124.704C291.908 123.4 288.844 122.667 285.649 122.667C282.455 122.667 279.39 123.4 277.131 124.704Z" fill="#52BD95"/>
<path d="M314.043 37.821L334.12 26.2295C334.69 25.9039 335.077 25.4872 335.233 25.0332C335.389 24.5792 335.306 24.1086 334.995 23.682C334.684 23.2555 334.159 22.8925 333.487 22.6397C332.815 22.387 332.028 22.2562 331.227 22.264L324.216 22.3411L326.553 10.2086C326.615 9.88456 326.558 9.55657 326.386 9.24606C326.214 8.93555 325.93 8.64952 325.553 8.40663C325.176 8.16374 324.715 7.96947 324.2 7.83649C323.684 7.70352 323.126 7.63483 322.561 7.63492L299.846 7.63492C299.281 7.63483 298.723 7.70352 298.207 7.83649C297.692 7.96947 297.23 8.16374 296.854 8.40663C296.477 8.64952 296.193 8.93555 296.021 9.24606C295.849 9.55657 295.792 9.88456 295.854 10.2086L298.191 22.3411L291.197 22.2706C290.395 22.2621 289.606 22.3925 288.934 22.6452C288.261 22.8979 287.735 23.2611 287.423 23.6881C287.111 24.1151 287.028 24.5862 287.185 25.0406C287.341 25.4951 287.73 25.912 288.301 26.2377L308.364 37.821C309.117 38.2558 310.138 38.5 311.203 38.5C312.268 38.5 313.29 38.2558 314.043 37.821ZM300.982 27.0016L302.603 27.0196C303.172 27.019 303.735 26.9506 304.256 26.8189C304.777 26.6872 305.246 26.4949 305.633 26.2541C306.017 26.0106 306.306 25.7227 306.483 25.4095C306.659 25.0963 306.718 24.765 306.655 24.4377L304.304 12.261L318.046 12.261L315.695 24.4377C315.633 24.7651 315.692 25.0965 315.868 25.4097C316.045 25.7229 316.335 26.0107 316.72 26.2541C317.104 26.4975 317.574 26.6907 318.098 26.821C318.622 26.9514 319.188 27.0157 319.758 27.0098L321.425 27.0016L311.203 32.9031L300.982 27.0016Z" fill="#52BD95"/>
<path d="M262.934 54.2138L283.011 42.6223C283.581 42.2967 283.969 41.88 284.125 41.426C284.281 40.972 284.198 40.5014 283.887 40.0749C283.576 39.6483 283.05 39.2853 282.379 39.0326C281.707 38.7799 280.92 38.649 280.118 38.6569L273.108 38.7339L275.445 26.6014C275.507 26.2774 275.45 25.9494 275.278 25.6389C275.105 25.3284 274.822 25.0423 274.445 24.7995C274.068 24.5566 273.607 24.3623 273.091 24.2293C272.576 24.0963 272.017 24.0277 271.452 24.0277L248.738 24.0277C248.173 24.0293 247.614 24.0986 247.098 24.2312C246.582 24.3639 246.119 24.5569 245.739 24.7982C245.363 25.0412 245.08 25.3272 244.908 25.6377C244.737 25.9481 244.68 26.2759 244.743 26.5998L247.082 38.7339L240.089 38.6634C239.287 38.6549 238.498 38.7854 237.825 39.038C237.153 39.2907 236.626 39.6539 236.315 40.0809C236.003 40.5079 235.92 40.979 236.077 41.4335C236.233 41.8879 236.622 42.3049 237.193 42.6305L257.256 54.2138C258.009 54.6486 259.03 54.8929 260.095 54.8929C261.16 54.8929 262.181 54.6486 262.934 54.2138ZM249.873 43.3944L251.495 43.4125C252.064 43.4123 252.627 43.3443 253.148 43.2125C253.669 43.0808 254.138 42.8882 254.524 42.6469C254.908 42.4034 255.198 42.1155 255.374 41.8023C255.551 41.4892 255.609 41.1579 255.546 40.8306L253.195 28.6538L266.938 28.6539L264.587 40.8306C264.524 41.158 264.583 41.4893 264.76 41.8025C264.937 42.1157 265.227 42.4036 265.611 42.6469C265.996 42.8903 266.466 43.0836 266.99 43.2139C267.514 43.3442 268.08 43.4085 268.65 43.4026L270.317 43.3944L260.095 49.2959L249.873 43.3944Z" fill="#52BD95"/>
<path d="M376.665 24.7967C376.29 24.5533 375.829 24.3586 375.314 24.2255C374.799 24.0924 374.24 24.0239 373.676 24.0246L350.961 24.0246C350.394 24.0263 349.835 24.0959 349.318 24.2291C348.801 24.3623 348.337 24.5562 347.957 24.7984C347.581 25.0414 347.297 25.3274 347.126 25.6378C346.954 25.9482 346.898 26.2761 346.96 26.6L349.3 38.7341L342.306 38.6636C341.506 38.6551 340.719 38.785 340.047 39.0366C339.375 39.2883 338.849 39.6501 338.536 40.0757C338.223 40.5013 338.138 40.9712 338.291 41.4251C338.444 41.8789 338.829 42.2959 339.396 42.6225L359.473 54.214C360.226 54.6487 361.248 54.893 362.312 54.893C363.377 54.893 364.399 54.6487 365.152 54.214L385.229 42.6225C385.799 42.2968 386.186 41.8802 386.342 41.4262C386.498 40.9721 386.416 40.5016 386.104 40.075C385.793 39.6484 385.268 39.2854 384.596 39.0327C383.924 38.78 383.137 38.6492 382.336 38.657L375.325 38.7341L377.662 26.6016C377.725 26.2772 377.669 25.9487 377.498 25.6377C377.326 25.3267 377.042 25.0401 376.665 24.7967ZM366.844 40.8406C366.782 41.168 366.841 41.4993 367.017 41.8125C367.194 42.1257 367.484 42.4136 367.869 42.6569C368.253 42.9003 368.723 43.0936 369.247 43.2239C369.771 43.3542 370.337 43.4185 370.907 43.4126L372.534 43.3946L362.312 49.2961L352.091 43.3946L353.712 43.4126C354.281 43.4122 354.844 43.344 355.365 43.2123C355.886 43.0806 356.355 42.8881 356.742 42.6471C357.126 42.4036 357.415 42.1157 357.592 41.8025C357.768 41.4893 357.827 41.158 357.764 40.8307L355.413 28.654L369.155 28.654L366.844 40.8406Z" fill="#52BD95"/>
</svg>
