<svg width="620" height="162" viewBox="0 0 620 162" fill="none" xmlns="http://www.w3.org/2000/svg">
<path d="M290.122 21.1255C285.304 18.3442 279.167 16.4501 272.485 15.6827C265.803 14.9154 258.877 15.3092 252.583 16.8145C246.289 18.3197 240.909 20.8687 237.124 24.1392C233.339 27.4096 231.319 31.2546 231.319 35.188C231.319 39.1213 233.339 42.9664 237.124 46.2368C240.909 49.5073 246.289 52.0563 252.583 53.5615C258.877 55.0668 265.803 55.4606 272.485 54.6932C279.167 53.9259 285.304 52.0318 290.122 49.2505C296.571 45.5177 300.193 40.4605 300.193 35.188C300.193 29.9155 296.571 24.8583 290.122 21.1255ZM284.709 46.1255C280.962 48.2887 276.188 49.7619 270.991 50.3587C265.794 50.9556 260.408 50.6493 255.512 49.4785C250.617 48.3078 246.432 46.3252 243.489 43.7815C240.545 41.2378 238.973 38.2473 238.973 35.188C238.973 32.1287 240.545 29.1381 243.489 26.5945C246.432 24.0508 250.617 22.0682 255.512 20.8975C260.408 19.7267 265.794 19.4204 270.991 20.0172C276.188 20.6141 280.962 22.0873 284.709 24.2505C289.726 27.1536 292.543 31.0871 292.543 35.188C292.543 39.2889 289.726 43.2224 284.709 46.1255Z" fill="#52BD95"/>
<path d="M252.233 24.2505L246.82 27.3755L249.527 28.938C248.091 29.7668 247.285 30.8909 247.285 32.063C247.285 33.2351 248.091 34.3592 249.527 35.188L254.939 38.313C256.375 39.1418 258.322 39.6074 260.352 39.6074C262.382 39.6074 264.329 39.1418 265.765 38.313L271.177 35.188L276.59 38.313L265.765 44.563L271.177 47.688L276.59 44.563L279.296 46.1255L284.709 43.0005L282.003 41.438C283.438 40.6092 284.245 39.4851 284.245 38.313C284.245 37.1409 283.438 36.0168 282.003 35.188L276.59 32.063C275.154 31.2342 273.207 30.7686 271.177 30.7686C269.147 30.7686 267.2 31.2342 265.765 32.063L260.352 35.188L254.939 32.063L265.765 25.813L260.352 22.688L254.939 25.813L252.233 24.2505Z" fill="#52BD95"/>
<path d="M357.78 119.563C355.769 118.41 353.087 117.73 350.256 117.656C350.138 116.021 348.96 114.47 346.954 113.313C344.949 112.155 342.264 111.475 339.431 111.406C339.313 109.771 338.134 108.22 336.129 107.063C334.124 105.905 331.439 105.225 328.605 105.156C328.487 103.521 327.309 101.97 325.304 100.813C323.299 99.655 320.613 98.9746 317.78 98.9064C317.662 97.2707 316.484 95.7203 314.479 94.5626C312.473 93.405 309.788 92.7246 306.955 92.6564C306.837 91.0207 305.658 89.4703 303.653 88.3126C301.648 87.155 298.963 86.4746 296.13 86.4064C296.028 85.1256 295.282 83.8897 293.983 82.8496C292.685 81.8095 290.89 81.0103 288.817 80.5496C286.745 80.0889 284.485 79.9866 282.313 80.2553C280.142 80.5241 278.153 81.1521 276.59 82.0627L238.701 103.938C237.124 104.84 236.036 105.989 235.571 107.242C235.105 108.496 235.283 109.801 236.08 110.997C236.878 112.194 238.263 113.23 240.064 113.98C241.866 114.73 244.006 115.16 246.225 115.219C246.343 116.855 247.521 118.405 249.526 119.563C251.532 120.72 254.217 121.401 257.05 121.469C257.168 123.105 258.347 124.655 260.352 125.813C262.357 126.97 265.042 127.651 267.875 127.719C267.994 129.355 269.172 130.905 271.177 132.063C273.182 133.22 275.868 133.901 278.701 133.969C278.819 135.605 279.997 137.155 282.002 138.313C284.007 139.47 286.693 140.151 289.526 140.219C289.644 141.855 290.823 143.405 292.828 144.563C294.833 145.72 297.518 146.401 300.351 146.469C300.469 148.105 301.648 149.655 303.653 150.813C305.658 151.97 308.344 152.651 311.177 152.719C311.279 154 312.024 155.236 313.323 156.276C314.621 157.316 316.417 158.115 318.489 158.576C320.561 159.036 322.821 159.139 324.993 158.87C327.164 158.601 329.153 157.973 330.716 157.063L368.605 135.188C370.182 134.285 371.27 133.137 371.735 131.883C372.201 130.63 372.024 129.325 371.226 128.128C370.428 126.932 369.044 125.895 367.242 125.146C365.441 124.396 363.3 123.965 361.081 123.906C360.953 122.272 359.776 120.724 357.78 119.563ZM309.066 147.688C308.348 147.273 307.945 146.711 307.945 146.125C307.945 145.539 308.348 144.977 309.066 144.563L346.954 122.688C347.672 122.273 348.646 122.04 349.661 122.04C350.676 122.04 351.649 122.273 352.367 122.688C353.085 123.102 353.488 123.664 353.488 124.25C353.488 124.836 353.085 125.398 352.367 125.813L314.478 147.688C313.761 148.102 312.787 148.335 311.772 148.335C310.757 148.335 309.784 148.102 309.066 147.688ZM298.24 141.438C297.523 141.023 297.119 140.461 297.119 139.875C297.119 139.289 297.523 138.727 298.24 138.313L336.129 116.438C336.847 116.023 337.82 115.79 338.835 115.79C339.85 115.79 340.824 116.023 341.542 116.438C342.259 116.852 342.663 117.414 342.663 118C342.663 118.586 342.26 119.148 341.542 119.563L303.653 141.438C302.935 141.852 301.962 142.085 300.947 142.085C299.932 142.085 298.958 141.852 298.24 141.438ZM287.415 135.188C286.697 134.773 286.294 134.211 286.294 133.625C286.294 133.039 286.697 132.477 287.415 132.063L325.304 110.188C326.022 109.773 326.995 109.54 328.01 109.54C329.025 109.54 329.999 109.773 330.716 110.188C331.434 110.602 331.837 111.164 331.837 111.75C331.837 112.336 331.434 112.898 330.716 113.313L292.828 135.188C292.11 135.602 291.137 135.835 290.121 135.835C289.106 135.835 288.133 135.602 287.415 135.188ZM276.59 128.938C275.872 128.523 275.469 127.961 275.469 127.375C275.469 126.789 275.872 126.227 276.59 125.813L314.478 103.938C315.196 103.523 316.17 103.29 317.185 103.29C318.2 103.29 319.173 103.523 319.891 103.938C320.609 104.352 321.012 104.914 321.012 105.5C321.012 106.086 320.609 106.648 319.891 107.063L282.002 128.938C281.285 129.352 280.311 129.585 279.296 129.585C278.281 129.585 277.308 129.352 276.59 128.938ZM265.765 122.688C265.047 122.273 264.644 121.711 264.644 121.125C264.644 120.539 265.047 119.977 265.765 119.563L303.653 97.6877C304.371 97.2733 305.344 97.0405 306.359 97.0405C307.375 97.0405 308.348 97.2733 309.066 97.6877C309.784 98.1021 310.187 98.6641 310.187 99.2502C310.187 99.8362 309.784 100.398 309.066 100.813L271.177 122.688C270.459 123.102 269.486 123.335 268.471 123.335C267.456 123.335 266.482 123.102 265.765 122.688ZM254.939 116.438C254.221 116.023 253.818 115.461 253.818 114.875C253.818 114.289 254.221 113.727 254.939 113.313L292.828 91.4377C293.546 91.0233 294.519 90.7905 295.534 90.7905C296.549 90.7905 297.523 91.0233 298.24 91.4377C298.958 91.8521 299.361 92.4141 299.361 93.0002C299.361 93.5862 298.958 94.1483 298.24 94.5627L260.352 116.438C259.634 116.852 258.661 117.085 257.646 117.085C256.63 117.085 255.657 116.852 254.939 116.438ZM244.114 107.063L282.002 85.1877C282.72 84.7733 283.694 84.5405 284.709 84.5405C285.724 84.5405 286.697 84.7733 287.415 85.1877C288.133 85.6021 288.536 86.1641 288.536 86.7502C288.536 87.3362 288.133 87.8983 287.415 88.3127L249.527 110.188C248.809 110.602 247.835 110.835 246.82 110.835C245.805 110.835 244.832 110.602 244.114 110.188C243.396 109.773 242.993 109.211 242.993 108.625C242.993 108.039 243.396 107.477 244.114 107.063ZM363.192 132.063L325.304 153.938C324.586 154.352 323.613 154.585 322.597 154.585C321.582 154.585 320.609 154.352 319.891 153.938C319.173 153.523 318.77 152.961 318.77 152.375C318.77 151.789 319.173 151.227 319.891 150.813L357.78 128.938C358.497 128.523 359.471 128.29 360.486 128.29C361.501 128.29 362.475 128.523 363.192 128.938C363.91 129.352 364.313 129.914 364.313 130.5C364.313 131.086 363.91 131.648 363.192 132.063Z" fill="#52BD95"/>
<path d="M411.906 88.3127C409.896 87.1599 407.214 86.4804 404.383 86.4065C404.265 84.7707 403.086 83.2203 401.081 82.0626C399.076 80.905 396.391 80.2246 393.558 80.1564C393.439 78.5207 392.261 76.9703 390.256 75.8126C388.251 74.655 385.565 73.9746 382.732 73.9064C382.614 72.2707 381.436 70.7203 379.431 69.5626C377.425 68.405 374.74 67.7246 371.907 67.6564C371.789 66.0207 370.61 64.4703 368.605 63.3126C366.6 62.155 363.915 61.4746 361.082 61.4064C360.963 59.7707 359.785 58.2203 357.78 57.0626C355.775 55.905 353.089 55.2246 350.256 55.1564C350.138 53.5207 348.96 51.9703 346.955 50.8126C344.95 49.655 342.264 48.9746 339.431 48.9064C339.313 47.2707 338.134 45.7203 336.129 44.5626C334.124 43.405 331.439 42.7246 328.606 42.6564C328.504 41.3756 327.758 40.1397 326.459 39.0996C325.161 38.0595 323.366 37.2603 321.293 36.7996C319.221 36.3389 316.961 36.2366 314.79 36.5053C312.618 36.7741 310.629 37.4021 309.066 38.3127L271.177 60.1877C269.6 61.0903 268.512 62.2385 268.047 63.4922C267.581 64.7459 267.759 66.0507 268.557 67.2472C269.355 68.4437 270.739 69.4801 272.54 70.2298C274.342 70.9796 276.482 71.4101 278.701 71.4689C278.819 73.1047 279.997 74.6551 282.003 75.8127C284.008 76.9704 286.693 77.6508 289.526 77.7189C289.644 79.3547 290.823 80.9051 292.828 82.0628C294.833 83.2204 297.518 83.9008 300.352 83.9689C300.47 85.6047 301.648 87.1551 303.653 88.3128C305.658 89.4704 308.344 90.1508 311.177 90.2189C311.295 91.8547 312.473 93.4051 314.478 94.5628C316.484 95.7204 319.169 96.4008 322.002 96.4689C322.12 98.1047 323.299 99.6551 325.304 100.813C327.309 101.97 329.994 102.651 332.827 102.719C332.946 104.355 334.124 105.905 336.129 107.063C338.134 108.22 340.82 108.901 343.653 108.969C343.771 110.605 344.949 112.155 346.954 113.313C348.96 114.47 351.645 115.151 354.478 115.219C354.596 116.855 355.775 118.405 357.78 119.563C359.785 120.72 362.47 121.401 365.303 121.469C365.405 122.75 366.151 123.986 367.45 125.026C368.748 126.066 370.543 126.865 372.616 127.326C374.688 127.786 376.948 127.889 379.12 127.62C381.291 127.351 383.28 126.723 384.843 125.813L422.732 103.938C424.309 103.035 425.397 101.887 425.862 100.633C426.328 99.3795 426.15 98.0747 425.352 96.8782C424.555 95.6817 423.17 94.6453 421.369 93.8956C419.567 93.1458 417.427 92.7153 415.208 92.6564C415.08 91.022 413.903 89.4736 411.906 88.3127ZM363.192 116.438C362.475 116.023 362.071 115.461 362.071 114.875C362.071 114.289 362.475 113.727 363.192 113.313L401.081 91.4377C401.799 91.0233 402.772 90.7905 403.787 90.7905C404.803 90.7905 405.776 91.0233 406.494 91.4377C407.212 91.8521 407.615 92.4141 407.615 93.0002C407.615 93.5863 407.212 94.1483 406.494 94.5627L368.605 116.438C367.887 116.852 366.914 117.085 365.899 117.085C364.884 117.085 363.91 116.852 363.192 116.438ZM352.367 110.188C351.649 109.773 351.246 109.211 351.246 108.625C351.246 108.039 351.649 107.477 352.367 107.063L390.256 85.1877C390.974 84.7733 391.947 84.5405 392.962 84.5405C393.977 84.5405 394.951 84.7733 395.668 85.1877C396.386 85.6021 396.789 86.1641 396.789 86.7502C396.789 87.3362 396.386 87.8983 395.668 88.3127L357.78 110.188C357.062 110.602 356.089 110.835 355.074 110.835C354.058 110.835 353.085 110.602 352.367 110.188ZM341.542 103.938C340.824 103.523 340.421 102.961 340.421 102.375C340.421 101.789 340.824 101.227 341.542 100.813L379.43 78.9377C380.148 78.5233 381.122 78.2905 382.137 78.2905C383.152 78.2905 384.125 78.5233 384.843 78.9377C385.561 79.3521 385.964 79.9141 385.964 80.5002C385.964 81.0862 385.561 81.6483 384.843 82.0627L346.955 103.938C346.237 104.352 345.263 104.585 344.248 104.585C343.233 104.585 342.26 104.352 341.542 103.938ZM330.717 97.6877C329.999 97.2733 329.596 96.7112 329.596 96.1252C329.596 95.5391 329.999 94.9771 330.717 94.5627L368.605 72.6877C369.323 72.2733 370.296 72.0405 371.311 72.0405C372.327 72.0405 373.3 72.2733 374.018 72.6877C374.736 73.1021 375.139 73.6641 375.139 74.2502C375.139 74.8362 374.736 75.3983 374.018 75.8127L336.129 97.6877C335.411 98.1021 334.438 98.3349 333.423 98.3349C332.408 98.3349 331.434 98.1021 330.717 97.6877ZM319.891 91.4377C319.173 91.0233 318.77 90.4612 318.77 89.8752C318.77 89.2891 319.173 88.7271 319.891 88.3127L357.78 66.4377C358.498 66.0233 359.471 65.7905 360.486 65.7905C361.501 65.7905 362.475 66.0233 363.192 66.4377C363.91 66.8521 364.313 67.4141 364.313 68.0002C364.313 68.5862 363.91 69.1483 363.192 69.5627L325.304 91.4377C324.586 91.8521 323.613 92.0849 322.598 92.0849C321.582 92.0849 320.609 91.8521 319.891 91.4377ZM309.066 85.1877C308.348 84.7733 307.945 84.2112 307.945 83.6252C307.945 83.0391 308.348 82.4771 309.066 82.0627L346.955 60.1877C347.672 59.7733 348.646 59.5405 349.661 59.5405C350.676 59.5405 351.649 59.7733 352.367 60.1877C353.085 60.6021 353.488 61.1641 353.488 61.7502C353.488 62.3362 353.085 62.8983 352.367 63.3127L314.479 85.1877C313.761 85.6021 312.787 85.8349 311.772 85.8349C310.757 85.8349 309.784 85.6021 309.066 85.1877ZM298.241 78.9377C297.523 78.5233 297.12 77.9612 297.12 77.3752C297.12 76.7891 297.523 76.2271 298.241 75.8127L336.129 53.9377C336.847 53.5233 337.82 53.2905 338.836 53.2905C339.851 53.2905 340.824 53.5233 341.542 53.9377C342.26 54.3521 342.663 54.9141 342.663 55.5002C342.663 56.0862 342.26 56.6483 341.542 57.0627L303.653 78.9377C302.935 79.3521 301.962 79.5849 300.947 79.5849C299.932 79.5849 298.958 79.3521 298.241 78.9377ZM287.415 72.6877C286.697 72.2733 286.294 71.7112 286.294 71.1252C286.294 70.5391 286.697 69.9771 287.415 69.5627L325.304 47.6877C326.022 47.2733 326.995 47.0405 328.01 47.0405C329.025 47.0405 329.999 47.2733 330.717 47.6877C331.434 48.1021 331.838 48.6641 331.838 49.2502C331.838 49.8362 331.434 50.3983 330.717 50.8127L292.828 72.6877C292.11 73.1021 291.137 73.3349 290.122 73.3349C289.107 73.3349 288.133 73.1021 287.415 72.6877ZM276.59 63.3127L314.479 41.4377C315.196 41.0233 316.17 40.7905 317.185 40.7905C318.2 40.7905 319.173 41.0233 319.891 41.4377C320.609 41.8521 321.012 42.4141 321.012 43.0002C321.012 43.5862 320.609 44.1483 319.891 44.5627L282.003 66.4377C281.285 66.8521 280.311 67.0849 279.296 67.0849C278.281 67.0849 277.308 66.8521 276.59 66.4377C275.872 66.0233 275.469 65.4612 275.469 64.8752C275.469 64.2891 275.872 63.7271 276.59 63.3127ZM417.319 100.813L379.43 122.688C378.713 123.102 377.739 123.335 376.724 123.335C375.709 123.335 374.736 123.102 374.018 122.688C373.3 122.273 372.897 121.711 372.897 121.125C372.897 120.539 373.3 119.977 374.018 119.563L411.906 97.6877C412.624 97.2733 413.598 97.0405 414.613 97.0405C415.628 97.0405 416.601 97.2733 417.319 97.6877C418.037 98.1021 418.44 98.6642 418.44 99.2502C418.44 99.8363 418.037 100.398 417.319 100.813Z" fill="#52BD95"/>
<path d="M225.169 89.875L227.876 88.3125L238.701 94.5625C239.419 94.9769 240.392 95.2097 241.407 95.2097C242.423 95.2097 243.396 94.9769 244.114 94.5625L260.352 85.1875C261.07 84.7731 261.473 84.2111 261.473 83.625C261.473 83.0389 261.07 82.4769 260.352 82.0625L249.526 75.8125L252.233 74.25C252.768 73.9409 253.132 73.5472 253.28 73.1187C253.427 72.6901 253.351 72.2458 253.062 71.8421C252.772 71.4384 252.282 71.0934 251.652 70.8506C251.023 70.6078 250.283 70.4782 249.526 70.4781L222.463 70.4781C221.448 70.4782 220.475 70.711 219.757 71.1253C219.04 71.5396 218.637 72.1016 218.636 72.6875L218.636 88.3125C218.637 88.7495 218.861 89.1766 219.282 89.5399C219.702 89.9032 220.3 90.1864 220.999 90.3536C221.698 90.5209 222.468 90.5647 223.21 90.4795C223.952 90.3943 224.634 90.1839 225.169 89.875ZM226.29 74.8969L240.628 74.8969C240.305 75.3066 240.207 75.7635 240.346 76.2063C240.486 76.6492 240.856 77.0569 241.407 77.375L252.233 83.625L241.407 89.875L230.582 83.625C230.031 83.3065 229.325 83.0928 228.558 83.0124C227.791 82.932 227 82.9887 226.29 83.175L226.29 74.8969Z" fill="#52BD95"/>
<path d="M365.899 46.125L368.605 44.5625L379.431 50.8125C380.148 51.2269 381.122 51.4597 382.137 51.4597C383.152 51.4597 384.126 51.2269 384.843 50.8125L401.081 41.4375C401.799 41.0231 402.202 40.4611 402.202 39.875C402.202 39.2889 401.799 38.7269 401.081 38.3125L390.256 32.0625L392.962 30.5C393.497 30.1909 393.862 29.7972 394.009 29.3687C394.157 28.9401 394.081 28.4958 393.791 28.0921C393.502 27.6884 393.011 27.3434 392.382 27.1006C391.753 26.8578 391.013 26.7282 390.256 26.7281L363.193 26.7281C362.178 26.7282 361.205 26.961 360.487 27.3753C359.769 27.7896 359.366 28.3516 359.366 28.9375L359.366 44.5625C359.366 44.9995 359.591 45.4266 360.011 45.7899C360.432 46.1532 361.029 46.4364 361.728 46.6037C362.428 46.7709 363.197 46.8147 363.939 46.7295C364.682 46.6443 365.364 46.4339 365.899 46.125ZM367.019 31.1469L381.358 31.1469C381.035 31.5566 380.937 32.0135 381.076 32.4563C381.215 32.8992 381.585 33.3069 382.137 33.625L392.962 39.875L382.137 46.125L371.312 39.875C370.761 39.5565 370.055 39.3428 369.287 39.2624C368.52 39.1819 367.729 39.2387 367.019 39.425L367.019 31.1469Z" fill="#52BD95"/>
<path d="M436.859 42.6564C436.757 41.3756 436.011 40.1397 434.712 39.0996C433.414 38.0595 431.619 37.2603 429.546 36.7996C427.474 36.3389 425.214 36.2366 423.042 36.5053C420.871 36.774 418.882 37.4021 417.319 38.3127L379.43 60.1877C377.853 61.0903 376.765 62.2385 376.3 63.4922C375.834 64.7459 376.011 66.0507 376.809 67.2472C377.607 68.4437 378.992 69.4801 380.793 70.2298C382.595 70.9796 384.735 71.4101 386.954 71.4689C387.072 73.1047 388.25 74.6551 390.255 75.8127C392.261 76.9704 394.946 77.6508 397.779 77.7189C397.897 79.3547 399.076 80.9051 401.081 82.0628C403.086 83.2204 405.771 83.9008 408.604 83.9689C408.723 85.6047 409.901 87.1551 411.906 88.3128C413.911 89.4704 416.597 90.1508 419.43 90.2189C419.532 91.4997 420.277 92.7357 421.576 93.7758C422.874 94.8159 424.67 95.6151 426.742 96.0758C428.814 96.5365 431.074 96.6387 433.246 96.37C435.417 96.1013 437.406 95.4733 438.969 94.5627L476.858 72.6877C478.435 71.7851 479.523 70.6368 479.988 69.3832C480.454 68.1295 480.277 66.8247 479.479 65.6282C478.681 64.4317 477.297 63.3953 475.495 62.6455C473.694 61.8958 471.553 61.4652 469.334 61.4064C469.216 59.7707 468.038 58.2203 466.033 57.0626C464.028 55.905 461.342 55.2246 458.509 55.1564C458.391 53.5207 457.213 51.9703 455.208 50.8126C453.202 49.655 450.517 48.9746 447.684 48.9064C447.566 47.2707 446.387 45.7203 444.382 44.5626C442.377 43.405 439.692 42.7246 436.859 42.6564ZM449.795 53.9377C450.513 54.3521 450.916 54.9141 450.916 55.5002C450.916 56.0862 450.513 56.6483 449.795 57.0627L411.906 78.9377C411.188 79.3521 410.215 79.5849 409.2 79.5849C408.185 79.5849 407.211 79.3521 406.493 78.9377C405.776 78.5233 405.372 77.9612 405.372 77.3752C405.372 76.7891 405.776 76.2271 406.493 75.8127L444.382 53.9377C445.1 53.5233 446.073 53.2905 447.088 53.2905C448.104 53.2905 449.077 53.5233 449.795 53.9377ZM460.62 60.1877C461.338 60.6021 461.741 61.1641 461.741 61.7502C461.741 62.3362 461.338 62.8983 460.62 63.3127L422.731 85.1877C422.014 85.6021 421.04 85.8349 420.025 85.8349C419.01 85.8349 418.037 85.6021 417.319 85.1877C416.601 84.7733 416.198 84.2112 416.198 83.6252C416.198 83.0391 416.601 82.4771 417.319 82.0627L455.207 60.1877C455.925 59.7733 456.899 59.5405 457.914 59.5405C458.929 59.5405 459.902 59.7733 460.62 60.1877ZM401.081 72.6877C400.363 73.1021 399.39 73.3349 398.375 73.3349C397.359 73.3349 396.386 73.1021 395.668 72.6877C394.95 72.2733 394.547 71.7112 394.547 71.1252C394.547 70.5391 394.95 69.9771 395.668 69.5627L433.557 47.6877C434.275 47.2733 435.248 47.0405 436.263 47.0405C437.278 47.0405 438.252 47.2733 438.969 47.6877C439.687 48.1021 440.09 48.6641 440.09 49.2502C440.09 49.8362 439.687 50.3983 438.969 50.8127L401.081 72.6877ZM384.843 63.3127L422.731 41.4377C423.449 41.0233 424.423 40.7905 425.438 40.7905C426.453 40.7905 427.426 41.0233 428.144 41.4377C428.862 41.8521 429.265 42.4141 429.265 43.0002C429.265 43.5862 428.862 44.1483 428.144 44.5627L390.256 66.4377C389.538 66.8521 388.564 67.0849 387.549 67.0849C386.534 67.0849 385.561 66.8521 384.843 66.4377C384.125 66.0233 383.722 65.4612 383.722 64.8752C383.722 64.2891 384.125 63.7271 384.843 63.3127ZM471.445 69.5627L433.557 91.4377C432.839 91.8521 431.866 92.0849 430.85 92.0849C429.835 92.0849 428.862 91.8521 428.144 91.4377C427.426 91.0233 427.023 90.4612 427.023 89.8752C427.023 89.2891 427.426 88.7271 428.144 88.3127L466.033 66.4377C466.751 66.0233 467.724 65.7905 468.739 65.7905C469.754 65.7905 470.728 66.0233 471.445 66.4377C472.163 66.8521 472.566 67.4141 472.566 68.0002C472.566 68.5862 472.163 69.1483 471.445 69.5627Z" fill="#52BD95"/>
</svg>
