<svg width="173" height="173" viewBox="0 0 173 173" fill="none" xmlns="http://www.w3.org/2000/svg">
<g filter="url(#filter0_d)">
<path d="M112.77 25H60C54.4772 25 50 29.4772 50 35V87.7699C50 93.2928 54.4772 97.7699 60 97.7699H112.77C118.293 97.7699 122.77 93.2928 122.77 87.7699V35C122.77 29.4772 118.293 25 112.77 25Z" fill="#52BD95"/>
<g clip-path="url(#clip0)">
<path d="M100.025 71.5065C101.132 70.3542 101.815 68.7911 101.815 67.0706C101.815 63.5371 98.9401 60.6624 95.4066 60.6624C94.3832 60.6624 93.3763 60.9105 92.4748 61.3736C91.4631 59.3887 89.5789 57.9199 87.3309 57.4755V49.9202L94.0552 47.087C94.5027 46.8985 94.7876 46.4535 94.7715 45.9682C94.7553 45.4829 94.4416 45.0578 93.9826 44.8994L87.3309 42.6031V42.1917C87.3309 41.5445 86.8062 41.0198 86.159 41.0198C85.5118 41.0198 84.9871 41.5445 84.9871 42.1917V57.3913C82.5409 57.6936 80.4623 59.198 79.3616 61.2934C78.5025 60.8824 77.5554 60.6625 76.5933 60.6625C73.0598 60.6625 70.1852 63.5372 70.1852 67.0707C70.1852 68.7912 70.868 70.3542 71.9752 71.5066C68.5197 72.5667 66 75.7874 66 79.5859V79.8082C66 80.4554 66.5247 80.9801 67.1719 80.9801H104.828C105.475 80.9801 106 80.4554 106 79.8082V79.5859C106 75.7874 103.48 72.5667 100.025 71.5065ZM95.4066 63.0062C97.6477 63.0062 99.471 64.8295 99.471 67.0706C99.471 69.3118 97.6477 71.1351 95.4066 71.1351C95.3934 71.1351 95.3805 71.1363 95.3675 71.1367H94.5097C93.5254 70.4883 92.3984 70.0398 91.1864 69.8502C92.478 68.5208 93.2748 66.7081 93.2748 64.7127C93.2748 64.3545 93.2486 64.0024 93.199 63.6577C93.8548 63.2307 94.6095 63.0062 95.4066 63.0062ZM90.3239 46.1159L87.3309 47.3769V45.0826L90.3239 46.1159ZM85.8973 59.6789C88.6729 59.6789 90.9311 61.937 90.9311 64.7127C90.9311 67.4884 88.673 69.7466 85.8973 69.7466C83.1216 69.7466 80.8634 67.4884 80.8634 64.7127C80.8634 61.937 83.1216 59.6789 85.8973 59.6789ZM76.5934 63.0062C77.3153 63.0062 78.0026 63.1902 78.613 63.542C78.5519 63.9234 78.5197 64.3143 78.5197 64.7127C78.5197 66.7208 79.3265 68.5437 80.6325 69.8753C79.478 70.0776 78.4036 70.5153 77.4603 71.1367H76.6242C76.6138 71.1365 76.6037 71.1352 76.5933 71.1352C74.3521 71.1352 72.5289 69.3119 72.5289 67.0707C72.5289 64.8295 74.3522 63.0062 76.5934 63.0062ZM74.4491 73.4805H75.0891C74.1792 74.828 73.6476 76.4507 73.6476 78.1953V78.6363H68.4174C68.8748 75.719 71.4054 73.4805 74.4491 73.4805ZM75.9913 78.1953C75.9913 74.83 78.7292 72.0921 82.0945 72.0921H84.7254V78.6363H75.9913V78.1953ZM95.9788 78.6363H87.0691V72.0921H89.8756C93.2409 72.0921 95.9788 74.83 95.9788 78.1953V78.6363ZM98.3226 78.6363V78.1953C98.3226 76.4506 97.7909 74.8279 96.8811 73.4805H97.5509C100.595 73.4805 103.125 75.719 103.583 78.6363H98.3226Z" fill="white"/>
</g>
</g>
<defs>
<filter id="filter0_d" x="0" y="0" width="172.77" height="172.77" filterUnits="userSpaceOnUse" color-interpolation-filters="sRGB">
<feFlood flood-opacity="0" result="BackgroundImageFix"/>
<feColorMatrix in="SourceAlpha" type="matrix" values="0 0 0 0 0 0 0 0 0 0 0 0 0 0 0 0 0 0 127 0"/>
<feOffset dy="25"/>
<feGaussianBlur stdDeviation="25"/>
<feColorMatrix type="matrix" values="0 0 0 0 0.501961 0 0 0 0 0.443137 0 0 0 0 0.882353 0 0 0 0.05 0"/>
<feBlend mode="normal" in2="BackgroundImageFix" result="effect1_dropShadow"/>
<feBlend mode="normal" in="SourceGraphic" in2="effect1_dropShadow" result="shape"/>
</filter>
<clipPath id="clip0">
<rect width="40" height="40" fill="white" transform="translate(66 41)"/>
</clipPath>
</defs>
</svg>
