<svg width="452" height="231" viewBox="0 0 452 231" fill="none" xmlns="http://www.w3.org/2000/svg">
<path d="M253.496 96.8108L209.288 122.335L181.064 106.04C175.055 102.57 164.881 103.55 161.158 107.965L117.543 159.653C114.909 162.774 115.996 166.52 120.248 168.975L211.43 221.619C219.484 226.269 232.588 226.269 240.643 221.619L355.156 155.504C359.989 152.715 359.989 148.175 355.156 145.385L271.024 96.8108C266.192 94.0209 258.328 94.0209 253.496 96.8108ZM124.971 161.743C170.898 108.66 167.271 109.167 171.618 108.747C175.4 108.381 174.459 109.462 203.445 125.708L134.346 165.602C129.689 168.291 122.107 165.136 124.971 161.743ZM349.314 152.131L234.8 218.246C229.968 221.036 222.105 221.036 217.272 218.246L135.163 170.84C138.697 170.079 259.3 100.207 259.339 100.184C260.95 99.2539 263.57 99.2539 265.181 100.184L283.942 111.016L253.496 128.594C241.505 135.517 241.505 146.782 253.496 153.705C265.487 160.628 284.999 160.628 296.99 153.705L327.437 136.127L349.314 148.758C350.925 149.688 350.925 151.201 349.314 152.131ZM289.785 114.389L321.594 132.754L291.148 150.332C282.378 155.396 268.109 155.396 259.339 150.332C250.569 145.269 250.569 137.03 259.339 131.967L289.785 114.389Z" fill="#52BD95"/>
<path d="M268.297 72.5237C291.385 59.1939 291.385 37.5043 268.297 24.1746C245.209 10.8448 207.642 10.8448 184.554 24.1746C161.466 37.5043 161.466 59.1939 184.554 72.5237C207.642 85.8534 245.209 85.8534 268.297 72.5237ZM190.396 27.5478C210.263 16.0778 242.588 16.0778 262.454 27.5478C282.321 39.0177 282.321 57.6805 262.454 69.1505C242.588 80.6205 210.263 80.6205 190.396 69.1505C170.53 57.6805 170.53 39.0177 190.396 27.5478Z" fill="#52BD95"/>
<path d="M150.085 105.75L142.792 103.507L132.82 114.315C125.097 95.5803 135.576 75.3726 160.767 62.2981L155.243 58.7504C127.696 73.0426 116.197 94.8481 124.795 115.478L106.591 109.879L102.706 114.089L133.618 123.596L150.085 105.75Z" fill="#52BD95"/>
<path d="M287.415 86.085L295.23 87.6342L302.544 75.3344C313.684 86.5431 317.459 99.9172 312.881 112.71L320.972 113.676C325.757 100.305 322.162 86.3502 311.141 74.452L329.231 78.0377L331.914 73.5255L298.788 66.9594L287.415 86.085Z" fill="#52BD95"/>
<path d="M268.557 145.01C273.389 147.8 281.252 147.8 286.084 145.01C290.917 142.22 290.917 137.68 286.084 134.89C281.252 132.1 273.389 132.1 268.557 134.89C263.725 137.68 263.725 142.22 268.557 145.01ZM280.242 138.263C284.108 140.496 278.262 143.867 274.399 141.637C272.788 140.707 276.38 136.034 280.242 138.263Z" fill="#52BD95"/>
<path d="M224.135 42.0846L218.933 39.0811L231.189 32.0053L223.097 27.3332L189.614 46.6645L197.706 51.3365L209.961 44.2613L215.183 47.2764C205.79 53.2837 200.447 58.7622 202.929 60.1947C205.41 61.6271 214.899 58.5427 225.304 53.1196L241.516 62.4796C243.341 61.7832 245.072 60.9708 246.679 60.0428C248.142 59.1985 249.438 58.2948 250.568 57.3455L234.296 47.9509C243.932 41.8461 249.458 36.2355 246.942 34.7833C244.427 33.331 234.709 36.5212 224.135 42.0846ZM228.133 49.3351C217.091 55.7103 206.477 59.9185 204.426 58.7341C202.674 57.723 207.73 53.109 216.116 47.8149L222.064 51.2492C223.767 50.5138 225.374 49.7102 226.873 48.845C228.372 47.9793 229.764 47.0513 231.037 46.0689L225.07 42.6242C234.42 37.6474 242.633 34.621 244.412 35.648C246.463 36.8325 239.174 42.9606 228.133 49.3351Z" fill="#52BD95"/>
</svg>
