<svg width="340" height="253" viewBox="0 0 340 253" fill="none" xmlns="http://www.w3.org/2000/svg">
<path d="M194.244 106.074L154.362 128.542L126.41 112.04C120.458 108.526 110.906 109.064 107.721 113.101L70.4014 160.357C68.1481 163.21 69.4628 166.797 73.6737 169.284L163.979 222.598C171.956 227.307 184.356 227.808 191.622 223.715L294.927 165.515C299.286 163.059 298.939 158.762 294.153 155.937L210.829 106.744C206.043 103.919 198.603 103.618 194.244 106.074ZM77.5901 162.618C116.991 114.131 113.597 114.473 117.679 114.241C121.229 114.039 120.421 115.027 149.092 131.511L86.7566 166.63C82.5555 168.997 75.1394 165.721 77.5901 162.618ZM289.14 162.099L185.835 220.299C181.476 222.754 174.036 222.454 169.25 219.628L87.9295 171.619C91.2153 171.034 199.995 109.51 200.03 109.49C201.483 108.671 203.963 108.772 205.558 109.713L224.139 120.683L196.673 136.157C185.856 142.251 186.717 152.914 198.593 159.925C210.469 166.937 228.932 167.683 239.749 161.588L267.216 146.114L288.882 158.906C290.478 159.848 290.594 161.28 289.14 162.099ZM229.926 124.099L261.429 142.698L233.963 158.172C226.051 162.629 212.549 162.084 203.864 156.956C195.178 151.828 194.548 144.03 202.46 139.573L229.926 124.099Z" fill="#52BD95"/>
<path d="M206.392 83.6519C227.22 71.9179 225.562 51.3884 202.696 37.8889C179.83 24.3894 144.282 22.9531 123.454 34.687C102.626 46.421 104.284 66.9505 127.15 80.45C150.016 93.9495 185.565 95.3859 206.392 83.6519ZM129.241 38.1032C147.163 28.0063 177.75 29.2423 197.426 40.8583C217.101 52.4744 218.528 70.1389 200.606 80.2357C182.684 90.3326 152.097 89.0967 132.421 77.4806C112.745 65.8646 111.319 48.2001 129.241 38.1032Z" fill="#52BD95"/>
<path d="M97.0746 110.581L90.0025 108.179L81.3923 118.028C72.6521 100 81.0233 81.2739 103.861 69.8619L98.3623 66.2927C73.3886 78.7672 64.1751 98.9667 73.8875 118.822L56.2338 112.826L52.8799 116.663L82.8566 126.843L97.0746 110.581Z" fill="#52BD95"/>
<path d="M225.52 97.2188L233.034 98.984L239.014 87.6217C250.412 98.6568 255.006 111.46 251.652 123.394L259.383 124.617C262.888 112.144 258.42 98.7983 247.082 87.1152L264.473 91.2008L266.667 87.0325L234.819 79.5511L225.52 97.2188Z" fill="#52BD95"/>
<path d="M212.18 152.271C216.966 155.096 224.406 155.397 228.765 152.941C233.124 150.485 232.777 146.188 227.991 143.363C223.206 140.537 215.765 140.237 211.406 142.693C207.047 145.148 207.394 149.445 212.18 152.271ZM222.721 146.332C226.55 148.593 221.276 151.56 217.45 149.301C215.855 148.359 218.896 144.074 222.721 146.332Z" fill="#52BD95"/>
<path d="M162.278 53.1525L157.126 50.1107L168.182 43.882L160.168 39.1505L129.962 56.1675L137.977 60.899L149.032 54.6708L154.204 57.7243C145.775 63.0511 141.138 68.0323 143.596 69.483C146.053 70.9337 154.796 68.3771 164.227 63.6419L180.284 73.1211C181.958 72.5318 183.534 71.829 184.983 71.0121C186.303 70.2689 187.461 69.4631 188.457 68.6078L172.341 59.0935C180.993 53.6837 185.793 48.5845 183.301 47.1138C180.81 45.643 171.858 48.2909 162.278 53.1525ZM166.615 60.1681C156.654 65.78 146.932 69.3573 144.901 68.1578C143.166 67.1338 147.597 62.9599 155.128 58.2697L161.019 61.7477C162.574 61.1167 164.033 60.4176 165.385 59.6559C166.738 58.8938 167.984 58.0688 169.113 57.1876L163.204 53.699C171.671 49.3459 179.211 46.7954 180.973 47.8355C183.004 49.035 176.576 54.5566 166.615 60.1681Z" fill="#52BD95"/>
</svg>
