<svg width="306" height="258" viewBox="0 0 306 258" fill="none" xmlns="http://www.w3.org/2000/svg">
<path d="M48.2798 104.378L41.7947 102.874C40.9046 104.153 40.0704 105.467 39.3167 106.777L45.9487 108.049C46.658 106.817 47.442 105.581 48.2798 104.378Z" fill="#52BD95"/>
<path d="M114.544 63.2464C112.275 63.685 110.002 64.1694 107.789 64.6864L110.409 68.4269C112.491 67.9408 114.629 67.4852 116.763 67.0723L114.544 63.2464Z" fill="#52BD95"/>
<path d="M73.1285 82.7196C82.258 77.4486 92.7148 73.1699 104.208 70.0023L101.198 66.3615C88.9862 69.727 77.8798 74.2708 68.1873 79.8668C68.187 79.867 68.1867 79.8672 68.186 79.8676C58.4286 85.501 50.5205 91.9603 44.6804 99.0657L50.9938 100.795C56.49 94.1074 63.9373 88.0261 73.1285 82.7196Z" fill="#52BD95"/>
<path d="M190.521 193.855C192.788 193.417 195.061 192.932 197.276 192.414L194.654 188.674C192.572 189.161 190.434 189.617 188.3 190.029L190.521 193.855Z" fill="#52BD95"/>
<path d="M231.904 174.388C222.781 179.656 212.333 183.932 200.852 187.098L203.864 190.739C216.063 187.375 227.159 182.833 236.845 177.241C246.611 171.603 254.524 165.138 260.366 158.026L254.052 156.297C248.554 162.991 241.102 169.078 231.904 174.388Z" fill="#52BD95"/>
<path d="M256.765 152.714L263.251 154.217C264.141 152.937 264.974 151.623 265.728 150.313L259.095 149.042C258.386 150.274 257.602 151.51 256.765 152.714Z" fill="#52BD95"/>
<path d="M116.733 190.03C114.815 189.658 112.89 189.252 111.009 188.82L108.428 192.569C110.427 193.028 112.474 193.461 114.513 193.855L116.733 190.03Z" fill="#52BD95"/>
<path d="M73.1289 174.388C64.0922 169.171 56.7395 163.203 51.2749 156.65L44.979 158.401C50.7854 165.363 58.5937 171.702 68.1878 177.241C78.0496 182.935 89.3658 187.536 101.821 190.917L104.794 187.266C93.0719 184.084 82.4179 179.751 73.1289 174.388Z" fill="#52BD95"/>
<path d="M46.1597 149.413L39.5398 150.706C40.3058 152.014 41.1521 153.324 42.0555 154.602L48.5257 153.077C47.6764 151.876 46.8798 150.643 46.1597 149.413Z" fill="#52BD95"/>
<path d="M188.91 67.1984C191.038 67.618 193.171 68.0811 195.25 68.5751L197.909 64.8437C195.699 64.3187 193.431 63.8263 191.169 63.3801L188.91 67.1984Z" fill="#52BD95"/>
<path d="M204.479 66.5415L201.431 70.1719C212.686 73.3216 222.938 77.5431 231.904 82.7195C241.262 88.1228 248.806 94.3227 254.326 101.147L260.658 99.4401C254.793 92.1886 246.781 85.6033 236.845 79.8668C227.326 74.3712 216.437 69.8882 204.479 66.5415Z" fill="#52BD95"/>
<path d="M258.906 107.743L265.527 106.452C264.901 105.382 264.22 104.307 263.504 103.259L257.002 104.739C257.677 105.725 258.317 106.736 258.906 107.743Z" fill="#52BD95"/>
<path d="M95.6936 95.7472C64.3612 113.837 64.3612 143.271 95.6936 161.361C127.026 179.45 178.007 179.45 209.34 161.361C240.672 143.271 240.672 113.837 209.34 95.7472C178.007 77.6574 127.026 77.6574 95.6936 95.7472ZM86.9251 109.567C86.961 112.534 87.824 115.753 89.531 119.163C90.5591 121.216 91.8718 123.292 93.4457 125.37C88.837 126.025 84.0915 126.424 79.2607 126.554C79.7347 120.71 82.2916 114.913 86.9251 109.567ZM79.263 130.591C85.1581 130.446 90.9386 129.936 96.5277 129.079C101.76 134.858 108.94 140.579 117.631 145.843L98.2244 157.047C86.373 149.528 80.0506 140.122 79.263 130.591ZM103.166 159.9L122.572 148.695C132.363 154.084 143.067 158.464 153.829 161.528C152.368 164.561 151.437 167.693 151.068 170.885C133.853 170.691 116.736 167.029 103.166 159.9ZM158.087 170.773C158.425 168.198 159.164 165.667 160.283 163.206C163.129 163.874 165.968 164.449 168.783 164.918C174.689 165.904 180.265 166.402 185.403 166.423C176.787 168.913 167.493 170.363 158.087 170.773ZM201.712 159.81C194.489 162.751 183.655 163.201 170.724 161.043C167.967 160.583 165.181 160.014 162.385 159.345C165.619 154.277 170.534 149.584 176.951 145.514L201.712 159.81ZM172.007 142.66C164.994 147.071 159.597 152.157 156.016 157.654C146.239 154.8 136.494 150.774 127.513 145.842L152.517 131.407L172.007 142.66ZM147.575 128.554L122.572 142.989C114.695 138.208 108.154 133.051 103.306 127.85C113.117 125.789 122.19 122.616 130.061 118.442L147.576 128.554L147.575 128.554ZM125.117 115.588C117.79 119.442 109.333 122.35 100.194 124.207C98.5898 122.14 97.2632 120.078 96.244 118.042C92.5059 110.576 93.286 104.322 98.3803 100.151L125.117 115.588ZM149.053 86.2597C148.829 89.0489 148.137 91.7885 147.002 94.4494C143.402 93.5407 139.807 92.7828 136.25 92.1892C130.344 91.2035 124.769 90.7054 119.63 90.6847C128.889 88.0095 138.93 86.5333 149.053 86.2597ZM103.321 97.2981C110.545 94.3569 121.378 93.9068 134.31 96.0648C137.836 96.6532 141.407 97.4191 144.988 98.3453C141.771 103.622 136.733 108.504 130.058 112.735L103.321 97.2981ZM135.002 115.589C142.232 111.045 147.728 105.806 151.298 100.142C160.306 102.941 169.238 106.718 177.52 111.265L152.517 125.701L135.002 115.589ZM157.458 128.554L182.461 114.118C191.002 119.304 197.976 124.93 202.92 130.574C193.398 132.642 184.589 135.758 176.948 139.807L157.458 128.554ZM206.653 156.957L181.892 142.661C188.941 138.956 197.069 136.119 205.849 134.252C207.007 135.866 207.993 137.474 208.789 139.066C212.528 146.532 211.748 152.786 206.653 156.957ZM218.108 147.541C218.072 144.574 217.209 141.355 215.502 137.945C214.689 136.32 213.693 134.681 212.535 133.038C216.798 132.391 221.182 131.965 225.642 131.77C224.931 137.201 222.42 142.567 218.108 147.541ZM225.837 127.718C220.308 127.931 214.883 128.468 209.63 129.312C204.322 123.098 196.735 116.918 187.403 111.265L206.809 100.061C219.158 107.896 225.5 117.778 225.837 127.718ZM182.461 108.412C173.344 103.395 163.436 99.2498 153.426 96.2287C154.91 93.0019 155.795 89.6649 156.045 86.261C172.554 86.7157 188.844 90.3657 201.868 97.2082L182.461 108.412Z" fill="#52BD95"/>
<path d="M56.823 139.68C67.2672 133.65 67.2672 123.839 56.823 117.809C46.3788 111.779 29.3852 111.779 18.941 117.809C8.49677 123.839 8.49677 133.65 18.941 139.68C29.3852 145.71 46.3788 145.71 56.823 139.68ZM23.8821 120.661C31.6018 116.204 44.1622 116.204 51.8819 120.661C59.6015 125.118 59.6015 132.37 51.8819 136.827C44.1622 141.284 31.6018 141.284 23.8821 136.827C16.1624 132.37 16.1624 125.118 23.8821 120.661Z" fill="#52BD95"/>
<path d="M172.116 73.1153C182.56 67.0853 182.56 57.2741 172.116 51.2441C161.672 45.2141 144.678 45.2141 134.234 51.2441C123.79 57.2741 123.79 67.0853 134.234 73.1153C144.678 79.1453 161.672 79.1453 172.116 73.1153ZM139.175 54.0969C146.895 49.6399 159.455 49.6399 167.175 54.0969C174.895 58.5538 174.895 65.8056 167.175 70.2625C159.455 74.7195 146.895 74.7195 139.175 70.2625C131.455 65.8056 131.455 58.5538 139.175 54.0969Z" fill="#52BD95"/>
<path d="M133.575 183.993C123.131 190.023 123.131 199.834 133.575 205.864C144.019 211.894 161.013 211.894 171.457 205.864C181.901 199.834 181.901 190.023 171.457 183.993C161.013 177.963 144.019 177.963 133.575 183.993ZM166.516 203.011C158.796 207.468 146.236 207.468 138.516 203.011C130.797 198.554 130.797 191.302 138.516 186.845C146.236 182.388 158.796 182.388 166.516 186.845C174.236 191.302 174.236 198.554 166.516 203.011Z" fill="#52BD95"/>
<path d="M248.868 117.428C238.424 123.458 238.424 133.269 248.868 139.299C259.312 145.329 276.306 145.329 286.75 139.299C297.194 133.269 297.194 123.458 286.75 117.428C276.306 111.398 259.312 111.398 248.868 117.428ZM281.809 136.447C274.089 140.904 261.529 140.904 253.809 136.447C246.09 131.99 246.09 124.738 253.809 120.281C261.529 115.824 274.089 115.824 281.809 120.281C289.529 124.738 289.529 131.99 281.809 136.447Z" fill="#52BD95"/>
<path d="M45.2942 133.023C49.3811 130.664 49.3811 126.825 45.2942 124.465C41.2072 122.105 34.5577 122.105 30.4708 124.465C26.3838 126.825 26.3838 130.664 30.4708 133.023C34.5577 135.383 41.2072 135.383 45.2942 133.023ZM35.4119 127.318C36.7743 126.531 38.9906 126.531 40.353 127.318C41.7155 128.104 41.7155 129.384 40.353 130.171C38.9906 130.957 36.7743 130.957 35.4119 130.171C34.0495 129.384 34.0495 128.104 35.4119 127.318Z" fill="#52BD95"/>
<path d="M145.104 190.649C141.017 193.009 141.017 196.848 145.104 199.207C149.191 201.567 155.84 201.567 159.927 199.207C164.014 196.848 164.014 193.009 159.927 190.649C155.84 188.289 149.191 188.289 145.104 190.649ZM154.986 196.355C153.624 197.141 151.408 197.141 150.045 196.355C148.683 195.568 148.683 194.288 150.045 193.502C151.408 192.715 153.624 192.715 154.986 193.502C156.349 194.288 156.349 195.568 154.986 196.355Z" fill="#52BD95"/>
<path d="M160.587 66.4588C164.674 64.0992 164.674 60.2602 160.587 57.9005C156.5 55.5409 149.85 55.5409 145.763 57.9005C141.676 60.2602 141.676 64.0992 145.763 66.4588C149.85 68.8184 156.5 68.8184 160.587 66.4588ZM150.704 60.7533C152.067 59.9667 154.283 59.9667 155.646 60.7533C157.008 61.5399 157.008 62.8195 155.646 63.6061C154.283 64.3927 152.067 64.3927 150.704 63.6061C149.342 62.8195 149.342 61.5399 150.704 60.7533Z" fill="#52BD95"/>
<path d="M260.398 124.085C256.311 126.444 256.311 130.283 260.398 132.643C264.485 135.003 271.134 135.003 275.221 132.643C279.308 130.283 279.308 126.444 275.221 124.085C271.134 121.725 264.485 121.725 260.398 124.085ZM270.28 129.79C268.918 130.577 266.702 130.577 265.339 129.79C263.977 129.004 263.977 127.724 265.339 126.937C266.702 126.151 268.918 126.151 270.28 126.937C271.643 127.724 271.643 129.004 270.28 129.79Z" fill="#52BD95"/>
</svg>
