<svg width="394" height="331" viewBox="0 0 394 331" fill="none" xmlns="http://www.w3.org/2000/svg">
<path d="M62.6968 134.465L54.3719 132.534C53.2292 134.177 52.1584 135.863 51.1908 137.545L59.7043 139.178C60.6149 137.596 61.6214 136.01 62.6968 134.465Z" fill="#52BD95"/>
<path d="M147.761 81.6642C144.848 82.2273 141.931 82.8491 139.089 83.5128L142.453 88.3146C145.125 87.6905 147.87 87.1057 150.61 86.5756L147.761 81.6642Z" fill="#52BD95"/>
<path d="M94.5951 106.662C106.315 99.8958 119.738 94.4031 134.492 90.3369L130.628 85.6631C114.952 89.9834 100.695 95.8164 88.2522 103C88.2517 103 88.2513 103 88.2505 103.001C75.7248 110.233 65.5731 118.524 58.0762 127.646L66.1808 129.866C73.2363 121.281 82.7964 113.474 94.5951 106.662Z" fill="#52BD95"/>
<path d="M245.292 249.328C248.203 248.765 251.121 248.142 253.964 247.478L250.599 242.677C247.925 243.301 245.181 243.886 242.442 244.416L245.292 249.328Z" fill="#52BD95"/>
<path d="M298.417 224.338C286.705 231.1 273.294 236.589 258.555 240.653L262.421 245.327C278.081 241.008 292.326 235.179 304.76 228C317.295 220.762 327.454 212.463 334.953 203.333L326.848 201.114C319.79 209.707 310.224 217.521 298.417 224.338Z" fill="#52BD95"/>
<path d="M330.331 196.515L338.656 198.444C339.799 196.8 340.869 195.114 341.836 193.433L333.322 191.801C332.412 193.382 331.405 194.969 330.331 196.515Z" fill="#52BD95"/>
<path d="M150.571 244.417C148.108 243.94 145.637 243.418 143.223 242.864L139.91 247.677C142.475 248.266 145.103 248.821 147.721 249.327L150.571 244.417Z" fill="#52BD95"/>
<path d="M94.596 224.338C82.9956 217.64 73.5569 209.979 66.542 201.568L58.4598 203.814C65.9136 212.752 75.9372 220.889 88.2531 228C100.913 235.309 115.439 241.216 131.429 245.555L135.245 240.869C120.197 236.784 106.52 231.222 94.596 224.338Z" fill="#52BD95"/>
<path d="M59.9755 192.277L51.4776 193.937C52.4608 195.615 53.5473 197.298 54.7069 198.938L63.0128 196.981C61.9225 195.438 60.8999 193.856 59.9755 192.277Z" fill="#52BD95"/>
<path d="M243.225 86.7375C245.956 87.2761 248.695 87.8707 251.364 88.5047L254.777 83.7147C251.94 83.0408 249.029 82.4087 246.125 81.8359L243.225 86.7375Z" fill="#52BD95"/>
<path d="M263.211 85.8942L259.298 90.5546C273.746 94.5978 286.906 100.017 298.416 106.662C310.43 113.598 320.114 121.557 327.199 130.318L335.328 128.126C327.799 118.818 317.514 110.364 304.759 103C292.54 95.9453 278.561 90.1904 263.211 85.8942Z" fill="#52BD95"/>
<path d="M333.079 138.785L341.579 137.128C340.775 135.754 339.901 134.374 338.982 133.028L330.635 134.929C331.501 136.195 332.323 137.492 333.079 138.785Z" fill="#52BD95"/>
<path d="M123.562 123.386C83.3407 146.608 83.3406 184.392 123.562 207.614C163.784 230.836 229.229 230.836 269.45 207.614C309.672 184.392 309.672 146.608 269.45 123.386C229.229 100.164 163.784 100.164 123.562 123.386ZM112.306 141.126C112.352 144.935 113.46 149.067 115.651 153.444C116.971 156.08 118.656 158.745 120.677 161.413C114.76 162.254 108.669 162.766 102.467 162.933C103.076 155.43 106.358 147.989 112.306 141.126ZM102.47 168.115C110.038 167.929 117.458 167.274 124.633 166.174C131.35 173.593 140.567 180.936 151.723 187.694L126.811 202.076C111.597 192.424 103.481 180.351 102.47 168.115ZM133.154 205.739L158.066 191.356C170.635 198.273 184.375 203.896 198.191 207.83C196.316 211.722 195.121 215.743 194.647 219.841C172.548 219.592 150.574 214.891 133.154 205.739ZM203.657 219.696C204.09 216.391 205.039 213.142 206.476 209.982C210.13 210.841 213.774 211.578 217.388 212.181C224.969 213.447 232.127 214.086 238.723 214.113C227.662 217.309 215.732 219.17 203.657 219.696ZM259.659 205.623C250.386 209.399 236.479 209.977 219.879 207.207C216.339 206.616 212.764 205.885 209.175 205.027C213.327 198.52 219.635 192.496 227.873 187.272L259.659 205.623ZM221.526 183.607C212.523 189.271 205.596 195.799 200.998 202.856C188.448 199.192 175.938 194.024 164.41 187.693L196.506 169.162L221.526 183.607ZM190.163 165.5L158.067 184.031C147.955 177.893 139.557 171.273 133.334 164.597C145.929 161.951 157.576 157.877 167.68 152.519L190.164 165.5L190.163 165.5ZM161.333 148.855C151.928 153.802 141.072 157.536 129.339 159.92C127.28 157.267 125.577 154.619 124.269 152.006C119.47 142.422 120.471 134.393 127.011 129.039L161.333 148.855ZM192.06 111.207C191.772 114.787 190.884 118.304 189.428 121.72C184.806 120.553 180.191 119.58 175.625 118.818C168.044 117.553 160.886 116.914 154.29 116.887C166.175 113.453 179.065 111.558 192.06 111.207ZM133.354 125.377C142.627 121.601 156.533 121.023 173.134 123.793C177.66 124.549 182.245 125.532 186.842 126.721C182.712 133.495 176.245 139.762 167.676 145.193L133.354 125.377ZM174.023 148.857C183.304 143.023 190.359 136.299 194.942 129.027C206.505 132.621 217.971 137.469 228.603 143.307L196.506 161.838L174.023 148.857ZM202.849 165.5L234.946 146.969C245.911 153.625 254.863 160.848 261.21 168.093C248.986 170.748 237.678 174.748 227.869 179.945L202.849 165.5ZM266.002 201.961L234.216 183.61C243.265 178.854 253.699 175.211 264.969 172.814C266.456 174.886 267.721 176.95 268.744 178.994C273.543 188.579 272.541 196.607 266.002 201.961ZM280.706 189.874C280.66 186.065 279.553 181.933 277.361 177.556C276.317 175.469 275.039 173.365 273.552 171.256C279.025 170.426 284.652 169.879 290.377 169.628C289.466 176.6 286.242 183.488 280.706 189.874ZM290.628 164.427C283.53 164.7 276.566 165.39 269.824 166.473C263.01 158.496 253.27 150.563 241.29 143.307L266.202 128.924C282.054 138.981 290.196 151.667 290.628 164.427ZM234.947 139.644C223.243 133.203 210.524 127.882 197.673 124.004C199.578 119.862 200.714 115.578 201.036 111.208C222.228 111.792 243.141 116.478 259.859 125.261L234.947 139.644Z" fill="#52BD95"/>
<path d="M73.6638 179.782C87.0711 172.042 87.0711 159.447 73.6638 151.706C60.2564 143.965 38.4417 143.965 25.0344 151.706C11.6271 159.447 11.6271 172.042 25.0344 179.782C38.4417 187.523 60.2564 187.523 73.6638 179.782ZM31.3774 155.368C41.2872 149.647 57.411 149.647 67.3208 155.368C77.2306 161.09 77.2306 170.399 67.3208 176.12C57.411 181.842 41.2872 181.842 31.3774 176.12C21.4675 170.399 21.4675 161.09 31.3774 155.368Z" fill="#52BD95"/>
<path d="M221.666 94.333C235.074 86.5923 235.074 73.9976 221.666 66.2568C208.259 58.5161 186.444 58.5161 173.037 66.2569C159.63 73.9976 159.63 86.5923 173.037 94.333C186.444 102.074 208.259 102.074 221.666 94.333ZM179.38 69.919C189.29 64.1975 205.413 64.1975 215.323 69.919C225.233 75.6404 225.233 84.9495 215.323 90.6709C205.413 96.3923 189.29 96.3923 179.38 90.6709C169.47 84.9495 169.47 75.6404 179.38 69.919Z" fill="#52BD95"/>
<path d="M172.191 236.667C158.784 244.408 158.784 257.002 172.191 264.743C185.598 272.484 207.413 272.484 220.82 264.743C234.228 257.002 234.228 244.408 220.82 236.667C207.413 228.926 185.598 228.926 172.191 236.667ZM214.478 261.081C204.568 266.802 188.444 266.802 178.534 261.081C168.624 255.36 168.624 246.051 178.534 240.329C188.444 234.608 204.568 234.608 214.478 240.329C224.387 246.051 224.387 255.36 214.478 261.081Z" fill="#52BD95"/>
<path d="M320.194 151.218C306.786 158.958 306.786 171.553 320.194 179.294C333.601 187.035 355.416 187.035 368.823 179.294C382.23 171.553 382.23 158.958 368.823 151.218C355.416 143.477 333.601 143.477 320.194 151.218ZM362.48 175.632C352.57 181.353 336.446 181.353 326.537 175.632C316.627 169.91 316.627 160.601 326.537 154.88C336.446 149.158 352.57 149.158 362.48 154.88C372.39 160.601 372.39 169.91 362.48 175.632Z" fill="#52BD95"/>
<path d="M58.8641 171.237C64.1106 168.208 64.1106 163.28 58.8641 160.251C53.6176 157.222 45.0817 157.222 39.8352 160.251C34.5888 163.28 34.5888 168.208 39.8352 171.237C45.0817 174.266 53.6176 174.266 58.8641 171.237ZM46.1782 163.913C47.9272 162.903 50.7722 162.903 52.5212 163.913C54.2701 164.923 54.2701 166.565 52.5212 167.575C50.7722 168.585 47.9272 168.585 46.1782 167.575C44.4292 166.565 44.4292 164.923 46.1782 163.913Z" fill="#52BD95"/>
<path d="M186.991 245.212C181.745 248.241 181.745 253.169 186.991 256.198C192.237 259.227 200.773 259.227 206.02 256.198C211.266 253.169 211.266 248.241 206.02 245.212C200.773 242.183 192.237 242.183 186.991 245.212ZM199.677 252.536C197.928 253.546 195.083 253.546 193.334 252.536C191.585 251.526 191.585 249.884 193.334 248.874C195.083 247.864 197.928 247.864 199.677 248.874C201.426 249.884 201.426 251.526 199.677 252.536Z" fill="#52BD95"/>
<path d="M206.866 85.7881C212.113 82.759 212.113 77.8308 206.866 74.8018C201.62 71.7727 193.084 71.7727 187.837 74.8018C182.591 77.8308 182.591 82.759 187.837 85.7881C193.084 88.8171 201.62 88.8171 206.866 85.7881ZM194.18 78.4639C195.929 77.4541 198.774 77.4541 200.523 78.4639C202.272 79.4736 202.272 81.1162 200.523 82.126C198.774 83.1357 195.929 83.1357 194.18 82.126C192.431 81.1162 192.431 79.4736 194.18 78.4639Z" fill="#52BD95"/>
<path d="M334.994 159.763C329.748 162.792 329.748 167.72 334.994 170.749C340.241 173.778 348.777 173.778 354.023 170.749C359.27 167.72 359.27 162.792 354.023 159.763C348.777 156.734 340.241 156.734 334.994 159.763ZM347.68 167.087C345.931 168.097 343.086 168.097 341.337 167.087C339.588 166.077 339.588 164.435 341.337 163.425C343.086 162.415 345.931 162.415 347.68 163.425C349.429 164.435 349.429 166.077 347.68 167.087Z" fill="#52BD95"/>
</svg>
