<svg width="430" height="248" viewBox="0 0 430 248" fill="none" xmlns="http://www.w3.org/2000/svg">
<path d="M269.766 92.2483C299.133 75.2932 299.133 47.7046 269.766 30.7495C240.399 13.7944 192.614 13.7944 163.247 30.7495C133.88 47.7046 133.88 75.2932 163.247 92.2483C192.614 109.203 240.399 109.203 269.766 92.2483ZM170.678 35.0401C195.948 20.4506 237.065 20.4506 262.334 35.0401C287.604 49.6296 287.604 73.3682 262.334 87.9577C237.065 102.547 195.948 102.547 170.678 87.9577C145.409 73.3682 145.409 49.6296 170.678 35.0401Z" fill="#52BD95"/>
<path d="M266.05 217.105C295.417 200.15 295.417 172.562 266.05 155.606C236.683 138.651 188.898 138.651 159.531 155.606C130.164 172.561 130.164 200.15 159.531 217.105C188.898 234.06 236.683 234.06 266.05 217.105ZM166.963 159.897C192.232 145.307 233.349 145.307 258.619 159.897C283.888 174.487 283.888 198.225 258.619 212.815C233.349 227.404 192.232 227.404 166.963 212.815C141.693 198.225 141.693 174.487 166.963 159.897Z" fill="#52BD95"/>
<path d="M217.344 203.81L189.894 187.962L194.846 187.017L220.657 201.919L217.344 203.81ZM234.557 200.763L207.325 185.041L210.676 183.172L237.851 198.861L234.557 200.763ZM202.849 206.47L177.89 192.06L179.621 189.234L205.432 204.136L202.849 206.47ZM211.348 186.185L179.671 192.618L181.761 189.377L209.803 183.643L211.357 186.18L211.348 186.185ZM223.88 168.767L189.48 174.355L187.784 171.857L222.612 166.175L223.889 168.762L223.88 168.767ZM237.795 200.6L202.905 206.503L201.623 203.915L236.264 198.06L237.795 200.6ZM182.795 191.93L177.89 192.06L187.84 171.889L192.36 172.69L182.795 191.93ZM244.252 182.423L220.506 168.714L222.664 166.155L247.556 180.527L244.252 182.423ZM225.574 193.429L221.133 192.614L231.382 173.987L235.826 174.804L225.583 193.434L225.574 193.429ZM211.954 186.385L207.56 185.488L218.863 166.874L223.257 167.771L211.954 186.385ZM237.788 200.593L233.38 199.712L242.791 180.26L247.492 180.487L237.779 200.587L237.788 200.593Z" fill="#52BD95"/>
<path d="M128.392 142.511L118.408 140.615L109.98 155.413C93.2468 132.902 98.7717 106.261 125.42 86.714L117.161 82.961C88.0187 104.33 81.8179 133.101 100.36 157.877L75.4374 153.145L72.1543 158.909L114.474 166.944L128.392 142.511Z" fill="#52BD95"/>
<path d="M294.083 109.498L304.024 111.469L313.327 95.8236C327.497 110.081 332.298 127.092 326.475 143.365L336.767 144.593C342.853 127.586 338.281 109.835 324.263 94.7011L347.272 99.2621L350.685 93.5227L308.549 85.1708L294.083 109.498Z" fill="#52BD95"/>
<path d="M213.594 53.5306L206.976 49.7101L222.565 40.7099L212.272 34.7672L169.683 59.3561L179.976 65.2988L195.564 56.2992L202.206 60.1344C190.258 67.7755 183.463 74.744 186.619 76.5661C189.775 78.3882 201.845 74.4648 215.08 67.5668L235.701 79.4724C238.023 78.5867 240.225 77.5533 242.269 76.373C244.129 75.2991 245.778 74.1496 247.215 72.9421L226.518 60.9923C238.775 53.2272 245.803 46.0907 242.603 44.2435C239.404 42.3962 227.043 46.454 213.594 53.5306ZM218.678 62.7531C204.633 70.8621 191.133 76.2148 188.523 74.7083C186.296 73.4222 192.726 67.5533 203.393 60.8194L210.959 65.1877C213.125 64.2523 215.169 63.2302 217.075 62.1296C218.982 61.0284 220.753 59.8481 222.372 58.5985L214.783 54.2169C226.675 47.8866 237.122 44.0371 239.384 45.3434C241.994 46.85 232.722 54.6448 218.678 62.7531Z" fill="#52BD95"/>
</svg>
