<svg width="344" height="199" viewBox="0 0 344 199" fill="none" xmlns="http://www.w3.org/2000/svg">
<path d="M215.813 73.7987C239.306 60.2346 239.306 38.1637 215.813 24.5996C192.319 11.0356 154.091 11.0356 130.597 24.5996C107.104 38.1637 107.104 60.2346 130.597 73.7987C154.091 87.3628 192.319 87.3628 215.813 73.7987ZM136.543 28.0321C156.758 16.3605 189.652 16.3605 209.867 28.0321C230.083 39.7037 230.083 58.6946 209.867 70.3662C189.652 82.0378 156.758 82.0378 136.543 70.3662C116.327 58.6946 116.327 39.7037 136.543 28.0321Z" fill="#52BD95"/>
<path d="M212.84 173.684C236.334 160.12 236.334 138.049 212.84 124.485C189.346 110.921 151.118 110.921 127.625 124.485C104.131 138.049 104.131 160.12 127.625 173.684C151.118 187.248 189.346 187.248 212.84 173.684ZM133.57 127.918C153.786 116.246 186.679 116.246 206.895 127.918C227.111 139.589 227.111 158.58 206.895 170.252C186.679 181.923 153.786 181.923 133.57 170.252C113.354 158.58 113.354 139.589 133.57 127.918Z" fill="#52BD95"/>
<path d="M173.875 163.048L151.916 150.37L155.877 149.614L176.526 161.536L173.875 163.048ZM187.646 160.61L165.86 148.033L168.541 146.537L190.281 159.089L187.646 160.61ZM162.279 165.176L142.312 153.648L143.697 151.387L164.346 163.309L162.279 165.176ZM169.078 148.948L143.737 154.095L145.409 151.501L167.842 146.914L169.086 148.944L169.078 148.948ZM179.104 135.014L151.584 139.484L150.227 137.485L178.09 132.94L179.111 135.01L179.104 135.014ZM190.236 160.48L162.324 165.202L161.299 163.132L189.012 158.448L190.236 160.48ZM146.236 153.544L142.312 153.648L150.272 137.511L153.888 138.152L146.236 153.544ZM195.402 145.939L176.405 134.971L178.131 132.924L198.045 144.422L195.402 145.939ZM180.459 154.743L176.906 154.091L185.106 139.19L188.661 139.843L180.467 154.747L180.459 154.743ZM169.563 149.108L166.048 148.39L175.09 133.499L178.605 134.217L169.563 149.108ZM190.23 160.474L186.704 159.769L194.233 144.208L197.994 144.39L190.223 160.47L190.23 160.474Z" fill="#52BD95"/>
<path d="M102.714 114.009L94.7267 112.492L87.9838 124.33C74.5974 106.322 79.0173 85.009 100.336 69.3712L93.7287 66.3689C70.4149 83.4641 65.4543 106.481 80.288 126.301L60.3499 122.516L57.7235 127.127L91.579 133.555L102.714 114.009Z" fill="#52BD95"/>
<path d="M235.267 87.5984L243.22 89.1749L250.662 76.6589C261.998 88.0646 265.838 101.674 261.18 114.692L269.414 115.674C274.282 102.069 270.625 87.8682 259.41 75.7609L277.818 79.4097L280.548 74.8181L246.839 68.1367L235.267 87.5984Z" fill="#52BD95"/>
<path d="M170.875 42.8245L165.581 39.7682L178.052 32.568L169.818 27.8138L135.746 47.4849L143.981 52.239L156.451 45.0394L161.765 48.1075C152.207 54.2204 146.77 59.7952 149.295 61.2529C151.82 62.7106 161.476 59.5719 172.064 54.0535L188.56 63.578C190.418 62.8694 192.18 62.0427 193.815 61.0984C195.303 60.2393 196.622 59.3197 197.772 58.3537L181.214 48.7939C191.02 42.5818 196.642 36.8726 194.083 35.3948C191.523 33.917 181.634 37.1632 170.875 42.8245ZM174.943 50.2025C163.706 56.6897 152.906 60.9719 150.818 59.7667C149.036 58.7378 154.18 54.0427 162.714 48.6555L168.767 52.1502C170.5 51.4019 172.135 50.5842 173.66 49.7037C175.186 48.8228 176.602 47.8785 177.897 46.8789L171.826 43.3735C181.34 38.3093 189.697 35.2297 191.507 36.2748C193.595 37.48 186.178 43.7158 174.943 50.2025Z" fill="#52BD95"/>
</svg>
