<svg width="434" height="365" viewBox="0 0 434 365" fill="none" xmlns="http://www.w3.org/2000/svg">
<path d="M312.642 136.761L244.163 97.225C254.287 89.4125 253.239 78.2714 240.951 71.1766C227.475 63.3964 205.541 63.3944 192.062 71.1766C178.583 78.9589 178.586 91.6222 192.062 99.4024L24.4443 196.177L164.126 276.822L269.065 216.235C300.06 232.033 347.514 231.427 377.14 214.322C407.947 196.535 407.947 167.592 377.14 149.806C359.544 139.646 335.648 135.314 312.642 136.761ZM199.046 75.2089C208.674 69.6504 224.339 69.6504 233.967 75.2089C243.594 80.7674 243.594 89.8117 233.967 95.3702C224.339 100.929 208.674 100.929 199.046 95.3702C189.419 89.8117 189.419 80.7674 199.046 75.2089ZM38.4124 196.177L200.076 102.84C203.698 103.967 207.591 104.683 211.572 105.013L211.572 129.675C209.547 130.086 207.644 130.729 206.03 131.66C204.417 132.592 203.303 133.691 202.594 134.858L188.521 134.858C187.805 133.691 186.691 132.592 185.078 131.66C179.302 128.326 169.902 128.326 164.126 131.661C158.35 134.995 158.35 140.423 164.126 143.757C165.739 144.689 167.642 145.332 169.664 145.741L169.664 165.963C167.642 166.376 165.739 167.019 164.126 167.951C158.35 171.285 158.35 176.713 164.126 180.048C169.902 183.382 179.302 183.382 185.078 180.048C190.854 176.713 190.854 171.285 185.078 167.951C183.465 167.019 181.562 166.376 179.54 165.967L179.54 145.745C181.562 145.332 183.465 144.689 185.078 143.757C186.691 142.826 187.805 141.727 188.514 140.56L202.587 140.56C203.303 141.727 204.417 142.826 206.03 143.757C211.806 147.092 221.207 147.092 226.982 143.757C232.758 140.423 232.758 134.995 226.982 131.66C225.369 130.729 223.466 130.086 221.444 129.677L221.448 105.013C227.038 104.552 232.454 103.3 237.183 101.259L300.895 138.044C287.884 140.036 275.578 143.927 265.395 149.806C248.703 159.443 241.132 172.354 242.532 184.993L226.982 176.015L206.03 188.112L247.935 212.306L255.938 207.685C257.786 209.251 259.86 210.751 262.081 212.203L164.126 268.757L38.4124 196.177ZM213.014 135.693C214.938 134.582 218.071 134.58 219.998 135.693C221.926 136.806 221.922 138.614 219.998 139.725C218.074 140.836 214.942 140.838 213.014 139.725C211.087 138.612 211.09 136.804 213.014 135.693ZM171.11 139.725C169.182 138.612 169.186 136.804 171.11 135.693C173.034 134.582 176.166 134.58 178.094 135.693C180.022 136.806 180.018 138.614 178.094 139.725C176.17 140.836 173.037 140.838 171.11 139.725ZM178.094 171.983C180.022 173.096 180.018 174.904 178.094 176.015C176.17 177.126 173.037 177.128 171.11 176.015C169.182 174.902 169.186 173.094 171.11 171.983C173.034 170.872 176.166 170.87 178.094 171.983ZM349.204 198.193C333.8 207.086 308.735 207.086 293.331 198.193C277.928 189.3 277.928 174.828 293.331 165.935C308.735 157.042 333.8 157.042 349.204 165.935C364.607 174.828 364.607 189.3 349.204 198.193ZM245.389 194.707C246.733 197.415 248.539 200.054 250.767 202.606L247.935 204.241L219.998 188.112L226.982 184.08L245.389 194.707ZM269.065 155.957L283.033 164.021C267.172 175.211 268.272 191.79 286.347 202.225C291.456 205.175 297.431 207.318 303.79 208.703L298.67 219.735C289.067 217.828 280.03 214.707 272.379 210.29C246.601 195.406 245.539 171.62 269.065 155.957ZM370.156 210.29C353.345 219.995 329.959 223.646 308.197 221.243L313.337 210.167C328.479 211.578 344.538 208.951 356.188 202.225C367.837 195.499 372.387 186.227 369.943 177.485L389.128 174.517C393.291 187.082 386.967 200.584 370.156 210.29ZM386.516 169.017L367.408 171.973C365.009 168.302 361.297 164.852 356.188 161.902C338.113 151.467 309.395 150.83 290.017 159.989L276.049 151.925C303.179 138.342 344.378 138.955 370.156 153.838C377.807 158.255 383.213 163.473 386.516 169.017Z" fill="#52BD95"/>
<path d="M300.315 169.967C288.76 176.638 288.76 187.489 300.315 194.161C311.87 200.832 330.664 200.832 342.219 194.161C353.775 187.489 353.775 176.638 342.219 169.967C330.664 163.296 311.87 163.296 300.315 169.967ZM335.235 190.128C327.532 194.576 315.003 194.576 307.299 190.128C299.596 185.681 299.596 178.447 307.299 173.999C315.003 169.552 327.532 169.552 335.235 173.999C342.939 178.447 342.939 185.681 335.235 190.128Z" fill="#52BD95"/>
<path d="M52.3804 196.177L59.3652 192.144L66.35 196.177L59.3652 200.209L52.3804 196.177Z" fill="#52BD95"/>
<path d="M66.3486 188.112L115.237 159.886L122.221 163.919L73.3327 192.144L66.3486 188.112Z" fill="#52BD95"/>
<path d="M66.3486 204.241L73.3334 200.209L80.3182 204.241L73.3334 208.274L66.3486 204.241Z" fill="#52BD95"/>
<path d="M80.3169 196.177L129.205 167.951L136.19 171.983L87.301 200.209L80.3169 196.177Z" fill="#52BD95"/>
<path d="M80.3169 212.306L87.3017 208.273L94.2865 212.306L87.3017 216.338L80.3169 212.306Z" fill="#52BD95"/>
<path d="M94.2852 204.241L143.174 176.015L150.158 180.048L101.269 208.273L94.2852 204.241Z" fill="#52BD95"/>
<path d="M94.2852 220.37L101.27 216.337L108.255 220.37L101.27 224.403L94.2852 220.37Z" fill="#52BD95"/>
<path d="M108.253 212.306L157.142 184.08L164.126 188.112L115.237 216.338L108.253 212.306Z" fill="#52BD95"/>
<path d="M164.126 260.693L185.078 248.596L150.158 228.435L129.206 240.531L164.126 260.693ZM143.174 240.531L150.158 236.499L171.11 248.596L164.126 252.628L143.174 240.531Z" fill="#52BD95"/>
<path d="M192.062 244.564L213.015 232.467L185.078 216.338L164.126 228.435L192.062 244.564ZM178.094 228.435L185.078 224.402L199.046 232.467L192.062 236.499L178.094 228.435Z" fill="#52BD95"/>
<path d="M219.999 228.435L240.951 216.338L185.078 184.08L164.126 196.177L219.999 228.435ZM178.094 196.177L185.078 192.144L226.983 216.338L219.999 220.37L178.094 196.177Z" fill="#52BD95"/>
</svg>
