<svg width="434" height="251" viewBox="0 0 434 251" fill="none" xmlns="http://www.w3.org/2000/svg">
<path d="M244.442 72.6444L237.458 68.6122C243.234 65.2775 243.234 59.8501 237.458 56.5154C231.683 53.1807 222.282 53.1807 216.506 56.5154L209.522 60.5477C207.594 61.6606 204.466 61.6606 202.538 60.5477C200.61 59.4348 200.61 57.6283 202.538 56.5154L213.014 50.467L216.506 52.4831L223.49 48.4509L213.014 42.4025L202.538 48.4509L195.554 44.4186L188.57 48.4509L195.554 52.4831C189.778 55.8178 189.778 61.2452 195.554 64.5799C201.33 67.9146 210.73 67.9146 216.506 64.5799L223.49 60.5477C225.418 59.4348 228.547 59.4348 230.474 60.5477C232.402 61.6606 232.402 63.467 230.474 64.5799L219.998 70.6283L216.506 68.6122L209.522 72.6444L219.998 78.6928L230.474 72.6444L237.458 76.6767L244.442 72.6444Z" fill="#52BD95"/>
<path d="M254.919 38.3702C233.74 26.1424 199.273 26.1424 178.094 38.3702C156.915 50.598 156.915 70.4972 178.094 82.725C199.273 94.9528 233.74 94.9528 254.919 82.725C276.098 70.4972 276.098 50.598 254.919 38.3702ZM185.078 78.6928C167.747 68.6867 167.747 52.4085 185.078 42.4024C202.409 32.3964 230.604 32.3964 247.935 42.4024C265.266 52.4085 265.266 68.6867 247.935 78.6928C230.604 88.6988 202.409 88.6988 185.078 78.6928Z" fill="#52BD95"/>
<path d="M268.887 30.3057C240.004 13.6303 193.008 13.6303 164.126 30.3057C135.243 46.9811 135.243 74.1141 164.126 90.7895C186.363 103.628 219.31 106.542 246.489 99.6081L246.489 107.753L218.413 123.963L221.905 154.205L180.06 178.364L183.636 230.013L193.504 229.788L190.1 180.632L232.063 156.404L228.571 126.163L256.368 110.114L256.368 96.5698C260.272 95.1303 263.97 93.4468 267.445 91.5415L267.441 111.785L235.713 130.104L242.697 158.33L200.953 182.431L208.209 245.273L216.506 250.064L419.045 133.128L290.412 58.8621C289.706 48.479 282.586 38.2149 268.887 30.3057ZM171.11 86.7573C146.079 72.3057 146.079 48.7895 171.11 34.3379C196.141 19.8863 236.872 19.8863 261.903 34.3379C286.934 48.7895 286.934 72.3057 261.903 86.7573C236.872 101.209 196.141 101.209 171.11 86.7573ZM278.308 84.1323L384.124 145.225L370.156 153.29L277.317 99.6887L277.317 84.9105C277.634 84.6464 278.001 84.3984 278.308 84.1323ZM277.317 114.148L277.317 107.753L363.172 157.322L349.204 165.386L268.887 119.015L277.317 114.148ZM258.411 217.806L244.443 225.87L213.828 208.195L211.834 190.915L258.411 217.806ZM213.014 183.531L226.982 175.467L279.363 205.709L265.395 213.773L213.014 183.531ZM233.967 171.435L247.935 163.37L300.315 193.612L286.347 201.677L233.967 171.435ZM252.59 157.993L247.935 139.177L321.267 181.515L307.299 189.58L252.59 157.993ZM247.935 131.112L261.903 123.048L342.22 169.419L328.252 177.483L247.935 131.112ZM214.827 216.836L237.459 229.902L217.655 241.336L214.827 216.836ZM391.108 141.193L283.292 78.9448C286.553 74.9851 288.704 70.8036 289.741 66.5395L405.076 133.128L391.108 141.193Z" fill="#52BD95"/>
<path d="M150.157 187.564L157.141 183.531L143.173 175.467L150.157 171.435L108.253 147.241L101.269 151.273L87.3007 143.209L80.3166 147.241L94.2847 155.306L87.3007 159.338L129.205 183.532L136.189 179.499L150.157 187.564ZM101.269 159.338L108.253 155.306L136.189 171.435L129.205 175.467L101.269 159.338Z" fill="#52BD95"/>
<path d="M160.634 161.354L167.618 157.322L153.65 149.257L160.634 145.225L125.713 125.064L118.729 129.096L104.761 121.031L97.777 125.064L111.745 133.128L104.761 137.16L139.682 157.322L146.666 153.289L160.634 161.354ZM118.729 137.16L125.713 133.128L146.666 145.225L139.681 149.257L118.729 137.16Z" fill="#52BD95"/>
<path d="M164.126 131.112L171.11 127.08L157.142 119.015L164.126 114.983L136.189 98.8541L129.205 102.886L115.237 94.8218L108.253 98.8541L122.221 106.919L115.237 110.951L143.173 127.08L150.158 123.048L164.126 131.112ZM129.205 110.951L136.189 106.919L150.158 114.983L143.173 119.015L129.205 110.951Z" fill="#52BD95"/>
</svg>
